<svg width="237" height="53" viewBox="0 0 237 53" fill="none" xmlns="http://www.w3.org/2000/svg">
<path d="M52.215 45.6254H50.2441V49.9554H48.4112V45.6254H46.4402L43.6317 49.9554H41.4341L44.9325 44.6642L41.7002 39.71H43.6711L46.4205 44.04H48.3915V39.71H50.2441V44.04H52.215L54.9645 39.71H56.9354L53.713 44.6642L57.2015 49.9356H55.0532L52.215 45.6254Z" fill="#3D352F"/>
<path d="M59.2808 39.7197H61.0842V47.1709L67.332 39.7197H68.9974V49.9552H67.194V42.504L60.9758 49.9552H59.2808V39.7197Z" fill="#3D352F"/>
<path d="M80.2023 41.3447H76.4773V49.9552H74.6344V41.3447H70.939V39.7197H80.2023V41.3447Z" fill="#3D352F"/>
<path d="M90.1753 39.7197V49.9552H88.3325V41.3447H83.9472L83.8388 43.6237C83.7955 44.7801 83.6737 45.9321 83.4742 47.0718C83.3485 47.8663 83.0452 48.6218 82.5872 49.2814C82.3955 49.553 82.1388 49.7717 81.8409 49.9171C81.5429 50.0626 81.2132 50.1302 80.8824 50.1137C80.4951 50.1061 80.1106 50.0461 79.7393 49.9354L79.8575 48.3698C80.0092 48.4072 80.1645 48.4272 80.3207 48.4293C80.5565 48.4377 80.7899 48.3789 80.9939 48.2597C81.1979 48.1404 81.3642 47.9657 81.4737 47.7555C81.7445 47.2589 81.9153 46.7134 81.9763 46.1503C82.0452 45.536 82.1241 44.6541 82.1832 43.5048L82.3606 39.7197H90.1753Z" fill="#3D352F"/>
<path d="M95.3882 49.4003C94.6003 48.9646 93.946 48.3204 93.4961 47.5375C93.0432 46.7122 92.8057 45.785 92.8057 44.8424C92.8057 43.8998 93.0432 42.9726 93.4961 42.1473C93.9414 41.3609 94.5969 40.7156 95.3882 40.2845C96.2287 39.8467 97.1615 39.6182 98.1081 39.6182C99.0547 39.6182 99.9875 39.8467 100.828 40.2845C101.617 40.7158 102.269 41.3613 102.71 42.1473C103.163 42.9726 103.401 43.8998 103.401 44.8424C103.401 45.785 103.163 46.7122 102.71 47.5375C102.263 48.3191 101.612 48.9632 100.828 49.4003C99.989 49.843 99.0556 50.0743 98.1081 50.0743C97.1606 50.0743 96.2272 49.843 95.3882 49.4003V49.4003ZM99.8721 47.9933C100.389 47.6933 100.812 47.254 101.094 46.725C101.38 46.1372 101.528 45.4917 101.528 44.8375C101.528 44.1833 101.38 43.5377 101.094 42.9499C100.812 42.4236 100.389 41.9876 99.8721 41.6915C99.3313 41.3992 98.727 41.2463 98.113 41.2463C97.4991 41.2463 96.8947 41.3992 96.354 41.6915C95.8348 41.9874 95.4081 42.4232 95.1221 42.9499C94.8239 43.5339 94.6683 44.1809 94.6683 44.8375C94.6683 45.494 94.8239 46.141 95.1221 46.725C95.4079 47.2544 95.8344 47.6935 96.354 47.9933C96.8925 48.2926 97.4977 48.4496 98.113 48.4496C98.7283 48.4496 99.3336 48.2926 99.8721 47.9933V47.9933Z" fill="#3D352F"/>
<path d="M121.592 48.3302V52.2937H119.857V49.9156H111.343V52.2937H109.589V48.3302H110.131C110.781 48.3302 111.235 47.8348 111.471 46.9431C111.766 45.7085 111.935 44.4469 111.974 43.1778L112.131 39.7197H120.015V48.3302H121.592ZM113.314 46.5071C113.236 47.1953 112.931 47.8374 112.447 48.3302H118.241V41.3943H113.817L113.728 43.376C113.664 44.4282 113.526 45.4746 113.314 46.5071V46.5071Z" fill="#3D352F"/>
<path d="M132.737 39.7197V49.9552H130.894V41.3447H126.509L126.391 43.6237C126.358 44.7808 126.236 45.9336 126.026 47.0718C125.899 47.8643 125.6 48.6187 125.149 49.2814C124.953 49.5512 124.695 49.7683 124.396 49.9135C124.096 50.0586 123.766 50.1274 123.435 50.1138C123.051 50.106 122.669 50.046 122.301 49.9354L122.42 48.3699C122.571 48.4081 122.727 48.428 122.883 48.4293C123.118 48.4377 123.352 48.3789 123.556 48.2597C123.76 48.1405 123.926 47.9657 124.036 47.7555C124.299 47.2563 124.466 46.7118 124.528 46.1503C124.607 45.536 124.676 44.6542 124.745 43.5048L124.913 39.7197H132.737Z" fill="#3D352F"/>
<path d="M144.474 39.7197V49.9552H142.819V46.7152H139.655L137.418 49.9552H135.447L137.921 46.4575C137.225 46.2765 136.605 45.8732 136.157 45.3081C135.732 44.7375 135.513 44.0387 135.536 43.3264C135.506 42.8155 135.599 42.3048 135.806 41.8375C136.014 41.3701 136.33 40.9598 136.728 40.6412C137.697 39.9842 138.853 39.664 140.02 39.7296L144.474 39.7197ZM138.069 44.8821C138.652 45.2648 139.346 45.4393 140.04 45.3775H142.858V41.3447H140.118C138.345 41.3447 137.458 42.0053 137.458 43.3264C137.424 43.6163 137.463 43.9099 137.569 44.1812C137.676 44.4526 137.847 44.6933 138.069 44.8821V44.8821Z" fill="#3D352F"/>
<path d="M160.823 41.3447H157.098V49.9552H155.255V41.3447H151.53V39.7197H160.823V41.3447Z" fill="#3D352F"/>
<path d="M171.456 45.4566H163.198C163.243 45.8788 163.371 46.2879 163.574 46.6604C163.777 47.0328 164.051 47.3611 164.381 47.6266C165.091 48.1916 165.979 48.4832 166.884 48.449C167.437 48.4738 167.989 48.3757 168.5 48.1616C169.011 47.9475 169.468 47.6227 169.84 47.2104L170.826 48.4093C170.36 48.953 169.772 49.3775 169.111 49.6479C168.28 49.9652 167.393 50.1079 166.505 50.067C165.616 50.0261 164.746 49.8025 163.947 49.4101C163.126 48.9925 162.442 48.3458 161.976 47.5473C161.536 46.7179 161.306 45.7923 161.306 44.8522C161.306 43.9121 161.536 42.9865 161.976 42.1571C162.401 41.3757 163.032 40.7276 163.799 40.2844C164.605 39.8383 165.511 39.6095 166.431 39.6205C167.341 39.6092 168.238 39.8381 169.032 40.2844C169.791 40.7267 170.409 41.376 170.816 42.1571C171.258 42.9988 171.478 43.9402 171.456 44.8918C171.469 45.0799 171.469 45.2686 171.456 45.4566V45.4566ZM164.243 41.9985C163.647 42.5523 163.276 43.3071 163.198 44.119H169.732C169.656 43.3096 169.284 42.5575 168.687 42.0085C168.066 41.4798 167.279 41.1897 166.465 41.1897C165.651 41.1897 164.864 41.4798 164.243 42.0085V41.9985Z" fill="#3D352F"/>
<path d="M182.06 40.7008C182.791 41.1185 183.391 41.7327 183.794 42.4745C184.217 43.2655 184.431 44.1526 184.415 45.0507C184.435 45.9729 184.207 46.8834 183.755 47.6863C183.315 48.449 182.669 49.0708 181.892 49.4798C181.043 49.9095 180.103 50.127 179.153 50.1139C178.392 50.1565 177.632 50.016 176.936 49.7041C176.241 49.3921 175.629 48.9178 175.152 48.3205C174.123 46.8576 173.622 45.0851 173.733 43.2969C173.635 41.5501 174.086 39.8166 175.024 38.3426C175.994 37.084 177.403 36.2414 178.966 35.9844L183.617 34.9341L183.883 36.6383L179.596 37.5598C178.48 37.7513 177.449 38.2801 176.64 39.0758C175.929 39.933 175.535 41.0115 175.526 42.1276C175.945 41.4789 176.526 40.9526 177.211 40.6017C177.931 40.2311 178.729 40.0439 179.537 40.0568C180.42 40.0468 181.289 40.2689 182.06 40.7008V40.7008ZM180.937 48.1223C181.435 47.8325 181.842 47.4065 182.109 46.8936C182.4 46.3454 182.546 45.7313 182.533 45.1101C182.533 44.6677 182.446 44.2296 182.278 43.8209C182.11 43.4122 181.863 43.0408 181.552 42.7279C181.24 42.4151 180.871 42.167 180.465 41.9977C180.058 41.8284 179.622 41.7412 179.182 41.7412C178.742 41.7412 178.307 41.8284 177.9 41.9977C177.494 42.167 177.124 42.4151 176.813 42.7279C176.502 43.0408 176.255 43.4122 176.087 43.8209C175.919 44.2296 175.832 44.6677 175.832 45.1101C175.822 45.7322 175.971 46.3464 176.265 46.8936C176.544 47.4082 176.961 47.8339 177.468 48.1223C177.993 48.4232 178.588 48.5772 179.192 48.5682C179.803 48.5783 180.405 48.4244 180.937 48.1223V48.1223Z" fill="#3D352F"/>
<path d="M196.221 45.4566H187.953C187.998 45.8788 188.126 46.2879 188.329 46.6604C188.532 47.0328 188.806 47.3611 189.136 47.6266C189.849 48.1931 190.74 48.4847 191.649 48.449C192.202 48.4738 192.753 48.3757 193.264 48.1616C193.775 47.9475 194.233 47.6227 194.605 47.2104L195.59 48.4093C195.124 48.953 194.537 49.3775 193.876 49.6479C193.044 49.9652 192.157 50.1079 191.269 50.067C190.381 50.0261 189.511 49.8025 188.712 49.4101C187.89 48.9925 187.206 48.3458 186.741 47.5473C186.301 46.7179 186.071 45.7923 186.071 44.8522C186.071 43.9121 186.301 42.9865 186.741 42.1571C187.165 41.3757 187.796 40.7276 188.564 40.2844C189.369 39.8383 190.276 39.6095 191.195 39.6205C192.105 39.6092 193.002 39.8381 193.797 40.2844C194.555 40.7267 195.174 41.376 195.58 42.1571C196.023 42.9988 196.243 43.9402 196.221 44.8918C196.241 45.0438 196.241 45.232 196.221 45.4566ZM188.998 41.9985C188.402 42.5523 188.03 43.3071 187.953 44.119H194.487C194.411 43.3096 194.038 42.5575 193.442 42.0085C192.821 41.4798 192.034 41.1897 191.22 41.1897C190.406 41.1897 189.619 41.4798 188.998 42.0085V41.9985Z" fill="#3D352F"/>
<path d="M14.8955 3.20659C14.8972 3.53753 14.8807 3.86832 14.8462 4.19744C14.8209 4.41474 14.7679 4.62786 14.6885 4.83159C14.6291 4.9648 14.5456 5.08575 14.4422 5.18829C14.3556 5.26631 14.2431 5.30875 14.1268 5.30719H5.8982V12.1243H13.644C13.7542 12.1205 13.8622 12.1555 13.9494 12.2233C14.0612 12.3104 14.1465 12.4271 14.1958 12.5602C14.2833 12.7578 14.3366 12.9689 14.3535 13.1845C14.4205 13.8433 14.4205 14.5073 14.3535 15.1662C14.3362 15.3881 14.2829 15.6056 14.1958 15.8102C14.1515 15.9542 14.0658 16.0818 13.9494 16.1768C13.8631 16.2475 13.7552 16.286 13.644 16.2858H5.8982V25.7485C5.90113 25.8806 5.85945 26.0098 5.77994 26.1151C5.66952 26.2461 5.52151 26.3395 5.35619 26.3826C5.09996 26.4662 4.83574 26.5227 4.56782 26.5511C4.15215 26.5954 3.73426 26.6152 3.31628 26.6105C2.9016 26.6145 2.48703 26.5946 2.0746 26.5511C1.80668 26.5227 1.54246 26.4662 1.28623 26.3826C1.12474 26.3371 0.980548 26.2439 0.872331 26.1151C0.785443 26.0133 0.739721 25.8825 0.744221 25.7485V2.73099C0.722993 2.50528 0.750772 2.27763 0.825638 2.06378C0.900503 1.84993 1.02067 1.65499 1.17783 1.49242C1.47934 1.2335 1.86545 1.09586 2.26184 1.10599H14.1268C14.2411 1.10596 14.3521 1.14432 14.4422 1.21498C14.5495 1.31411 14.6337 1.43594 14.6885 1.57169C14.7688 1.78198 14.8218 2.00176 14.8462 2.22564C14.8797 2.55153 14.8962 2.87897 14.8955 3.20659V3.20659Z" fill="#3D352F"/>
<path d="M41.4936 13.5119C41.517 15.4231 41.2545 17.327 40.7151 19.1597C40.2565 20.7177 39.4738 22.1599 38.4189 23.3907C37.3621 24.5542 36.0446 25.4476 34.5756 25.9966C32.8957 26.6366 31.1092 26.946 29.3132 26.9082C27.5676 26.9416 25.8288 26.6804 24.1691 26.1353C22.7773 25.6609 21.5221 24.8513 20.513 23.7771C19.4832 22.6121 18.7315 21.226 18.3154 19.7245C17.7973 17.8341 17.5517 15.8787 17.5862 13.9181C17.5589 12.0424 17.8215 10.1739 18.3647 8.37926C18.8288 6.83429 19.6187 5.40809 20.6806 4.19786C21.7308 3.0308 23.0364 2.12512 24.4943 1.55229C26.1799 0.907162 27.9732 0.594298 29.7764 0.630791C31.4954 0.597968 33.2077 0.855883 34.8417 1.39375C36.2385 1.85867 37.4983 2.66567 38.5076 3.74206C39.5424 4.8931 40.3038 6.26519 40.7348 7.75502C41.2751 9.62448 41.531 11.5654 41.4936 13.5119ZM36.1031 13.7794C36.1144 12.5603 36.0121 11.3429 35.7976 10.143C35.6282 9.14739 35.2667 8.19477 34.7333 7.33886C34.2471 6.57258 33.5668 5.95018 32.7624 5.53552C31.7854 5.07846 30.7155 4.85787 29.6384 4.89146C28.5393 4.85157 27.4489 5.10089 26.4751 5.61477C25.6459 6.0731 24.9418 6.72994 24.4253 7.52713C23.8813 8.37807 23.5065 9.32696 23.3216 10.3213C23.0997 11.4369 22.9907 12.5723 22.9964 13.71C22.9866 14.9623 23.0922 16.2128 23.3117 17.4455C23.4825 18.4485 23.8403 19.41 24.3662 20.2794C24.8434 21.0508 25.5262 21.6722 26.3371 22.0728C27.3235 22.5206 28.3991 22.7341 29.4808 22.6971C30.5786 22.7355 31.6678 22.4898 32.6441 21.9836C33.4755 21.5232 34.1773 20.8585 34.684 20.0515C35.2264 19.1853 35.6009 18.2238 35.7877 17.2177C36.001 16.0842 36.1066 14.9329 36.1031 13.7794V13.7794Z" fill="#3D352F"/>
<path d="M64.5431 25.8278C64.546 25.9545 64.5189 26.0801 64.4642 26.1944C64.3738 26.3203 64.2405 26.4084 64.0898 26.4421C63.8108 26.5239 63.5228 26.5705 63.2324 26.5808C62.8579 26.5808 62.3455 26.5808 61.6951 26.5808C61.0447 26.5808 60.7096 26.5808 60.3844 26.5808C60.123 26.564 59.8647 26.514 59.6158 26.4322C59.4571 26.3811 59.3167 26.2847 59.2117 26.1547C59.1305 26.031 59.0643 25.898 59.0146 25.7584L56.7579 20.0511C56.482 19.4169 56.2159 18.8422 55.9498 18.3468C55.7226 17.8905 55.4305 17.4699 55.0826 17.0983C54.7727 16.7706 54.3963 16.5138 53.9789 16.3453C53.5202 16.1672 53.0317 16.0797 52.5401 16.0877H50.9338V25.7683C50.9354 25.8942 50.8936 26.0167 50.8156 26.1151C50.7005 26.2384 50.5539 26.3276 50.3918 26.3727C50.1385 26.4526 49.8776 26.5057 49.6133 26.5312C49.1976 26.5756 48.7797 26.5954 48.3618 26.5907C47.9471 26.5947 47.5325 26.5748 47.1201 26.5312C46.8526 26.5056 46.5884 26.4524 46.3317 26.3727C46.1729 26.3329 46.0312 26.2425 45.9277 26.1151C45.8496 26.0167 45.8078 25.8942 45.8094 25.7683V2.73099C45.7861 2.50515 45.8129 2.27693 45.8879 2.06276C45.9629 1.8486 46.0842 1.65381 46.243 1.49242C46.5445 1.2335 46.9306 1.09586 47.327 1.10599H53.8705C54.5308 1.10599 55.0728 1.10599 55.5064 1.10599L56.6791 1.20507C57.621 1.32965 58.5422 1.57955 59.4187 1.94821C60.1915 2.27111 60.8944 2.74229 61.4881 3.33541C62.0522 3.89937 62.495 4.5739 62.7889 5.31711C63.099 6.17392 63.2493 7.08083 63.2324 7.99241C63.2395 8.77981 63.1333 9.56409 62.9171 10.3209C62.706 11.0008 62.3719 11.6357 61.9316 12.1936C61.5056 12.7583 60.9854 13.2444 60.3943 13.6304C59.7449 14.0527 59.0423 14.386 58.3051 14.6212C58.682 14.8044 59.0387 15.0269 59.3694 15.2851C59.7397 15.5705 60.071 15.9036 60.3548 16.2759C60.6666 16.6775 60.9435 17.1051 61.1826 17.5541C61.4682 18.0764 61.7216 18.6158 61.9414 19.1692L64.0405 24.2028C64.2376 24.6982 64.3657 25.0648 64.4347 25.2927C64.4952 25.4652 64.5317 25.6452 64.5431 25.8278V25.8278ZM57.9208 8.60673C57.9465 7.8596 57.751 7.12161 57.359 6.48631C56.9128 5.86354 56.2526 5.4293 55.5064 5.26757C55.2147 5.19433 54.9184 5.14136 54.6194 5.10903C54.161 5.06345 53.7004 5.04361 53.2398 5.04958H50.9338V12.2531H53.5551C54.2024 12.2652 54.8476 12.1749 55.4669 11.9855C55.9696 11.8354 56.436 11.5824 56.8367 11.2424C57.1945 10.9284 57.4746 10.5349 57.6547 10.093C57.8373 9.61931 57.9276 9.11473 57.9208 8.60673V8.60673Z" fill="#3D352F"/>
<path d="M83.2772 24.4806C83.302 24.8104 83.302 25.1417 83.2772 25.4715C83.2584 25.6825 83.2086 25.8895 83.1294 26.0858C83.083 26.2207 83.0013 26.3405 82.8928 26.4326C82.7984 26.5021 82.6847 26.5402 82.5677 26.5416H69.8355C69.4385 26.5556 69.051 26.4175 68.7515 26.1552C68.5901 25.9932 68.4666 25.7971 68.3899 25.5812C68.3132 25.3652 68.2852 25.1348 68.308 24.9067V2.73144C68.286 2.50484 68.3144 2.27617 68.3911 2.06196C68.4678 1.84775 68.5909 1.65336 68.7515 1.49287C69.051 1.23056 69.4385 1.09243 69.8355 1.10644H82.4395C82.5525 1.10429 82.6632 1.13905 82.7549 1.20551C82.8621 1.29676 82.9408 1.41719 82.9815 1.55232C83.0606 1.7521 83.1104 1.96238 83.1294 2.17656C83.1537 2.50639 83.1537 2.83758 83.1294 3.16741C83.152 3.47746 83.152 3.78875 83.1294 4.0988C83.1118 4.31 83.0619 4.51722 82.9815 4.71314C82.9384 4.84714 82.8601 4.96694 82.7549 5.05993C82.6641 5.12929 82.5536 5.1675 82.4395 5.16892H73.4225V11.3717H81.05C81.1671 11.373 81.2808 11.4111 81.3752 11.4807C81.4845 11.566 81.5694 11.6788 81.6216 11.8076C81.6916 12.0068 81.7411 12.2127 81.7694 12.422C81.8348 13.0445 81.8348 13.6722 81.7694 14.2947C81.7414 14.4976 81.6919 14.6969 81.6216 14.8892C81.5747 15.021 81.4887 15.1351 81.3752 15.2162C81.2799 15.2828 81.1661 15.3174 81.05 15.3153H73.4225V22.4791H82.5184C82.6354 22.4805 82.7491 22.5186 82.8436 22.5881C82.9521 22.6761 83.034 22.7928 83.0801 22.925C83.1592 23.1248 83.209 23.335 83.2279 23.5492C83.2663 23.8581 83.2828 24.1694 83.2772 24.4806V24.4806Z" fill="#3D352F"/>
<path d="M102.385 18.8823C102.41 20.0962 102.157 21.2997 101.646 22.3998C101.186 23.377 100.512 24.2373 99.6753 24.9166C98.7963 25.6112 97.7926 26.1293 96.7189 26.4425C95.5372 26.7856 94.3125 26.9558 93.0825 26.9478C92.2698 26.9526 91.4584 26.8829 90.6583 26.7397C89.9892 26.6144 89.3304 26.4388 88.6874 26.2146C88.1899 26.0468 87.7084 25.8346 87.2486 25.5804C86.9504 25.4156 86.6726 25.2161 86.4208 24.9859C86.2342 24.7801 86.1079 24.5263 86.0562 24.2527C85.9782 23.798 85.9452 23.3367 85.9576 22.8754C85.9576 22.4692 85.9576 22.1224 85.9576 21.8846C85.9757 21.6559 86.0186 21.43 86.0857 21.2108C86.1284 21.0685 86.2104 20.9413 86.3222 20.8442C86.4234 20.7731 86.5438 20.7351 86.6672 20.7352C86.9472 20.7755 87.212 20.8882 87.4358 21.0622C87.8505 21.3247 88.2781 21.5661 88.7169 21.7855C89.3176 22.0733 89.9405 22.3119 90.5795 22.4989C91.3936 22.7295 92.2368 22.8396 93.0825 22.8259C93.6522 22.8319 94.2198 22.7552 94.7677 22.598C95.2223 22.4665 95.6473 22.2478 96.0192 21.9539C96.3587 21.6909 96.6321 21.3516 96.8174 20.9631C96.9991 20.5341 97.0898 20.0718 97.0835 19.6056C97.0939 19.0479 96.9091 18.5043 96.5612 18.0698C96.2179 17.6371 95.8048 17.2653 95.3392 16.9699C94.7916 16.6315 94.222 16.3302 93.6344 16.0682C92.9938 15.7908 92.3336 15.4936 91.6635 15.1765C90.9831 14.8651 90.3247 14.5075 89.6925 14.1064C89.0567 13.7147 88.4794 13.2343 87.9778 12.6795C87.4657 12.0923 87.0559 11.4223 86.7657 10.6978C86.4307 9.82639 86.27 8.89708 86.2927 7.96309C86.2717 6.85579 86.5008 5.75812 86.9628 4.75273C87.3895 3.86029 88.013 3.07748 88.7859 2.46386C89.5818 1.83037 90.4969 1.36526 91.4762 1.09648C92.5473 0.794072 93.6552 0.643989 94.7677 0.6506C95.3679 0.649477 95.9673 0.692534 96.5612 0.779415C97.1272 0.868007 97.6869 0.993774 98.2365 1.15593C98.7131 1.29677 99.1778 1.47571 99.626 1.691C99.9155 1.81022 100.185 1.97403 100.424 2.17652C100.53 2.27433 100.619 2.38797 100.69 2.51341C100.739 2.62912 100.778 2.74837 100.809 2.87011C100.841 3.06039 100.864 3.2522 100.878 3.44481C100.878 3.6727 100.878 3.96005 100.878 4.29694C100.878 4.63383 100.878 5.00045 100.878 5.28779C100.856 5.50411 100.823 5.71911 100.779 5.93184C100.744 6.0715 100.677 6.20069 100.582 6.30837C100.486 6.39089 100.363 6.43344 100.237 6.42727C99.9921 6.38878 99.7594 6.29382 99.557 6.14983C99.2417 5.97148 98.8574 5.76339 98.404 5.55531C97.8943 5.31713 97.3671 5.11839 96.8273 4.96081C96.1859 4.78068 95.5222 4.69391 94.8564 4.70318C94.3598 4.6955 93.865 4.7623 93.388 4.90136C93.0047 5.01971 92.6493 5.21523 92.3434 5.47604C92.0705 5.7129 91.8576 6.01183 91.7226 6.348C91.5831 6.69067 91.5128 7.05778 91.5156 7.42802C91.5005 7.95085 91.6601 8.4637 91.969 8.88457C92.3055 9.32731 92.7238 9.70072 93.2008 9.98442C93.7568 10.3324 94.3401 10.6339 94.9451 10.8861L96.916 11.7779C97.592 12.0979 98.25 12.4552 98.8869 12.848C99.5315 13.2437 100.118 13.7272 100.631 14.2847C101.152 14.867 101.566 15.5381 101.853 16.2664C102.201 17.0944 102.382 17.9835 102.385 18.8823V18.8823Z" fill="#3D352F"/>
<path d="M122.725 3.20729C122.743 3.53732 122.743 3.86811 122.725 4.19814C122.702 4.41811 122.652 4.63441 122.577 4.84219C122.527 4.98346 122.442 5.10964 122.331 5.20881C122.239 5.28516 122.124 5.32719 122.005 5.32771H115.689V25.7987C115.687 25.9256 115.641 26.048 115.561 26.1455C115.445 26.2688 115.299 26.3579 115.137 26.4031C114.881 26.4848 114.616 26.538 114.348 26.5616C113.526 26.6409 112.698 26.6409 111.875 26.5616C111.604 26.5366 111.337 26.4835 111.077 26.4031C110.917 26.3582 110.774 26.2689 110.663 26.1455C110.578 26.0503 110.532 25.9264 110.535 25.7987V5.32771H104.208C104.089 5.33079 103.972 5.28832 103.883 5.20881C103.771 5.11166 103.689 4.98449 103.646 4.84219C103.553 4.63792 103.49 4.42091 103.459 4.19814C103.441 3.86811 103.441 3.53732 103.459 3.20729C103.442 2.87724 103.442 2.54649 103.459 2.21644C103.476 1.99234 103.526 1.77198 103.607 1.56248C103.647 1.42173 103.73 1.29704 103.843 1.20577C103.936 1.13298 104.051 1.09449 104.169 1.09678H121.966C122.083 1.09815 122.197 1.13626 122.291 1.20577C122.405 1.29893 122.491 1.42259 122.538 1.56248C122.614 1.77337 122.664 1.99308 122.685 2.21644C122.716 2.54579 122.729 2.87654 122.725 3.20729V3.20729Z" fill="#3D352F"/>
<path d="M154.457 25.7979C154.46 25.9256 154.414 26.0495 154.329 26.1447C154.216 26.2702 154.068 26.3597 153.905 26.4023C153.652 26.4832 153.391 26.5364 153.127 26.5609C152.721 26.6048 152.313 26.6246 151.905 26.6203C151.483 26.625 151.062 26.6051 150.643 26.5609C150.379 26.5374 150.118 26.4842 149.865 26.4023C149.705 26.3574 149.562 26.2681 149.451 26.1447C149.366 26.0495 149.32 25.9256 149.323 25.7979V15.5327H139.921V25.7979C139.923 25.9238 139.881 26.0463 139.803 26.1447C139.694 26.2703 139.55 26.3601 139.389 26.4023C139.136 26.4822 138.875 26.5353 138.611 26.5609C138.195 26.6052 137.777 26.625 137.359 26.6203C136.945 26.6243 136.53 26.6044 136.118 26.5609C135.85 26.5352 135.586 26.4821 135.329 26.4023C135.169 26.3601 135.024 26.2703 134.915 26.1447C134.831 26.0495 134.785 25.9256 134.787 25.7979V1.80941C134.785 1.68169 134.831 1.55779 134.915 1.46262C135.024 1.33698 135.169 1.24722 135.329 1.20499C135.586 1.12527 135.85 1.07216 136.118 1.04647C136.53 1.00292 136.945 0.983054 137.359 0.987005C137.777 0.982298 138.195 1.00216 138.611 1.04647C138.875 1.07199 139.136 1.12511 139.389 1.20499C139.55 1.24722 139.694 1.33698 139.803 1.46262C139.881 1.56102 139.923 1.68355 139.921 1.80941V11.1333H149.362V1.80941C149.36 1.68169 149.406 1.55779 149.49 1.46262C149.601 1.3392 149.745 1.24988 149.904 1.20499C150.157 1.12309 150.418 1.06993 150.683 1.04647C151.102 1.0022 151.523 0.982338 151.944 0.987005C152.352 0.98271 152.76 1.00257 153.166 1.04647C153.431 1.07096 153.692 1.1241 153.945 1.20499C154.108 1.24763 154.255 1.33716 154.368 1.46262C154.453 1.55779 154.499 1.68169 154.496 1.80941L154.457 25.7979Z" fill="#3D352F"/>
<path d="M182.681 13.512C182.704 15.4232 182.442 17.3271 181.902 19.1599C181.435 20.7204 180.642 22.1627 179.577 23.3908C178.53 24.5618 177.223 25.4681 175.763 26.0364C174.076 26.6936 172.279 27.0166 170.471 26.9876C168.725 27.0211 166.986 26.7598 165.327 26.2147C163.934 25.7429 162.678 24.9329 161.671 23.8565C160.637 22.694 159.885 21.307 159.473 19.8039C158.95 17.9145 158.704 15.9584 158.744 13.9975C158.716 12.1219 158.979 10.2533 159.522 8.45869C159.988 6.90936 160.781 5.47959 161.848 4.2674C162.898 3.10033 164.204 2.19464 165.662 1.62181C167.344 0.977456 169.134 0.664612 170.934 0.700325C172.653 0.665798 174.366 0.923755 175.999 1.46328C177.4 1.92673 178.663 2.73383 179.675 3.8116C180.707 4.96319 181.465 6.33535 181.892 7.82455C182.436 9.67015 182.702 11.5872 182.681 13.512V13.512ZM177.29 13.7796C177.303 12.56 177.198 11.342 176.975 10.1431C176.806 9.14755 176.444 8.19493 175.911 7.33903C175.431 6.5673 174.749 5.94337 173.94 5.53568C172.967 5.07731 171.9 4.85662 170.826 4.89162C169.727 4.85173 168.636 5.10106 167.662 5.61494C166.833 6.07326 166.129 6.7301 165.613 7.52729C165.068 8.37823 164.694 9.32712 164.509 10.3215C164.287 11.4371 164.178 12.5725 164.184 13.7102C164.174 14.9625 164.279 16.213 164.499 17.4457C164.67 18.4487 165.027 19.4102 165.553 20.2795C166.028 21.0531 166.712 21.675 167.524 22.073C168.51 22.5214 169.586 22.735 170.668 22.6972C171.766 22.7356 172.855 22.49 173.831 21.9838C174.663 21.5247 175.368 20.864 175.881 20.0616C176.42 19.1948 176.791 18.2332 176.975 17.2277C177.194 16.0917 177.299 14.9366 177.29 13.7796Z" fill="#3D352F"/>
<path d="M216.423 25.7979C216.423 25.9219 216.385 26.043 216.315 26.1447C216.218 26.2701 216.083 26.3606 215.93 26.4023C215.684 26.4814 215.429 26.5345 215.172 26.5608C214.776 26.6051 214.377 26.625 213.979 26.6203C213.591 26.6245 213.202 26.6047 212.816 26.5608C212.562 26.5358 212.31 26.4826 212.067 26.4023C211.917 26.3553 211.784 26.2659 211.683 26.1447C211.605 26.0463 211.563 25.9237 211.565 25.7979V5.12873L204.243 25.7781C204.197 25.9379 204.108 26.0819 203.986 26.1942C203.85 26.3166 203.688 26.4078 203.513 26.4617C203.263 26.5321 203.005 26.5753 202.745 26.5906C202.429 26.5906 202.055 26.5906 201.612 26.5906C201.168 26.5906 200.794 26.5906 200.478 26.5906C200.217 26.5689 199.959 26.5157 199.71 26.432C199.532 26.378 199.367 26.2868 199.227 26.1645C199.113 26.0689 199.031 25.9412 198.99 25.7979L191.934 5.14855V25.7979C191.934 25.9219 191.897 26.043 191.826 26.1447C191.721 26.2701 191.58 26.36 191.422 26.4023C191.178 26.4805 190.927 26.5336 190.673 26.5608C189.89 26.6401 189.101 26.6401 188.318 26.5608C188.063 26.5358 187.812 26.4826 187.569 26.4023C187.415 26.3576 187.278 26.2679 187.174 26.1447C187.104 26.043 187.066 25.9219 187.066 25.7979V3.20648C187.048 2.92767 187.085 2.648 187.177 2.38413C187.268 2.12027 187.412 1.87762 187.598 1.67066C187.978 1.31779 188.481 1.12918 188.998 1.14551H192.358C192.878 1.13753 193.396 1.18739 193.905 1.29415C194.302 1.3781 194.678 1.54336 195.009 1.77965C195.336 2.02063 195.605 2.33208 195.797 2.69123C196.029 3.12817 196.211 3.59024 196.339 4.06852L201.809 19.1988H201.887L207.544 4.10816C207.686 3.62988 207.87 3.16556 208.096 2.72096C208.274 2.37223 208.514 2.05977 208.805 1.79947C209.088 1.55313 209.426 1.3797 209.791 1.29415C210.203 1.18943 210.627 1.13946 211.052 1.14551H214.511C214.819 1.1402 215.126 1.1871 215.418 1.28423C215.658 1.36566 215.875 1.50517 216.049 1.69048C216.218 1.87427 216.342 2.09461 216.413 2.33453C216.504 2.61593 216.547 2.91067 216.541 3.20648L216.423 25.7979Z" fill="#3D352F"/>
<path d="M236.891 24.4804C236.91 24.8104 236.91 25.1412 236.891 25.4712C236.863 25.6806 236.813 25.8864 236.743 26.0856C236.694 26.2214 236.608 26.3412 236.497 26.4324C236.402 26.5019 236.289 26.54 236.172 26.5414H223.449C223.053 26.5534 222.666 26.4155 222.365 26.1549C222.204 25.9929 222.08 25.7969 222.004 25.5809C221.927 25.365 221.899 25.1346 221.922 24.9065V2.73119C221.9 2.5046 221.928 2.27592 222.005 2.06171C222.082 1.8475 222.205 1.65312 222.365 1.49263C222.666 1.23203 223.053 1.09416 223.449 1.1062H236.053C236.167 1.10255 236.278 1.13746 236.369 1.20527C236.476 1.298 236.558 1.41761 236.605 1.55208C236.675 1.75469 236.725 1.96381 236.753 2.17632C236.789 2.50535 236.805 2.8362 236.802 3.16717C236.804 3.47833 236.787 3.7893 236.753 4.09856C236.726 4.30803 236.676 4.51398 236.605 4.7129C236.555 4.84598 236.474 4.96495 236.369 5.05969C236.279 5.13035 236.168 5.16872 236.053 5.16868H227.036V11.3714H234.674C234.788 11.3714 234.899 11.4098 234.989 11.4804C235.101 11.5628 235.187 11.6765 235.235 11.8074C235.315 12.0037 235.364 12.2107 235.383 12.4217C235.449 13.0442 235.449 13.6719 235.383 14.2944C235.365 14.4991 235.315 14.6997 235.235 14.8889C235.192 15.0227 235.105 15.1379 234.989 15.2159C234.898 15.2837 234.787 15.3187 234.674 15.315H227.036V22.4789H236.132C236.249 22.4802 236.363 22.5184 236.457 22.5879C236.569 22.6749 236.654 22.7916 236.704 22.9248C236.774 23.1274 236.823 23.3365 236.852 23.549C236.881 23.8585 236.894 24.1694 236.891 24.4804V24.4804Z" fill="#3D352F"/>
</svg>
