<svg width="166" height="177" viewBox="0 0 166 177" fill="none" xmlns="http://www.w3.org/2000/svg">
<path fill-rule="evenodd" clip-rule="evenodd" d="M62.8719 149.855C53.5879 152.727 36.7231 157.984 33.8176 163.042C35.4318 158.017 48.3893 149.789 62.7606 146.918C52.8198 146.608 20.0809 153.091 3.34961 155.311C35.9772 147.724 35.9772 146.862 54.4562 145.007C59.5485 144.483 64.4898 142.982 69.0056 140.589C76.4083 136.779 78.2228 134.559 79.1913 130.296C81.2507 121.185 80.1598 94.9555 77.6996 91.9625C74.9723 88.6493 70.2412 87.4566 64.3413 87.8652C58.7754 88.2407 55.3356 90.5047 51.4172 92.6914C49.4486 93.9087 47.2774 94.7688 45.0052 95.2316C43.0015 95.596 39.0051 96.1372 37.391 95.0438C45.5952 96.5347 54.7234 88.2738 55.9924 87.7658C54.7679 87.7658 53.1983 87.9094 51.8513 87.9204C50.5044 87.9315 49.0127 87.9204 47.5878 87.9204C42.79 87.8542 34.775 85.8883 29.0977 94.8008C29.4094 91.4103 32.6043 88.5168 35.2759 87.2246C35.2759 87.2246 38.404 85.9546 38.5264 85.8552C37.5797 86.1649 36.5718 86.2445 35.5876 86.0871C28.6524 84.5078 20.5707 78.1244 20.1254 77.8151C36.5895 87.9204 46.5303 84.8833 57.9739 83.7237C58.4303 83.7237 60.5565 83.293 60.5565 83.293C58.6863 83.1494 56.7494 83.0721 54.9015 82.8843C53.0536 82.6966 52.2409 81.4707 51.2836 80.6755C50.2145 79.7209 49.2482 78.6587 48.4004 77.5059C47.6323 76.4015 46.7974 74.7228 46.1741 73.9166C44.2466 71.791 41.8765 70.1066 39.2277 68.9799C37.7317 68.3951 36.169 67.9946 34.5746 67.7872C33.6193 67.6988 32.6579 67.6988 31.7026 67.7872C30.9011 67.9086 30.0662 68.2068 29.3537 68.3062C31.4465 67.0693 35.9104 66.5834 38.7379 67.3344C46.0293 69.2781 43.1907 69.3996 45.495 71.4317C45.1944 70.4488 44.6267 69.3554 44.2371 68.2731C42.4671 63.3916 41.3428 57.3837 37.8363 53.4741C35.6878 51.0776 34.8863 51.2653 33.1386 49.7191C35.0937 50.4873 36.887 51.611 38.4262 53.0324C39.1578 53.7192 39.8386 54.4574 40.4634 55.2412C41.0756 56.0695 41.5766 56.8425 42.1777 57.7702C44.2705 61.1497 45.6063 65.7882 47.4765 69.4217C49.458 73.254 51.3281 76.3352 55.369 78.5109C59.6325 80.8081 63.6511 81.5038 69.1948 81.8241C69.1948 81.8241 68.2598 81.4486 68.0816 81.3934C67.102 81.0842 66.0222 80.797 65.5658 79.9577C64.9091 78.776 64.3525 77.7489 63.7736 76.4788C61.0129 70.0843 59.6771 64.0543 53.6992 60.1447L50.3597 58.2672C52.4556 58.826 54.4609 59.6775 56.3152 60.7963C61.8033 64.1979 64.0296 69.4106 67.4471 74.8112C69.9073 78.6655 72.2784 80.9296 76.72 82.3874C77.5104 82.6524 77.5883 82.6524 77.8332 83.4034C78.7349 85.6122 81.1728 92.8019 81.8963 93.7958C81.6737 91.9846 79.8815 87.0479 79.2469 84.9606C77.5549 79.2398 77.2321 72.3042 74.0483 67.2239C69.5956 60.2331 54.8013 53.3747 48.6119 46.8146C46.7092 44.8279 45.1485 42.5445 43.9922 40.0556C45.3362 41.8696 46.8094 43.5858 48.4004 45.1911C51.5052 47.8582 54.9346 50.1288 58.6084 51.95C60.178 52.7673 62.9944 54.0484 62.9944 54.0484C64.3859 54.6669 64.4972 55.5835 65.3877 56.3677C65.085 55.7554 64.7273 55.1714 64.3191 54.6227C64.3191 54.5564 62.1595 50.5143 61.2244 48.3607C59.9999 45.5556 58.6974 42.1098 58.8867 38.6862C59.1328 39.3588 59.3264 40.0493 59.4656 40.7514C60.7569 45.0144 63.551 49.1007 66.2115 52.4139C68.528 55.3453 71.1846 57.9957 74.1263 60.3104C75.3842 61.2712 74.9946 62.7511 75.7961 63.8997C75.7961 62.1216 75.3174 59.5925 75.0948 57.7702C73.5363 45.3457 70.5418 38.4763 60.6233 30.9995C59.2611 30.1257 57.9457 29.182 56.6826 28.1723C59.0982 28.9674 65.243 33.2967 67.1354 35.0306C67.5584 35.4282 74.4491 44.0315 74.9278 44.5174C74.7163 43.413 74.015 42.5184 74.1819 41.3367C74.8352 37.3741 76.2485 33.5725 78.3453 30.1381C79.169 28.7245 82.3527 24.3731 83.4103 23.7988C82.6644 25.4665 80.6607 26.7807 78.5568 32.7003C77.1542 36.5898 76.6076 40.7322 76.9538 44.8487C77.3176 50.8535 78.2532 56.8107 79.7479 62.6407C79.9272 63.0898 80.0108 63.5709 79.9936 64.0536C79.9763 64.5364 79.8586 65.0104 79.6477 65.4458C79.4807 65.9539 79.3694 66.2631 79.2136 66.8042C79.2136 66.8042 78.9353 67.754 79.2136 68.1295C79.3782 67.6084 79.5791 67.0991 79.8147 66.6055C80.3112 65.235 80.953 63.9208 81.7294 62.6848C83.722 59.0072 85.8259 55.5173 85.9818 51.1217C86.0931 47.8085 85.1914 47.2563 84.5123 44.7493C89.3881 51.5745 86.9836 57.7702 84.4455 64.9489C83.2544 68.2621 82.5643 70.0622 82.9427 73.0662C87.1617 73.3644 87.6961 72.3373 90.5792 71.5642C88.909 72.7708 87.0188 73.6446 85.0133 74.1375C84.7697 74.1947 84.5405 74.3008 84.3397 74.4491C84.1389 74.5974 83.9708 74.7849 83.8457 75C83.7206 75.2152 83.6411 75.4534 83.6122 75.7001C83.5833 75.9468 83.6055 76.1968 83.6775 76.4346C83.9669 77.3623 84.4678 78.9416 85.0133 80.5209C85.4727 81.8928 86.0078 83.2385 86.6163 84.552C86.7833 84.1102 86.928 83.7237 87.0504 83.4476C87.351 82.6966 87.44 82.6966 88.1636 82.4315C90.1725 81.8178 92.0355 80.8073 93.6405 79.4607C91.4141 72.9447 89.967 67.0693 94.5199 60.6859C93.7964 63.3585 92.839 63.9991 92.9615 67.4669C93.2201 70.8223 94.2482 74.0747 95.9671 76.9758C96.468 76.3242 96.9578 75.6284 97.4365 74.8664C98.6833 72.9116 99.7742 70.9789 100.921 69.1456C98.9949 63.4027 98.0042 58.1016 102.034 52.447C101.355 54.954 100.453 55.5614 100.565 58.8194C100.728 61.4749 101.46 64.0653 102.713 66.4177C104.277 64.2147 106.263 62.3385 108.557 60.8957C110.412 59.7769 112.417 58.9254 114.513 58.3666L111.173 60.2441C105.195 64.1426 103.871 70.1837 101.155 76.4899C100.62 77.6802 100.022 78.8415 99.3623 79.9687C98.9059 80.8081 97.8261 81.0731 96.8465 81.4044C96.6684 81.4044 95.7333 81.8352 95.7333 81.8352C101.299 81.5591 105.296 80.8633 109.57 78.522C113.6 76.3132 115.47 73.265 117.452 69.4327C119.322 65.7992 120.658 61.1608 122.75 57.7813C123.909 56.129 125.162 54.5435 126.502 53.0324C128.041 51.611 129.834 50.4873 131.79 49.7191C130.042 51.2322 129.251 51.0776 127.092 53.4741C123.585 57.3837 122.461 63.4137 120.691 68.2731C120.301 69.3775 119.734 70.4819 119.433 71.4317C121.749 69.3996 118.899 69.2229 126.19 67.3344C129.029 66.5834 133.482 67.0693 135.574 68.3062C134.862 68.2068 131.122 67.743 130.354 67.7982C128.752 68.0003 127.182 68.3972 125.678 68.9799C123.038 70.1204 120.68 71.8161 118.765 73.9497C118.108 74.7559 117.262 76.4567 116.539 77.539C115.696 78.6823 114.733 79.7336 113.667 80.6755C112.709 81.5149 111.774 82.7518 110.049 82.8843C108.323 83.0169 106.264 83.1494 104.405 83.293C104.405 83.293 106.52 83.6795 106.977 83.7237C118.42 84.8281 130.699 85.7447 140.985 80.0129C141.697 79.6153 144.48 77.9035 144.825 77.8041C144.335 78.1023 143.545 78.8201 142.999 79.2288C138.923 82.2863 134.316 84.5771 129.407 85.9877C128.105 86.3301 127.704 85.9877 126.469 85.7558C126.7 85.9115 126.951 86.0376 127.214 86.1313L129.719 87.1252C132.368 88.3953 135.519 91.2557 135.886 94.6021C135.886 94.6021 135.886 94.6021 135.886 94.6683C134.539 92.6252 134.929 92.0398 132.135 90.1403C128.149 87.4455 122.216 87.7548 117.418 87.821C115.993 87.821 114.58 87.821 113.155 87.821C111.73 87.821 110.238 87.6222 109.014 87.6664C110.283 88.1744 120.146 95.6954 127.615 94.9444C126.001 96.0488 122.049 95.4966 120.001 95.1322C117.729 94.6694 115.557 93.8093 113.589 92.592C109.67 90.3832 106.231 88.1744 100.665 87.7658C99.0928 87.6428 97.5126 87.6649 95.9448 87.8321C88.5644 91.3993 89.5996 116.547 93.2398 130.197C95.5997 137.221 102.49 140.49 108.424 141.351C120.257 143.074 151.092 147.669 162.681 149.944C151.883 148.685 121.437 145.813 110.583 146.41C120.713 149.955 130.431 157.31 142.944 160.06C129.018 158.392 119.912 152.329 109.615 148.751C109.115 153.421 110.298 158.116 112.954 162.004C105.34 153.091 110.016 146.122 91.6145 139.916C99.4068 147.326 100.264 156.316 107.199 164.544C98.6944 158.481 97.6369 148.629 89.3881 142.456C89.5662 152.782 97.6814 158.249 99.6517 162.203C100.024 162.973 100.582 163.641 101.277 164.146C103.826 165.969 106.387 170.419 108.079 173.114C105.707 170.684 103.058 166.554 99.9857 165.085C99.6517 168.542 98.0487 173.92 95.6888 176.527C99.2844 167.813 100.642 161.838 88.3862 154.063C89.5996 160.955 85.9261 166.145 92.6832 172.01C82.9316 166.896 87.6515 156.89 86.004 151.777C84.3342 159.994 80.7275 167.239 83.1876 173.004C79.7034 169.503 82.4975 157.917 82.6199 153.003C80.772 153.356 73.5474 160.59 71.8331 165.361C73.6587 155.421 82.7646 154.969 81.6848 141.992C75.9853 142.644 76.2302 157.686 65.243 162.247C73.5251 156.725 70.9871 149.259 75.3285 142.688C64.9758 147.05 68.8609 154.295 50.0814 167.647C49.9144 167.691 59.7438 158.238 62.8719 149.855Z" fill="#91765B"/>
<path fill-rule="evenodd" clip-rule="evenodd" d="M91.4915 58.0903C91.4915 58.0903 90.5118 54.7771 91.7141 52.3474C92.5595 50.7898 93.6924 49.4037 95.0537 48.2611C95.0537 48.2611 95.9331 52.1265 95.1316 54.6225C94.8069 55.4178 94.3183 56.137 93.6973 56.7342C93.0762 57.3313 92.3363 57.7932 91.5248 58.0903H91.4915Z" fill="#66BC98"/>
<path fill-rule="evenodd" clip-rule="evenodd" d="M90.4678 42.8277C91.8531 41.7225 93.5476 41.067 95.3213 40.9502C97.9039 40.9502 98.6609 41.4472 98.6609 41.4472C98.6609 41.4472 96.5458 43.7333 94.3862 43.7996C93.0242 43.819 91.6808 43.4839 90.49 42.8277H90.4678Z" fill="#9AC97D"/>
<path fill-rule="evenodd" clip-rule="evenodd" d="M83.3207 41.4245C83.3207 41.4245 85.035 38.1665 84.6231 35.7479C84.2112 33.3292 81.573 30.756 81.573 30.756C81.573 30.756 79.5581 34.0692 80.4598 37.1615C80.8534 38.8886 81.8812 40.4084 83.3429 41.4245H83.3207Z" fill="#9AC97D"/>
<path fill-rule="evenodd" clip-rule="evenodd" d="M67.6252 28.4261C67.6252 28.4261 71.0427 27.8076 71.911 25.5878C72.7793 23.3679 72.8461 17.7576 72.8461 17.7576C72.8461 17.7576 68.7718 19.878 68.0149 23.7213C67.2579 27.5647 67.6252 28.4261 67.6252 28.4261Z" fill="#9AC97D"/>
<path fill-rule="evenodd" clip-rule="evenodd" d="M88.3193 30.4911C88.3193 30.4911 89.2322 25.3556 91.7814 23.953C93.2446 23.1082 94.898 22.6412 96.5903 22.5946C96.5903 22.5946 96.0449 26.8907 93.4623 28.8455C92.0073 29.9952 90.1765 30.5731 88.3193 30.469V30.4911Z" fill="#9AC97D"/>
<path fill-rule="evenodd" clip-rule="evenodd" d="M104.505 26.0846C103.072 24.4819 102.055 22.5558 101.544 20.4742C100.82 17.161 102.969 13.6821 102.969 13.6821C104.807 15.4134 106.013 17.7016 106.397 20.1871C106.56 21.2483 106.474 22.3324 106.146 23.3553C105.818 24.3781 105.256 25.3121 104.505 26.0846V26.0846Z" fill="#9AC97D"/>
<path fill-rule="evenodd" clip-rule="evenodd" d="M109.748 16.1785C109.287 14.9305 109.287 13.5611 109.748 12.3131C110.198 10.8439 111.013 9.51081 112.119 8.43665C112.119 8.43665 113.355 11.3633 112.809 13.4285C112.264 15.4938 109.748 16.1785 109.748 16.1785Z" fill="#9AC97D"/>
<path fill-rule="evenodd" clip-rule="evenodd" d="M79.8592 19.7565C79.8592 19.7565 81.9742 14.0798 84.1672 11.7606C86.3602 9.44135 93.4958 8.44739 93.4958 8.44739C92.9372 11.7568 91.1452 14.7369 88.4753 16.7967C85.9771 18.6523 82.9569 19.6871 79.8369 19.7565H79.8592Z" fill="#9AC97D"/>
<path fill-rule="evenodd" clip-rule="evenodd" d="M96.835 12.2688C97.1104 10.6375 97.6281 9.05573 98.3712 7.57509C99.3174 6.12832 103.436 4.60425 103.436 4.60425C103.374 6.6136 102.551 8.52602 101.132 9.9606C99.9135 11.07 98.4373 11.863 96.835 12.2688V12.2688Z" fill="#9AC97D"/>
<path fill-rule="evenodd" clip-rule="evenodd" d="M77.4877 10.8219C77.5371 8.96597 77.2428 7.11676 76.6194 5.36618C75.8159 3.99215 74.6648 2.85008 73.2798 2.05298C73.2798 2.05298 72.367 5.99569 73.97 8.60208C75.573 11.2085 77.4654 10.8109 77.4654 10.8109L77.4877 10.8219Z" fill="#9AC97D"/>
<path fill-rule="evenodd" clip-rule="evenodd" d="M64.3857 11.2083C64.4073 10.4764 64.2681 9.74862 63.9779 9.07541C63.6876 8.40221 63.2532 7.79973 62.7047 7.30977C61.584 6.41331 60.2569 5.80622 58.842 5.54272C58.7996 6.39105 58.9263 7.23934 59.2147 8.03906C59.5031 8.83877 59.9477 9.57421 60.5229 10.2033C61.0291 10.6803 61.6487 11.0226 62.3241 11.1983C62.9994 11.374 63.7086 11.3774 64.3857 11.2083V11.2083Z" fill="#9AC97D"/>
<path fill-rule="evenodd" clip-rule="evenodd" d="M52.63 66.881C52.63 66.881 49.2014 66.0417 47.7208 63.8218C46.7763 62.3259 46.1266 60.6657 45.8062 58.9293C45.8062 58.9293 49.6244 60.111 51.3721 62.0437C51.9017 62.7225 52.2839 63.5027 52.4947 64.3352C52.7054 65.1677 52.7401 66.0345 52.5966 66.881H52.63Z" fill="#66BC98"/>
<path fill-rule="evenodd" clip-rule="evenodd" d="M63.2727 45.0914C62.9986 43.3515 63.2707 41.5702 64.0519 39.989C65.3544 37.7802 66.1559 37.3937 66.1559 37.3937C66.1559 37.3937 67.0909 40.3424 66.0779 42.231C65.4076 43.4088 64.4411 44.3943 63.2727 45.0914V45.0914Z" fill="#9AC97D"/>
<path fill-rule="evenodd" clip-rule="evenodd" d="M112.286 26.946C112.013 25.2026 112.285 23.4179 113.065 21.8327C114.357 19.6128 115.191 19.2815 115.191 19.2815C115.191 19.2815 116.115 22.2413 115.102 24.1298C114.435 25.306 113.472 26.2913 112.308 26.9902L112.286 26.946Z" fill="#9AC97D"/>
<path fill-rule="evenodd" clip-rule="evenodd" d="M58.3411 23.6994C58.067 21.9596 58.339 20.1782 59.1203 18.5971C60.4116 16.3882 61.2242 16.0017 61.2242 16.0017C61.2242 16.0017 62.1482 18.9505 61.1463 20.839C60.4797 22.0196 59.5124 23.0059 58.3411 23.6994Z" fill="#9AC97D"/>
<path fill-rule="evenodd" clip-rule="evenodd" d="M43.9474 48.5811C43.9474 48.5811 41.9659 45.4777 39.6505 44.6163C37.3351 43.7549 33.7617 44.7488 33.7617 44.7488C33.7617 44.7488 35.5985 48.062 38.7822 48.9235C40.4867 49.4527 42.329 49.3305 43.9474 48.5811V48.5811Z" fill="#66BC98"/>
<path fill-rule="evenodd" clip-rule="evenodd" d="M16.8414 56.0582C16.8414 56.0582 15.5613 52.8555 13.2013 52.4137C10.8413 51.972 5.27539 53.0322 5.27539 53.0322C5.27539 53.0322 8.16969 56.5884 12.1104 56.5663C16.0511 56.5442 16.8414 56.0361 16.8414 56.0361V56.0582Z" fill="#66BC98"/>
<path fill-rule="evenodd" clip-rule="evenodd" d="M49.9031 39.1608C49.9031 39.1608 45.8733 35.8476 45.9178 32.921C45.9207 31.2426 46.3454 29.5914 47.1535 28.1168C47.1535 28.1168 50.6378 30.7343 51.0497 33.937C51.3372 35.7548 50.941 37.614 49.9365 39.1608H49.9031Z" fill="#9AC97D"/>
<path fill-rule="evenodd" clip-rule="evenodd" d="M54.6562 26.2945C52.5437 26.7233 50.3576 26.6323 48.2887 26.0294C45.0494 25.0134 43.0679 21.413 43.0679 21.413C45.4984 20.7022 48.0979 20.8109 50.4595 21.7223C51.4669 22.1118 52.3699 22.7272 53.098 23.5204C53.826 24.3135 54.3593 25.263 54.6562 26.2945V26.2945Z" fill="#9AC97D"/>
<path fill-rule="evenodd" clip-rule="evenodd" d="M51.5728 14.9414C50.265 14.7073 49.0823 14.0229 48.2332 13.0087C47.1639 11.8917 46.3978 10.5237 46.0068 9.03284C46.0068 9.03284 49.1794 9.44147 50.7045 10.9324C52.2296 12.4234 51.5728 14.9414 51.5728 14.9414Z" fill="#9AC97D"/>
<path fill-rule="evenodd" clip-rule="evenodd" d="M37.7803 31.0544C37.7803 31.0544 33.8842 26.3938 32.9602 23.3236C32.0363 20.2534 34.7191 13.649 34.7191 13.649C37.3303 15.7886 39.035 18.8241 39.4947 22.1529C39.8695 25.2273 39.2621 28.3409 37.7581 31.0544H37.7803Z" fill="#9AC97D"/>
<path fill-rule="evenodd" clip-rule="evenodd" d="M30.9452 36.8858C29.6567 35.8328 28.5315 34.5974 27.6057 33.2192C26.8153 31.6841 27.6057 27.3879 27.6057 27.3879C29.3277 28.4417 30.5844 30.1027 31.1234 32.0375C31.4906 33.639 31.4447 35.3066 30.9898 36.8858H30.9452Z" fill="#9AC97D"/>
<path fill-rule="evenodd" clip-rule="evenodd" d="M24.8561 39.8902C23.2573 38.9182 21.491 38.248 19.6464 37.9133C18.0528 37.9337 16.4918 38.3637 15.1157 39.1613C15.1157 39.1613 18.1102 41.9113 21.1826 41.834C24.255 41.7566 24.8561 39.9344 24.8561 39.9344V39.8902Z" fill="#9AC97D"/>
<path fill-rule="evenodd" clip-rule="evenodd" d="M28.0953 48.3051C26.4955 47.3326 24.7299 46.6588 22.8856 46.3171C21.293 46.3281 19.7297 46.7425 18.3438 47.5209C18.3438 47.5209 21.3271 50.2819 24.4106 50.2046C27.4942 50.1273 28.0842 48.3051 28.0842 48.3051H28.0953Z" fill="#66BC98"/>
<path fill-rule="evenodd" clip-rule="evenodd" d="M25.4794 59.8904C24.8499 59.5057 24.1442 59.2602 23.4103 59.1706C22.6765 59.0811 21.9318 59.1495 21.2271 59.3713C19.8834 59.8869 18.6899 60.7256 17.7539 61.8121C17.7539 61.8121 20.2808 63.4687 22.6631 62.6956C23.3337 62.5031 23.9439 62.1447 24.4366 61.654C24.9292 61.1633 25.2881 60.5565 25.4794 59.8904Z" fill="#66BC98"/>
<path fill-rule="evenodd" clip-rule="evenodd" d="M8.03609 75.9377C7.40882 75.5525 6.70492 75.3067 5.97278 75.2171C5.24065 75.1275 4.49765 75.1962 3.79483 75.4186C2.45357 75.9232 1.25729 76.746 0.310547 77.8151C0.310547 77.8151 2.84862 79.4717 5.23085 78.7097C5.89923 78.5118 6.50659 78.1501 6.99687 77.6579C7.48715 77.1657 7.84456 76.5589 8.03609 75.8935V75.9377Z" fill="#66BC98"/>
<path fill-rule="evenodd" clip-rule="evenodd" d="M25.4794 72.2047C24.8499 71.8198 24.1437 71.575 23.4095 71.4873C22.6753 71.3996 21.9307 71.471 21.2271 71.6967C19.883 72.2062 18.689 73.0415 17.7539 74.1264C17.7539 74.1264 20.2808 75.783 22.6631 75.0209C23.3335 74.8246 23.9431 74.4636 24.4355 73.9713C24.9278 73.479 25.2869 72.8714 25.4794 72.2047V72.2047Z" fill="#66BC98"/>
<path fill-rule="evenodd" clip-rule="evenodd" d="M59.5323 76.4897C57.8768 75.8534 56.4583 74.7276 55.4692 73.2649C54.1779 71.0561 54.2558 70.1615 54.2558 70.1615C54.2558 70.1615 57.3059 70.8352 58.4191 72.6464C59.1235 73.8085 59.5074 75.1339 59.5323 76.4897V76.4897Z" fill="#66BC98"/>
<path fill-rule="evenodd" clip-rule="evenodd" d="M63.1719 93.0776C63.1719 93.0776 59.4649 93.2323 57.6059 94.7895C55.7469 96.3467 54.7339 99.9029 54.7339 99.9029C54.7339 99.9029 58.5744 99.9912 60.8787 97.694C62.198 96.4938 63.0162 94.8468 63.1719 93.0776V93.0776Z" fill="#1683A8"/>
<path fill-rule="evenodd" clip-rule="evenodd" d="M49.0906 98.6001C49.0906 98.6001 46.174 100.511 46.2853 102.885C46.3967 105.26 48.5117 110.45 48.5117 110.45C48.5117 110.45 51.4171 106.905 50.5822 103.084C49.7474 99.2627 49.0683 98.6001 49.0683 98.6001H49.0906Z" fill="#1683A8"/>
<path fill-rule="evenodd" clip-rule="evenodd" d="M16.7965 69.9844C16.7965 69.9844 11.8539 71.7735 9.34922 70.2826C7.8873 69.4425 6.65925 68.2545 5.77588 66.8258C5.77588 66.8258 9.80563 65.136 12.8001 66.384C14.5324 67.057 15.9548 68.3384 16.7965 69.9844V69.9844Z" fill="#66BC98"/>
<path fill-rule="evenodd" clip-rule="evenodd" d="M39.9287 72.0503C39.2517 74.0814 38.0775 75.9142 36.5112 77.3845C34.0065 79.6596 29.832 79.5933 29.832 79.5933C30.434 77.1425 31.8446 74.9616 33.8395 73.3976C34.6837 72.7278 35.6726 72.2607 36.7289 72.0327C37.7852 71.8047 38.8803 71.8221 39.9287 72.0834V72.0503Z" fill="#66BC98"/>
<path fill-rule="evenodd" clip-rule="evenodd" d="M37.7245 60.597C36.8798 61.6165 35.6951 62.3021 34.3849 62.5297C32.8794 62.8787 31.3094 62.8445 29.8208 62.4303C29.8208 62.4303 31.7578 59.9013 33.8283 59.338C35.8988 58.7748 37.7579 60.597 37.7579 60.597H37.7245Z" fill="#66BC98"/>
<path fill-rule="evenodd" clip-rule="evenodd" d="M17.7535 90.1515C17.7535 90.1515 11.7423 91.1786 8.62536 90.4497C5.50843 89.7208 1.05566 84.0994 1.05566 84.0994C4.21574 82.9169 7.70847 82.9563 10.8406 84.2099C13.7148 85.424 16.1326 87.5022 17.7535 90.1515V90.1515Z" fill="#1683A8"/>
<path fill-rule="evenodd" clip-rule="evenodd" d="M23.331 103.216C21.7689 103.795 20.1301 104.144 18.4664 104.254C16.7298 104.166 13.3457 101.383 13.3457 101.383C15.124 100.429 17.2007 100.181 19.1566 100.687C20.7386 101.172 22.1736 102.041 23.331 103.216V103.216Z" fill="#1683A8"/>
<path fill-rule="evenodd" clip-rule="evenodd" d="M35.409 105.69C33.7666 106.577 32.3026 107.757 31.0898 109.169C30.2991 110.538 29.8809 112.087 29.8765 113.664C29.8765 113.664 33.7615 112.471 35.2421 109.799C36.7226 107.126 35.409 105.69 35.409 105.69V105.69Z" fill="#1683A8"/>
<path fill-rule="evenodd" clip-rule="evenodd" d="M106.731 30.005C106.731 30.005 107.711 33.3182 106.508 35.7589C105.664 37.3172 104.531 38.7035 103.169 39.8452C103.169 39.8452 102.289 35.9798 103.091 33.4839C103.42 32.6879 103.911 31.968 104.533 31.3693C105.156 30.7707 105.897 30.3062 106.709 30.005H106.731Z" fill="#9AC97D"/>
<path fill-rule="evenodd" clip-rule="evenodd" d="M74.304 102.83C72.9221 103.933 71.2316 104.589 69.4616 104.707C66.8679 104.707 66.1221 104.199 66.1221 104.199C66.1221 104.199 68.2371 101.924 70.3856 101.847C71.7482 101.834 73.0907 102.173 74.2817 102.83H74.304Z" fill="#1683A8"/>
<path fill-rule="evenodd" clip-rule="evenodd" d="M35.9431 98.4784C34.5578 99.5836 32.8633 100.239 31.0896 100.356C28.507 100.356 27.75 99.8589 27.75 99.8589C27.75 99.8589 29.8651 97.5728 32.0135 97.5066C33.3793 97.4852 34.7268 97.8203 35.9208 98.4784H35.9431Z" fill="#1683A8"/>
<path fill-rule="evenodd" clip-rule="evenodd" d="M28.9416 88.3064C27.5584 89.4168 25.8634 90.0764 24.0881 90.195C21.5055 90.195 20.7485 89.6869 20.7485 89.6869C20.7485 89.6869 22.8636 87.4008 25.0121 87.3346C26.3775 87.3163 27.7241 87.6512 28.9193 88.3064H28.9416Z" fill="#1683A8"/>
<path fill-rule="evenodd" clip-rule="evenodd" d="M63.4059 63.0161C63.4059 63.0161 66.8346 63.8555 68.3151 66.0753C69.2542 67.574 69.9035 69.2331 70.2298 70.9678C70.2298 70.9678 66.4116 69.7861 64.6639 67.8534C64.1342 67.1746 63.752 66.3944 63.5413 65.5619C63.3306 64.7294 63.2958 63.8626 63.4393 63.0161H63.4059Z" fill="#66BC98"/>
<path fill-rule="evenodd" clip-rule="evenodd" d="M100.219 94.7455C100.493 96.4889 100.221 98.2736 99.4397 99.8589C98.1484 102.068 97.3358 102.454 97.3358 102.454C97.3358 102.454 96.4007 99.4944 97.4137 97.6169C98.0817 96.4344 99.0485 95.4448 100.219 94.7455V94.7455Z" fill="#1683A8"/>
<path fill-rule="evenodd" clip-rule="evenodd" d="M106.642 100.024C107.917 101.252 108.776 102.842 109.102 104.574C109.414 107.114 109.002 107.888 109.002 107.888C109.002 107.888 106.464 106.076 106.13 103.967C105.954 102.627 106.13 101.265 106.642 100.013V100.024Z" fill="#1683A8"/>
<path fill-rule="evenodd" clip-rule="evenodd" d="M129.496 96.9985C130.767 98.2291 131.626 99.8175 131.956 101.549C132.268 104.1 131.845 104.862 131.845 104.862C131.845 104.862 129.307 103.051 128.984 100.941C128.803 99.6015 128.98 98.2383 129.496 96.9874V96.9985Z" fill="#1683A8"/>
<path fill-rule="evenodd" clip-rule="evenodd" d="M127.57 77.0195C127.57 77.0195 130.676 78.5546 132.713 77.2956C134.75 76.0365 138.19 71.5858 138.19 71.5858C138.19 71.5858 133.648 70.8569 130.732 73.4854C127.815 76.1139 127.57 77.0195 127.57 77.0195Z" fill="#66BC98"/>
<path fill-rule="evenodd" clip-rule="evenodd" d="M150.357 82.0892C150.357 82.0892 153.463 83.6133 155.5 82.3653C157.538 81.1173 160.977 76.6445 160.977 76.6445C160.977 76.6445 156.435 75.9267 153.519 78.5551C150.602 81.1836 150.357 82.0892 150.357 82.0892Z" fill="#66BC98"/>
<path fill-rule="evenodd" clip-rule="evenodd" d="M117.24 100.157C117.24 100.157 121.258 103.47 121.214 106.408C121.208 108.086 120.784 109.736 119.978 111.212C119.978 111.212 116.494 108.594 116.082 105.392C115.793 103.57 116.189 101.707 117.195 100.157H117.24Z" fill="#1683A8"/>
<path fill-rule="evenodd" clip-rule="evenodd" d="M145.604 98.6001C145.604 98.6001 150.825 99.1854 152.394 101.626C153.327 103.027 153.893 104.636 154.042 106.309C154.042 106.309 149.678 106.033 147.552 103.592C146.305 102.223 145.611 100.445 145.604 98.6001V98.6001Z" fill="#1683A8"/>
<path fill-rule="evenodd" clip-rule="evenodd" d="M139.192 100.93C140.478 101.986 141.603 103.221 142.532 104.597C143.322 106.143 142.587 110.439 142.587 110.439C140.863 109.385 139.603 107.725 139.058 105.79C138.697 104.184 138.743 102.514 139.192 100.93Z" fill="#1683A8"/>
<path fill-rule="evenodd" clip-rule="evenodd" d="M145.492 90.6698C147.094 91.6368 148.859 92.3067 150.702 92.6467C152.302 92.6424 153.875 92.2277 155.266 91.4429C155.266 91.4429 152.283 88.6819 149.21 88.7592C146.138 88.8365 145.537 90.6698 145.537 90.6698H145.492Z" fill="#1683A8"/>
<path fill-rule="evenodd" clip-rule="evenodd" d="M145.125 73.3311C145.755 73.716 146.461 73.9608 147.195 74.0485C147.929 74.1362 148.674 74.0648 149.377 73.8391C150.719 73.3255 151.912 72.4909 152.851 71.4094C152.851 71.4094 150.324 69.7528 147.941 70.5149C147.27 70.7093 146.659 71.0697 146.167 71.5623C145.674 72.0549 145.316 72.6635 145.125 73.3311V73.3311Z" fill="#66BC98"/>
<path fill-rule="evenodd" clip-rule="evenodd" d="M121.269 45.7101C121.269 45.7101 123.718 43.1811 126.401 43.0264C128.177 42.9644 129.949 43.238 131.622 43.8327C131.622 43.8327 128.683 46.5164 126.056 47.0796C125.199 47.195 124.327 47.1329 123.496 46.8972C122.664 46.6615 121.891 46.2573 121.225 45.7101H121.269Z" fill="#66BC98"/>
<path fill-rule="evenodd" clip-rule="evenodd" d="M115.414 64.4298C114.692 66.0371 113.487 67.3835 111.963 68.2842C109.659 69.4549 108.779 69.3334 108.779 69.3334C108.779 69.3334 109.614 66.3515 111.495 65.3133C112.701 64.684 114.052 64.3794 115.414 64.4298V64.4298Z" fill="#66BC98"/>
<path fill-rule="evenodd" clip-rule="evenodd" d="M105.429 44.3735C105.104 46.1075 104.249 47.7001 102.98 48.9347C101.02 50.6024 100.13 50.6907 100.13 50.6907C100.13 50.6907 100.241 47.5984 101.822 46.1516C102.848 45.2578 104.091 44.6449 105.429 44.3735V44.3735Z" fill="#66BC98"/>
<path fill-rule="evenodd" clip-rule="evenodd" d="M148.142 59.8571C147.819 61.5917 146.964 63.1849 145.693 64.4182C143.733 66.0859 142.843 66.1742 142.843 66.1742C142.843 66.1742 142.954 63.0819 144.535 61.6351C145.561 60.7413 146.804 60.1284 148.142 59.8571V59.8571Z" fill="#66BC98"/>
<path fill-rule="evenodd" clip-rule="evenodd" d="M154.087 49.1553C153.073 50.6046 151.629 51.7047 149.957 52.3029C147.474 53.0208 146.617 52.7446 146.617 52.7446C146.617 52.7446 147.998 49.9726 150.046 49.2989C151.35 48.9066 152.735 48.8571 154.064 49.1553H154.087Z" fill="#66BC98"/>
<path fill-rule="evenodd" clip-rule="evenodd" d="M108.602 54.3682C108.602 54.3682 112.297 54.2136 114.168 52.6564C116.038 51.0992 116.995 47.532 116.995 47.532C116.995 47.532 113.143 47.4326 110.839 49.7408C109.545 50.9476 108.751 52.5897 108.613 54.3462L108.602 54.3682Z" fill="#66BC98"/>
<path fill-rule="evenodd" clip-rule="evenodd" d="M119.021 42.0105C119.021 42.0105 121.87 40.1109 121.87 37.7254C121.87 35.3399 119.644 30.1713 119.644 30.1713C119.644 30.1713 116.739 33.7164 117.574 37.5376C118.408 41.3589 119.088 41.9552 119.088 41.9552L119.021 42.0105Z" fill="#9AC97D"/>
<path fill-rule="evenodd" clip-rule="evenodd" d="M131.622 60.5639C132.307 58.5365 133.48 56.7054 135.04 55.2296C137.544 52.9546 141.719 53.0208 141.719 53.0208C141.122 55.4655 139.724 57.6446 137.745 59.2165C136.9 59.8864 135.912 60.3535 134.855 60.5815C133.799 60.8095 132.704 60.7921 131.655 60.5308L131.622 60.5639Z" fill="#66BC98"/>
<path fill-rule="evenodd" clip-rule="evenodd" d="M151.114 65.8099C151.114 65.8099 153.719 60.2879 156.101 58.2226C158.483 56.1574 165.686 55.7267 165.686 55.7267C164.847 58.973 162.814 61.7902 159.986 63.6232C157.325 65.2684 154.209 66.0412 151.081 65.832L151.114 65.8099Z" fill="#66BC98"/>
<path fill-rule="evenodd" clip-rule="evenodd" d="M139.782 41.3697C141.344 40.7912 142.983 40.4415 144.647 40.3315C146.383 40.4199 149.779 43.203 149.779 43.203C147.996 44.1557 145.918 44.408 143.957 43.9098C142.375 43.4187 140.941 42.5459 139.782 41.3697V41.3697Z" fill="#9AC97D"/>
<path fill-rule="evenodd" clip-rule="evenodd" d="M132.702 34.931C134.348 34.0391 135.812 32.852 137.022 31.4301C137.801 30.0849 138.219 28.5638 138.235 27.0125C138.235 27.0125 134.35 28.1942 132.869 30.8779C131.389 33.5616 132.702 34.9862 132.702 34.9862V34.931Z" fill="#9AC97D"/>
<path fill-rule="evenodd" clip-rule="evenodd" d="M122.438 25.1902C123.089 24.8412 123.656 24.3564 124.1 23.7692C124.544 23.1819 124.854 22.5063 125.01 21.7886C125.238 20.3803 125.108 18.9376 124.631 17.5919C124.631 17.5919 121.915 18.9282 121.392 21.3579C121.227 22.0324 121.236 22.7374 121.419 23.4074C121.602 24.0774 121.952 24.6906 122.438 25.1902V25.1902Z" fill="#9AC97D"/>
</svg>
