<svg width="583" height="540" viewBox="0 0 583 540" fill="none" xmlns="http://www.w3.org/2000/svg">
<path d="M98.7341 319.446C98.7341 315.912 97.8673 308.511 100.067 305.644C101.526 309.818 102.553 314.129 103.134 318.512C104.845 322.923 105.813 327.586 106.001 332.313C105.467 341.714 105.267 351.049 104.867 360.516C104.001 380.518 106.801 400.053 107.601 419.855C108.832 439.674 111.776 459.35 116.401 478.661C118.467 487.862 120.868 496.996 122.734 506.197C123.472 510.617 124.656 514.95 126.268 519.131C127.601 522.332 129.534 530.266 132.601 531.933C133.734 527.999 128.868 519.998 127.668 516.064C125.476 508.668 123.871 501.111 122.868 493.462C120.601 478.061 118.267 462.859 117.401 447.324C116.534 431.79 114.668 416.255 114.601 400.653C114.601 392.519 114.134 384.385 114.134 376.251C114.156 372.488 113.978 368.727 113.601 364.983C113.601 362.85 112.201 356.982 113.601 355.249C115.268 356.716 116.067 362.383 116.801 364.583C118.134 368.25 119.401 371.917 120.668 375.518C123.401 383.252 126.134 390.986 128.534 398.786C133.401 414.588 138.868 430.123 144.801 445.458C147.739 452.267 149.627 459.484 150.401 466.86C151.001 474.794 151.468 482.661 152.801 490.529C154.134 498.396 155.335 506.263 157.135 513.931C158.115 521.084 161.309 527.752 166.268 532.999C167.068 530.066 163.401 524.599 162.668 521.532C161.613 517.422 160.921 513.228 160.601 508.997C160.334 503.574 159.935 498.174 159.401 492.795C158.071 487.55 157.621 482.12 158.068 476.727C162.401 481.528 162.268 490.929 167.601 495.062C166.519 490.305 164.576 485.786 161.868 481.728C159.265 477.235 157.673 472.23 157.201 467.06C155.801 453.725 156.668 439.99 156.401 426.389C156.401 415.455 156.401 404.72 157.468 393.853C157.934 387.185 158.534 380.518 158.668 373.851C158.185 368.489 158.409 363.086 159.334 357.783C164.001 361.05 166.934 371.651 169.268 376.718C172.668 384.318 175.935 391.986 178.935 399.653C185.235 414.223 190.362 429.272 194.268 444.658C197.735 459.859 201.468 474.927 205.668 489.929C207.735 497.596 208.535 505.463 210.668 513.131C212.202 518.598 213.068 529.932 217.335 533.933C218.202 531.866 216.002 527.932 215.335 525.865C213.868 520.998 212.735 516.131 211.535 511.197C209.335 502.33 208.068 493.262 205.801 484.528C203.491 476.328 201.775 467.973 200.668 459.526C200.268 455.592 199.401 451.725 198.868 447.858C198.468 445.124 195.935 439.99 197.135 437.323C200.002 439.057 202.402 445.191 204.402 447.991C206.671 452.133 209.522 455.927 212.868 459.259C213.268 455.525 205.735 447.591 203.602 444.458C199.658 439.652 196.732 434.094 195.001 428.123C191.973 414.738 187.848 401.626 182.668 388.919C177.233 375.349 170.931 362.143 163.801 349.382C161.019 344.662 159.61 339.258 159.734 333.78C159.734 327.113 159.734 320.446 159.134 313.778C157.64 286.095 153.895 258.579 147.934 231.504C144.668 217.702 141.801 203.434 139.668 189.433C138.668 183.166 138.068 176.499 137.601 170.165C136.384 163.837 136.159 157.359 136.934 150.963C139.778 158.605 141.746 166.546 142.801 174.632C144.734 182.966 147.068 191.233 149.068 199.567C151.913 216.352 155.81 232.942 160.734 249.239C173.068 282.242 185.868 314.712 201.401 346.381C204.557 353.694 206.667 361.415 207.668 369.317C209.401 378.318 211.402 387.185 213.735 395.986C218.202 412.921 222.268 430.323 228.268 446.791C234.242 463.381 241.555 479.458 250.135 494.862C254.402 502.596 258.335 510.53 262.469 518.265C264.752 522.389 267.244 526.395 269.935 530.266C271.802 532.933 274.535 538.533 277.402 540C278.535 536.866 269.669 526.132 267.469 523.398C262.803 516.203 258.723 508.645 255.269 500.796C247.051 486.193 239.791 471.071 233.535 455.525C228.065 440.401 223.392 425.001 219.535 409.388C217.268 400.987 215.002 392.519 212.868 384.052C211.935 380.318 211.201 376.584 210.535 372.851C209.124 368.85 208.469 364.623 208.602 360.383C210.668 361.716 212.202 365.717 213.535 367.784C216.002 371.584 218.402 375.451 220.935 379.185C225.868 386.585 230.802 393.919 236.402 400.787C240.935 406.387 248.935 413.255 251.002 420.189C253.224 428.98 254.982 437.882 256.269 446.858C257.669 455.303 259.674 463.636 262.269 471.793C263.535 475.394 264.669 479.128 266.135 482.661C267.069 485.061 267.802 481.928 267.602 481.194C267.002 479.128 266.469 477.127 265.802 475.06C263.002 466.936 260.775 458.626 259.135 450.191C258.335 445.191 257.335 440.124 256.269 435.123C254.869 431.274 254.125 427.217 254.068 423.122C257.14 425.642 259.736 428.69 261.735 432.123C265.402 436.79 269.135 441.324 272.869 445.858L282.669 457.459C284.869 459.992 288.869 465.726 292.336 466.06C290.108 463.202 287.656 460.526 285.002 458.059L274.735 445.524C267.816 438.549 261.893 430.652 257.135 422.055C255.469 417.988 251.735 415.388 250.802 410.788C249.868 406.187 248.668 400.12 247.268 394.853C245.868 389.586 244.202 384.185 242.735 378.851C241.935 376.118 237.802 367.05 238.935 364.583C241.535 366.783 242.802 372.051 244.468 374.984C247.002 379.451 249.868 383.785 252.602 388.319C258.735 397.853 264.535 407.587 270.535 417.188C276.535 426.789 282.935 437.19 289.469 446.724C292.309 451.417 295.519 455.876 299.069 460.059C302.535 463.859 307.002 470.393 311.735 472.26C308.602 465.193 300.135 459.459 295.535 453.058C290.935 446.658 285.535 438.457 281.069 430.923C272.335 416.255 263.469 401.453 254.402 386.919C244.596 372.838 236.934 357.379 231.668 341.048C229.402 332.98 227.935 325.046 225.668 317.045C223.402 309.045 221.068 301.444 219.335 293.576C226.535 302.844 232.668 313.578 239.335 323.313C242.668 328.513 246.402 333.447 250.002 338.447C253.602 343.448 249.268 345.515 249.668 351.315C249.668 353.315 253.535 355.916 253.402 356.916C253.268 357.916 252.068 361.116 253.402 361.583C254.735 362.05 254.735 365.183 254.602 366.65C254.469 368.117 257.069 367.25 257.135 369.65C257.202 372.051 259.202 372.317 259.735 374.317C259.967 377.068 260.619 379.766 261.669 382.318C263.292 384.161 264.806 386.098 266.202 388.119C266.935 389.586 268.535 390.386 269.202 391.652C269.869 392.919 269.202 396.253 271.002 396.253C275.269 396.253 272.535 407.254 276.935 407.787C281.335 408.321 279.469 417.522 283.602 418.255C285.469 418.255 287.269 422.189 288.335 423.522C290.333 425.132 292.586 426.394 295.002 427.256C298.936 429.189 301.202 435.19 304.136 430.79C305.341 429.139 307.048 427.922 309.002 427.323C310.536 426.722 312.002 431.856 312.402 432.856C314.802 438.457 317.202 443.858 320.002 449.258C321.936 452.925 325.536 463.926 329.669 465.46C328.189 461.357 326.196 457.459 323.736 453.858C320.936 447.991 318.336 442.191 315.869 436.123C313.193 431.514 311.576 426.367 311.135 421.055C311.135 419.055 313.002 418.188 312.869 415.788C312.614 413.696 312.726 411.574 313.202 409.521C314.905 411.024 316.446 412.699 317.802 414.521C319.536 416.321 321.002 421.189 323.336 421.922C325.669 422.655 324.269 419.989 327.069 423.522C327.936 424.589 328.802 425.722 329.736 426.789C330.669 427.856 331.869 427.256 333.069 428.189C334.87 429.96 336.52 431.878 338.002 433.923C338.117 434.102 338.275 434.249 338.461 434.351C338.648 434.453 338.857 434.507 339.069 434.507C339.282 434.507 339.491 434.453 339.677 434.351C339.863 434.249 340.021 434.102 340.136 433.923C341.069 432.323 343.136 434.99 343.803 435.457C347.669 438.324 345.669 436.523 348.603 435.79C349.259 436.069 349.867 436.452 350.403 436.923C352.069 438.39 352.069 436.457 353.536 436.523C355.003 436.59 357.003 438.257 358.603 438.657C360.203 439.057 359.736 436.99 360.669 436.39C361.511 435.751 362.313 435.061 363.069 434.323C363.869 432.79 361.803 428.523 363.936 427.656C366.069 426.789 363.936 422.855 363.936 420.989C363.936 419.122 365.469 417.188 365.069 415.655C364.669 414.121 359.869 398.786 360.069 398.786C362.136 398.786 364.603 412.121 367.069 405.054C368.661 406.842 369.884 408.926 370.669 411.188C371.077 412.381 371.736 413.472 372.603 414.388C373.803 415.188 374.203 413.921 375.069 415.188C375.936 416.455 379.869 423.856 381.403 421.855C382.936 419.855 383.803 425.189 385.803 424.656C387.803 424.122 389.87 428.389 390.803 426.656C391.736 424.922 393.803 427.789 394.336 423.455C394.336 421.722 393.47 417.722 394.336 416.455C394.917 415.271 395.167 413.953 395.062 412.639C394.956 411.325 394.498 410.063 393.736 408.987C391.936 406.587 394.936 406.854 395.336 405.387C396.203 402.52 393.203 397.853 392.203 395.253C391.203 392.653 394.536 393.053 393.403 390.386C392.164 387.053 390.716 383.802 389.069 380.651C388.469 379.651 387.87 378.718 387.336 377.651C386.803 376.584 388.469 376.318 388.203 375.251C387.222 372.09 385.761 369.099 383.869 366.383C382.736 364.45 383.869 361.65 384.669 363.65C386.336 367.117 387.936 370.317 389.469 374.051C402.803 403.454 408.536 435.123 420.403 464.993C426.477 480.154 434.047 494.672 443.003 508.33C446.803 514.131 451.137 519.398 455.203 524.999C458.403 529.399 463.27 538.333 468.937 539.8C468.203 537.466 465.803 536.533 464.737 534.333C465.207 534.525 465.733 534.525 466.203 534.333C465.203 532.199 461.603 530.199 460.003 528.132C457.215 524.61 454.654 520.913 452.337 517.065C448.07 509.597 443.603 502.13 439.87 494.396C432.561 478.967 426.302 463.063 421.136 446.791C416.003 431.256 411.403 415.521 406.403 400.12C403.957 392.327 401.041 384.69 397.67 377.251C394.936 371.317 389.003 362.716 388.669 356.116C391.705 357.939 394.466 360.184 396.87 362.783L406.403 370.717C412.536 375.918 418.736 381.185 424.67 386.652C437.07 397.986 446.87 410.988 458.337 423.122C463.106 428.521 467.306 434.397 470.87 440.657C472.204 442.791 474.603 444.124 475.004 446.724C475.004 446.391 476.937 447.525 475.87 445.591C474.98 443.982 474.001 442.424 472.937 440.924C469.192 434.533 464.98 428.427 460.337 422.655C454.47 415.988 449.27 409.321 443.67 402.654C433.87 391.052 424.536 378.718 413.736 368.117C408.07 362.516 402.67 356.716 396.603 351.515C389.868 346.842 383.964 341.073 379.136 334.447C378.203 332.847 377.403 329.847 376.536 328.513C374.803 326.113 372.069 323.713 369.869 321.312C364.803 314.645 359.469 308.711 354.603 302.044C349.943 295.696 344.794 289.721 339.203 284.175C336.536 281.442 333.936 278.575 331.269 275.841C328.602 273.108 323.669 270.308 322.669 267.174C327.74 269.446 332.474 272.408 336.736 275.975L344.469 281.309C345.802 282.309 351.669 285.176 352.003 286.909C352.336 288.643 343.202 284.776 349.869 290.443C353.269 293.31 358.736 299.977 355.936 291.243C357.003 291.91 358.269 293.443 359.403 293.976C360.536 294.51 362.269 293.976 364.603 295.51C369.269 298.577 373.669 302.177 377.936 305.311C382.203 308.445 387.536 312.912 392.403 316.645C394.469 318.312 401.736 323.313 402.136 326.246C400.07 325.846 397.536 323.179 395.47 321.979C393.403 320.779 392.936 321.979 391.136 320.846C389.336 319.712 387.336 320.379 386.203 318.712C385.069 317.045 382.27 315.845 381.936 318.712C378.936 317.245 378.069 313.378 374.136 313.645C374.669 316.379 377.736 317.579 378.269 320.312C374.736 317.912 372.469 313.645 368.803 311.778C365.136 309.911 362.136 310.711 365.869 314.312C367.603 315.912 369.136 317.712 370.736 319.379C372.336 321.046 374.269 324.513 375.469 324.913C379.736 326.246 374.803 320.312 374.803 319.379C377.269 321.046 379.003 323.779 381.469 325.313C383.936 326.846 382.203 322.312 382.136 321.912C384.87 322.446 386.936 328.113 389.669 327.98C391.069 327.98 391.336 325.646 392.67 325.579C394.003 325.513 395.47 328.446 397.07 327.313C398.67 326.179 403.736 331.513 406.536 331.913C407.67 331.913 408.07 330.713 409.136 331.447C411.593 333.297 413.83 335.422 415.803 337.781C423.27 345.181 430.47 352.715 437.737 360.183C440.956 363.492 444.004 366.964 446.87 370.584C449.27 373.451 452.403 379.518 456.403 380.185C454.755 377.236 452.689 374.542 450.27 372.184C447.803 369.117 445.403 365.983 442.803 363.05C436.803 356.382 430.736 349.715 424.47 343.448C423.07 341.981 410.803 330.113 417.803 333.114C420.003 333.98 421.803 332.247 423.27 333.114C424.736 333.98 433.07 337.447 434.27 336.714C435.47 335.98 433.403 334.78 433.27 334.447C435.215 334.492 437.144 334.806 439.003 335.38C440.87 335.78 440.403 334.38 441.67 333.914C444.47 332.847 449.003 334.914 452.003 333.314C453.537 332.514 456.003 330.247 457.87 331.78C460.87 334.18 464.937 335.98 468.27 338.447C475.508 344.684 481.639 352.101 486.404 360.383C489.604 364.917 492.737 369.45 496.137 373.717C499.537 377.985 502.204 382.852 506.47 384.518C504.626 381.558 502.383 378.866 499.804 376.518C496.937 372.917 494.137 369.25 491.47 365.517C488.804 361.783 486.804 358.849 484.804 355.716C482.804 352.582 478.137 348.448 478.137 345.515C481.137 345.981 484.803 349.582 487.203 351.182C489.604 352.782 495.337 356.449 497.67 355.249C496.604 353.382 490.204 351.582 488.137 350.248C483.886 347.755 479.769 345.04 475.803 342.114C472.461 338.966 469.507 335.429 467.003 331.58C465.658 330.283 464.869 328.514 464.803 326.646C464.803 325.646 467.737 325.446 468.203 324.379C469.87 320.512 463.937 319.512 464.67 315.912C465.27 313.312 466.403 313.112 463.07 310.978C462.003 310.311 460.803 309.978 461.337 308.378C461.87 306.778 457.47 304.844 456.937 304.377C456.403 303.911 457.337 303.244 456.937 302.511C456.537 301.777 455.07 300.777 454.603 299.51C454.403 298.325 453.85 297.227 453.018 296.359C452.186 295.491 451.113 294.894 449.937 294.643C446.603 293.443 447.937 291.31 444.737 289.376C443.87 288.909 441.403 288.043 440.87 287.109C440.337 286.176 442.537 285.109 439.203 283.175C437.582 282.295 435.887 281.558 434.137 280.975C432.203 280.175 433.737 279.575 432.27 278.508C429.603 276.508 424.003 275.308 422.07 272.908C421.268 271.626 420.218 270.517 418.982 269.646C417.745 268.776 416.347 268.162 414.87 267.841C410.536 266.64 412.803 265.574 409.736 263.107C406.67 260.64 400.87 260.507 397.67 257.706C396.336 256.44 395.803 254.773 394.203 253.573C392.603 252.372 390.736 252.639 389.669 251.572C388.603 250.506 389.67 250.039 388.936 249.439C387.509 248.109 385.764 247.168 383.869 246.705C379.003 245.238 374.869 242.772 370.203 241.438C366.934 240.159 363.596 239.069 360.203 238.171C357.736 237.704 355.469 238.171 356.736 235.571C357.136 234.837 356.736 233.371 358.136 233.904C359.536 234.437 359.403 232.637 360.469 232.104C363.069 230.837 372.803 237.971 375.069 239.305C383.269 244.038 391.736 248.772 399.47 254.173C407.203 259.573 415.536 263.107 423.136 268.241C430.737 273.374 439.803 279.975 448.137 285.909C455.878 292.139 463.933 297.969 472.27 303.377L472.803 303.377C465.572 296.979 458.006 290.97 450.137 285.376C442.27 279.442 434.87 273.041 426.937 267.174C419.003 261.307 411.536 255.306 403.536 249.839C400.87 248.039 381.003 236.904 381.603 234.371C381.603 233.504 384.936 236.104 384.069 232.371C384.669 232.371 386.803 234.571 387.403 233.704C389.203 231.304 388.803 231.37 391.803 233.704C394.803 236.038 395.87 238.304 398.47 240.371C401.07 242.438 399.67 238.438 402.07 240.371C403.403 241.571 406.403 241.505 407.136 242.372C409.276 244.142 411.684 245.56 414.27 246.572C415.007 246.807 415.799 246.807 416.536 246.572C418.136 246.572 418.87 248.305 420.336 248.705C422.936 249.372 422.203 246.705 425.136 248.705C428.07 250.706 428.403 249.372 430.803 249.506L433.203 250.372C434.403 250.372 434.203 248.572 435.603 249.172C438.537 250.306 438.603 249.639 441.47 249.172C445.737 248.839 447.07 250.172 450.07 253.106C454.991 257.111 459.687 261.385 464.137 265.907C466.539 268.231 469.15 270.329 471.937 272.174C473.97 274.346 476.449 276.052 479.204 277.175C478.737 274.508 472.537 270.841 470.537 269.107C468.537 267.374 462.737 263.84 461.337 260.84C461.337 260.84 466.07 261.973 464.403 260.373C462.737 258.773 459.203 257.04 457.003 255.173C454.803 253.306 441.47 244.705 450.737 245.505C456.788 246.305 462.409 249.068 466.737 253.373C473.403 259.106 480.07 265.04 486.737 270.641C499.181 280.798 512.576 289.729 526.737 297.31C533.404 300.71 539.671 303.977 546.337 307.178L557.537 312.112C560.204 313.312 566.471 317.245 569.271 316.112C568.471 314.712 565.604 314.178 564.204 313.445C566.938 310.378 577.538 320.112 581.804 318.712C586.071 317.312 577.604 314.845 576.871 314.578C572.671 313.178 568.471 311.911 564.271 310.645C563.071 310.245 563.737 309.311 562.804 308.778C561.281 308.098 559.723 307.497 558.137 306.978C553.471 304.978 548.737 302.977 544.137 300.844C535.601 296.833 527.279 292.382 519.204 287.509C503.606 278.664 489.01 268.157 475.67 256.173C472.304 253.307 469.303 250.038 466.737 246.439C465.537 244.638 473.003 247.972 472.47 247.905C476.402 247.621 480.305 248.757 483.47 251.106C485.404 252.506 490.137 257.373 492.737 256.706C491.07 253.306 484.737 250.839 481.937 248.172C485.87 245.505 491.07 246.705 495.27 243.905C497.137 242.572 499.87 242.372 501.604 240.905C504.337 238.638 504.87 235.904 508.604 234.237C510.47 233.571 512.67 233.437 513.204 231.104C513.684 230.646 514.197 230.223 514.737 229.837C515.27 228.103 513.87 226.903 516.004 225.77C518.137 224.636 518.27 216.702 516.004 215.502C513.72 214.699 511.74 213.208 510.337 211.235C508.937 208.568 503.67 209.568 501.137 209.835C498.604 210.102 499.87 207.368 498.137 206.968C497.163 206.831 496.17 206.97 495.27 207.368C493.337 208.035 494.204 206.101 492.87 205.901C491.537 205.701 489.403 207.835 488.403 205.368C487.937 204.101 483.47 205.835 482.537 206.035C479.737 203.034 471.87 209.035 468.337 208.435C472.07 206.035 472.203 206.435 472.803 202.101C473.137 199.901 476.403 199.501 476.403 197.234C476.403 192.233 463.737 189.433 460.337 188.833C452.596 186.992 444.689 185.942 436.736 185.699C436.331 185.738 435.922 185.672 435.549 185.509C435.176 185.346 434.85 185.09 434.603 184.766C432.668 184.657 430.728 184.883 428.87 185.433C427.603 185.433 427.803 184.433 427.337 183.633C426.87 182.833 424.003 183.633 423.603 183.633C418.452 183.862 413.294 183.391 408.27 182.232C406.736 182.232 393.603 182.899 393.536 182.232C393.003 178.699 390.803 182.766 389.869 181.099C388.936 179.432 387.069 180.766 385.536 180.632C384.003 180.499 382.536 178.699 381.203 177.765C374.003 172.832 367.003 167.364 359.603 162.697C331.202 144.829 298.136 144.296 266.669 136.028C250.269 131.561 233.868 127.294 217.468 122.693C208.831 120.429 200.365 117.555 192.135 114.093C188.601 112.492 185.135 110.692 181.735 108.825C179.935 107.892 173.001 105.558 172.601 103.158C183.868 104.625 195.001 110.359 205.935 113.092C218.402 116.226 230.668 119.293 243.268 121.76C267.469 126.36 291.002 134.028 315.536 136.495C340.069 138.962 363.669 137.095 387.603 139.295C400.47 140.495 413.67 148.696 424.936 154.63C429.736 157.097 434.537 159.63 439.203 162.297C442.603 164.231 449.403 170.031 453.403 169.698C452.337 166.431 444.603 163.764 441.736 162.097L424.536 152.296C419.346 149.844 414.392 146.92 409.736 143.562C406.203 140.428 400.203 139.895 397.136 136.495C401.203 133.228 410.936 133.894 415.936 133.228C423.766 132.938 431.559 134.42 438.737 137.562C445.737 139.695 452.67 141.495 459.803 143.095C463.68 143.959 467.507 145.027 471.27 146.296C473.337 147.029 477.937 149.429 479.87 148.696C478.937 146.362 472.537 145.229 470.27 144.562C465.804 143.229 461.337 142.162 456.937 140.895L442.537 136.761C437.667 136.072 432.966 134.489 428.67 132.094C431.936 129.361 441.137 130.628 445.203 130.494C451.044 130.194 456.896 130.194 462.737 130.494C469.07 130.961 475.403 131.428 481.737 132.361C483.137 132.361 497.337 134.761 497.27 134.495C492.349 132.531 487.23 131.1 482.003 130.227C475.539 128.83 468.95 128.093 462.337 128.027C455.203 128.027 447.937 127.427 440.803 128.027C433.67 128.627 427.003 128.027 420.403 128.627C413.803 129.227 405.936 123.627 400.403 121.493C393.736 118.96 387.403 115.826 381.003 112.759C374.603 109.692 368.669 106.625 362.603 103.492C358.869 101.558 355.269 99.4912 351.736 97.3577C348.951 96.0797 346.386 94.3695 344.136 92.2904C348.597 90.6945 353.345 90.0584 358.069 90.4236C363.468 90.3118 368.866 90.6688 374.203 91.4904C384.603 92.7572 395.336 92.4905 405.803 92.9572C415.711 93.9142 425.495 95.8802 435.003 98.8245C440.603 100.158 446.27 101.358 451.87 102.425C455.27 103.025 458.537 103.625 461.937 104.425C464.004 104.892 468.27 106.825 470.203 105.958C466.737 102.491 457.603 102.225 453.003 101.225C447.651 99.2797 442.073 98.0249 436.403 97.4909C434.87 95.9575 431.27 95.5575 429.336 94.8241C425.468 93.4407 421.501 92.3487 417.47 91.557C410.453 89.8802 403.355 88.5672 396.203 87.6234C382.269 86.1566 368.069 86.4232 354.003 85.9565C346.932 86.1833 339.855 85.7369 332.869 84.6231C331.069 84.223 317.669 79.5559 318.269 77.289C318.869 75.0221 331.602 73.822 333.402 73.3553C340.069 71.7552 346.736 69.955 353.402 68.4882C366.336 65.688 379.403 64.6212 392.536 62.821C405.04 61.3664 417.615 60.6096 430.203 60.5541C436.87 60.5541 443.537 60.5541 450.203 60.5541C453.337 60.5541 467.47 63.8878 469.47 61.6876C462.803 58.1539 451.603 59.154 443.937 58.6207C433.937 58.0206 423.336 58.1539 413.27 58.6206C393.204 59.0333 373.175 60.5245 353.269 63.0877C343.336 64.3545 333.802 67.4881 324.069 69.4216C319.469 70.3551 314.802 71.0218 310.136 71.6885C305.469 72.3552 300.202 67.6214 296.802 65.4212C279.371 55.9301 259.701 51.3231 239.868 52.0866C220.602 52.0866 201.601 54.0868 182.401 55.4202C172.535 56.1537 162.734 56.3537 152.801 56.487C149.201 56.487 145.668 57.2871 142.134 57.5538C138.601 57.8205 130.601 55.5536 137.001 53.0867C145.934 49.7531 155.601 49.0197 164.668 46.4194C173.735 43.8192 181.668 40.3521 190.201 37.6186C207.868 31.9513 225.002 24.8174 243.068 20.1503C253.868 17.4167 264.735 15.0831 275.335 12.0828C285.935 9.08254 296.669 8.61579 307.069 6.68227C312.202 5.74885 317.402 6.08224 322.536 5.14882C328.292 4.0043 334.136 3.3574 340.003 3.2153C346.669 3.2153 353.336 2.54854 360.003 2.34852C364.269 2.34852 373.87 3.74868 377.336 1.28178C373.805 0.139919 370.038 -0.066853 366.403 0.681693C362.469 0.681693 359.003 -0.118374 355.069 0.0149718C345.536 0.014971 336.069 0.615046 326.536 0.815064C317.002 1.01508 308.869 0.815059 299.869 1.74848C289.335 2.81525 278.869 4.74876 268.402 6.48226C248.75 9.70767 229.489 14.9813 210.935 22.2171C202.201 25.6174 193.201 28.1509 184.268 31.7513C175.335 35.3516 166.334 37.5519 157.601 41.1522C149.463 43.9314 140.986 45.5913 132.401 46.0861C128.163 46.7862 123.839 46.7862 119.601 46.0861C118.334 46.0861 116.401 46.8861 115.468 46.5527C114.534 46.2193 112.734 41.4856 112.401 40.2855C111.401 37.0852 107.801 35.485 106.134 32.6181C104.467 29.7511 103.067 27.6843 99.0673 28.351C95.0673 29.0177 91.3341 25.8841 88.1341 24.0839C84.934 22.2838 83.8007 18.8168 80.6674 19.6168C72.2673 21.8171 74.6005 28.0844 78.4672 33.6182C80.3339 36.2185 73.6006 37.7519 74.2006 41.5522C74.2006 42.8857 75.4673 44.1525 75.2006 45.6193C74.9339 47.0861 73.5339 48.953 74.5339 51.0199C76.0672 54.0869 80.2673 54.8202 82.8673 56.6204C86.534 59.2207 82.8674 63.2877 80.8674 65.7546C75.4579 73.2583 69.6261 80.4484 63.4004 87.2899C55.2595 96.0351 48.3307 105.835 42.8003 116.426C40.3526 121.429 38.2585 126.598 36.5335 131.894C33.8287 138.036 30.6642 143.964 27.0669 149.629C15.1565 172.806 6.882 197.677 2.53343 223.37C1.53343 228.703 1.1334 234.037 0.666727 239.438C1.04991 245.978 0.826699 252.54 3.83892e-05 259.04C3.83251e-05 259.773 1.33329 261.373 1.60001 260.64C2.44639 258.24 2.89677 255.717 2.93339 253.173C3.48734 245.745 4.98832 238.418 7.4 231.37C11.3334 218.036 14.4667 204.701 18 191.367C19.6195 185.052 21.8523 178.911 24.6668 173.031C26.1335 169.898 27.6002 166.764 29.1336 163.631C30.6669 160.497 31.267 156.963 33.5336 155.697C33.6869 160.439 33.1479 165.178 31.9337 169.765C31.067 176.432 30.2002 183.099 29.4668 189.766C28.4291 203.208 26.5365 216.57 23.8003 229.77C23.1336 232.571 19.0668 240.238 20.2002 243.105C21.3335 245.972 25.2669 234.171 25.6669 233.037C29.9986 220.939 33.3865 208.522 35.8003 195.9C37.6003 184.499 38.4003 172.898 40.4003 161.564C42.4003 150.229 42.7336 137.828 49.067 128.561C55.4004 119.293 62.7339 109.225 69.6006 99.6245C73.4006 94.3573 77.4005 89.4235 81.1339 84.1563C83.5339 80.6226 86.0007 72.2886 89.6007 70.155C89.2933 72.4538 88.6649 74.6981 87.7341 76.8223C85.734 80.9561 84.0674 85.2231 82.134 89.4235C77.6673 99.0245 72.734 108.292 68.8006 118.16C61.5728 135.765 55.5151 153.828 50.6671 172.231C45.2668 190.65 42.6819 209.779 43.0002 228.97C44.1336 247.305 46.0003 265.374 48.9337 283.509C50.4671 292.976 52.1338 302.444 53.1338 311.978C53.3857 316.492 52.2704 320.976 49.9337 324.846C47.867 330.38 45.467 335.78 43.2669 341.248C36.2489 357.774 31.2138 375.074 28.2668 392.786C25.0236 412.02 22.9753 431.437 22.1336 450.925C22.1336 452.458 24.2669 452.858 24.4002 450.925C24.5336 448.991 24.7334 445.791 24.8667 443.191C24.8667 438.39 24.8668 433.59 25.3335 428.789C26.5304 418.196 28.266 407.67 30.5335 397.253C33.6404 385.973 37.6995 374.977 42.667 364.383C44.7337 359.116 46.6004 353.849 48.7337 348.582C50.0585 343.042 52.3127 337.767 55.4004 332.98C58.2671 339.647 56.6003 351.649 56.3336 358.849C56.0714 367.245 55.1352 375.606 53.5337 383.852C51.7337 392.853 50.2003 401.853 48.467 410.854C47.5337 415.521 47.1336 420.255 46.6003 424.989C46.267 428.323 44.2671 432.856 45.2671 436.19C47.8004 432.923 47.2004 423.455 47.7337 419.322C48.6671 412.988 50.067 406.654 51.4671 400.453C52.8671 394.253 54.7338 387.852 55.8672 381.451C57.0005 375.051 57.067 368.117 58.4671 361.45C58.4671 362.65 58.4671 364.45 59.3338 365.25C60.4346 359.838 60.4346 354.26 59.3338 348.848C58.8001 341.836 58.8001 334.792 59.3338 327.78C59.265 323.864 60.5089 320.038 62.8671 316.912C64.1338 314.645 73.7339 296.31 75.4006 296.51C77.0673 296.71 77.8673 311.711 79.6007 313.778C80.0424 308.914 79.475 304.011 77.934 299.377C77.0678 293.906 77.8087 288.3 80.0671 283.242C82.0756 277.576 83.3963 271.688 84.0007 265.707C83.9756 259.584 84.4885 253.471 85.5339 247.439C88.0006 250.439 87.6672 258.906 88.0006 262.64C88.6672 269.707 89.934 276.841 90.8007 283.909C92.4674 297.91 93.8673 311.845 94.334 325.979C95.334 354.449 91.8674 382.585 96.2674 410.988C97.2674 417.255 98.3339 423.589 99.6673 429.789C99.6673 430.99 100.334 436.457 102.267 436.457C104.201 436.457 103.001 431.59 102.867 431.123C100.086 418.168 98.325 405.016 97.6006 391.786C97.0673 385.118 98.6673 319.312 99.0673 319.312L98.7341 319.446ZM307.002 398.92L307.002 399.72C304.545 396.795 302.729 393.389 301.669 389.719C301.069 388.052 299.202 384.052 298.136 387.852C296.136 385.652 296.069 381.185 295.202 378.185C293.935 374.184 292.869 380.718 292.936 380.651C291.336 379.251 290.669 374.984 290.069 372.984C289.469 370.984 287.269 370.65 286.602 368.384C285.935 366.117 284.869 364.05 282.735 364.183C280.602 364.316 282.735 367.05 282.269 367.917C275.602 358.516 269.402 348.648 262.602 339.247L253.002 325.913C251.911 322.998 251.107 319.983 250.602 316.912C249.602 313.845 245.935 309.511 245.869 306.578C245.869 302.511 244.535 299.044 244.335 294.977C244.335 293.91 242.268 289.443 241.135 289.709C240.002 289.976 244.002 278.442 239.535 281.909C239.535 280.775 241.002 275.908 238.868 275.708C237.802 275.708 236.668 280.508 236.402 281.309C235.002 278.842 237.802 273.374 237.935 270.708C238.402 264.04 234.602 273.574 234.602 273.574C233.935 272.041 235.868 266.907 236.202 265.374C236.868 261.773 235.068 261.44 235.668 257.973C235.735 255.477 235.601 252.98 235.268 250.506C235.268 247.639 231.868 254.906 231.668 255.639C232.341 250.572 233.874 245.656 236.202 241.105C237.802 241.105 244.802 249.105 246.269 250.439L257.669 261.04C265.41 268.443 273.799 275.137 282.735 281.042C291.136 286.442 299.335 292.11 307.602 297.71C308.602 298.377 308.136 299.31 308.802 300.11C310.419 301.51 312.16 302.759 314.002 303.844C315.269 304.911 315.802 307.044 316.869 308.378C317.936 309.711 320.536 311.378 320.602 313.245C319.336 313.245 318.069 311.778 316.736 312.645C315.402 313.512 318.402 315.512 318.736 316.245C319.802 318.512 319.402 319.246 321.536 321.246C323.669 323.246 327.536 325.58 326.002 327.913C324.469 330.247 332.669 334.047 329.336 335.314C326.002 336.581 334.602 342.381 334.802 344.915C333.736 344.915 328.869 340.114 328.869 343.381C328.869 346.648 337.536 349.182 336.336 351.982C335.136 354.782 333.136 352.315 335.602 355.382C336.817 357.312 337.908 359.316 338.869 361.383C340.069 363.45 343.203 365.183 343.536 367.717C343.529 370.141 344.352 372.494 345.869 374.384C347.869 377.184 347.403 376.518 346.269 379.251C345.669 380.718 349.669 384.918 350.469 385.919C351.269 386.919 350.469 389.186 351.936 390.919C353.618 393.761 355.132 396.7 356.469 399.72C358.2 403.59 359.583 407.606 360.603 411.721L358.603 412.254C358.003 413.188 359.736 416.455 360.069 417.322C361.269 420.589 360.069 421.255 360.069 423.989C360.069 426.722 360.069 437.324 356.669 436.057C353.269 434.79 352.403 429.856 350.003 429.389C347.603 428.923 350.003 433.39 350.003 434.19C348.003 432.99 347.002 428.789 344.469 428.456C341.936 428.123 344.869 433.056 344.936 433.99C341.936 432.923 339.402 428.189 337.469 425.656C334.469 421.789 334.869 426.256 335.802 428.456C333.89 425.961 332.195 423.306 330.736 420.522C329.136 417.788 328.402 418.922 327.136 420.522C325.627 418.185 323.956 415.958 322.136 413.855C320.936 413.321 320.336 414.255 319.736 413.054C319.136 411.854 317.469 406.387 314.736 407.187C314.069 407.254 307.602 393.119 307.002 398.92ZM272.535 215.236C275.935 214.369 271.135 212.702 272.535 211.969C274.095 211.178 275.82 210.766 277.569 210.766C279.318 210.766 281.042 211.178 282.602 211.969C290.344 216.35 297.724 221.344 304.669 226.903C311.336 232.504 318.002 237.771 324.002 243.705C327.469 246.905 330.669 250.372 334.136 253.639C336.402 255.973 339.403 260.64 342.536 261.573C342.136 260.106 340.803 259.44 340.269 257.973C342.736 258.373 344.269 261.64 346.936 261.64C345.536 258.773 341.136 257.973 339.336 255.506C335.904 251.44 332.135 247.671 328.069 244.238L316.002 232.237C312.326 229.149 308.914 225.759 305.802 222.103C309.336 222.103 315.002 226.237 318.202 227.77C322.669 229.97 327.669 231.504 332.002 233.971C333.269 234.704 332.002 235.771 332.469 236.838C332.936 237.904 336.136 238.704 337.402 239.171C337.402 239.171 339.869 240.571 340.336 239.705C340.802 238.838 345.403 241.038 346.469 241.571C355.345 245.203 363.6 250.197 370.936 256.373C376.536 261.84 382.069 267.174 387.603 272.708C402.01 287.205 417.622 300.454 434.27 312.312C438.336 315.178 442.137 318.379 446.203 321.246C447.003 321.846 456.803 327.913 454.27 328.313C451.891 328.839 449.553 329.53 447.27 330.38C445.203 330.847 444.27 331.713 442.07 330.38C440.206 329.333 438.017 329.024 435.936 329.513C436.403 331.047 436.67 330.713 437.337 331.78C432.203 333.247 424.936 325.646 421.603 322.646C419.536 320.846 404.136 309.711 404.536 307.844C404.936 305.978 407.603 307.511 405.803 305.111C404.003 302.711 401.87 298.444 399.136 297.977C398.736 300.51 401.203 302.244 401.736 304.644C397.403 305.044 390.803 297.977 387.403 295.377C381.403 290.976 375.336 286.709 369.203 282.509C357.536 274.508 346.003 266.574 333.736 259.573C321.469 252.573 308.469 246.239 295.669 239.571C289.891 236.799 284.321 233.613 279.002 230.037C276.499 228.211 274.095 226.253 271.802 224.17C269.535 222.17 265.135 220.036 263.735 217.502C265.072 216.98 266.312 216.236 267.402 215.302C269.335 214.502 270.535 215.502 272.535 214.969L272.535 215.236ZM114.534 331.447C115.267 319.112 116.667 306.778 116.601 294.443C116.601 288.109 116.601 281.842 116.601 275.575C116.116 270.39 116.34 265.164 117.268 260.04C118.931 263.299 119.928 266.858 120.201 270.508C121.201 274.975 122.134 279.508 123.534 283.842C126.134 291.976 129.334 299.977 132.734 307.844C136.134 315.712 139.734 323.113 143.668 330.38C148.348 337.1 151.239 344.902 152.068 353.049C151.601 370.317 150.468 387.652 149.934 404.92C149.934 413.988 149.468 422.989 149.534 432.056C149.534 435.523 149.534 438.724 149.534 442.457C150.101 446.683 150.101 450.966 149.534 455.192C147.259 451.25 145.617 446.975 144.668 442.524C142.601 436.99 140.534 431.39 138.601 425.789C134.734 414.921 131.334 403.92 127.868 392.919C124.401 381.918 120.801 372.317 117.468 361.916C114.289 352.001 113.289 341.517 114.534 331.18L114.534 331.447ZM387.136 128.694C383.613 129.372 379.966 128.977 376.669 127.561C371.137 125.4 365.426 123.727 359.603 122.56C348.536 120.227 336.869 117.96 325.736 116.693C314.602 115.426 303.469 111.492 292.402 109.159C281.335 106.825 268.869 105.092 257.135 103.025C232.618 99.2076 208.402 93.66 184.668 86.4233C173.801 82.8229 163.335 79.0892 152.268 76.3556C149.495 75.6682 146.776 74.7768 144.134 73.6887C142.534 73.0886 143.334 70.9551 141.534 70.155C138.534 68.8882 133.334 69.0883 132.001 65.1546C135.734 64.4211 143.934 69.2882 147.601 70.6217C152.601 72.4219 158.401 73.022 163.535 74.3555C176.068 77.6891 188.401 82.2228 201.068 84.4897C213.735 86.7566 223.802 90.757 235.668 92.2904C248.803 93.6361 261.999 94.2816 275.202 94.224C287.669 94.6241 300.402 93.0239 312.802 92.4238C317.936 92.4238 323.069 92.4238 328.202 92.0238C333.439 91.7776 338.645 92.9525 343.269 95.4241C349.003 98.091 354.803 100.825 360.269 104.025C363.136 105.692 365.869 107.492 368.803 109.025C371.736 110.559 372.669 109.825 374.869 110.826C381.136 113.826 387.403 116.893 393.736 119.826C397.003 121.293 400.403 122.36 403.603 123.627C407.119 124.419 410.462 125.842 413.47 127.827C410.05 128.523 406.55 128.747 403.07 128.494L387.136 128.494L387.136 128.694ZM118.068 83.4229C117.068 85.1564 119.001 94.3573 118.068 94.6907C116.201 95.3574 112.067 86.2899 111.734 84.9565C110.667 80.9561 111.201 73.422 107.867 70.8884C104.734 75.3555 107.401 83.823 107.867 88.8235C109.547 94.2327 110.047 99.9394 109.334 105.558C107.596 101.478 106.192 97.2641 105.134 92.9572C103.267 88.4901 101.534 90.8236 98.4674 92.2904C97.2007 89.0234 99.7341 81.9562 100.134 78.2891C100.703 73.1535 101.571 68.0554 102.734 63.021C103.534 59.3539 102.268 57.4871 98.6008 56.7537C94.9341 56.0203 98.6006 53.8867 98.2006 51.5532C95.734 52.5533 93.2674 58.8873 92.2674 61.2875C90.3117 65.6882 88.0852 69.9635 85.6007 74.0887C80.9809 81.4016 75.9968 88.4779 70.6673 95.2908C60.0288 108.097 50.61 121.869 42.5337 136.428C34.4003 153.363 23.6002 168.898 18.3335 187.166C15.6669 196.634 12.4667 206.301 10.7334 216.036C9.82365 220.535 8.68901 224.985 7.33348 229.37C6.60014 232.171 5.66673 242.705 3.33341 244.038C3.49272 232.472 5.03703 220.967 7.93345 209.768C10.6283 195.868 14.6235 182.251 19.8667 169.098C22.2001 163.231 25.2002 157.63 28.0669 152.03L32.3337 143.829L34.4668 139.762C35.3335 138.095 36.2003 139.028 37.267 138.028C38.3337 137.028 38.9336 133.161 40.1336 131.361C42.0669 128.694 43.8669 125.827 45.7336 123.093C49.6003 117.426 53.3338 111.559 57.7338 106.292C62.1338 101.025 66.0672 96.2241 70.4006 91.357C74.8342 87.0248 78.7494 82.192 82.0673 76.9557C85.125 72.3402 87.6098 67.3699 89.4673 62.1543C89.9339 60.3541 91.3339 57.2872 89.4673 55.487C89.0597 54.6253 88.5446 53.8187 87.934 53.0867C87.1341 53.0867 86.6673 53.9535 85.7339 53.4868C83.2669 52.6119 81.0001 51.2516 79.0672 49.4863C77.5339 47.5528 79.6672 46.8195 80.0672 45.1526C80.4672 43.4858 77.8006 41.5522 78.534 39.4854C79.2673 37.4185 82.9339 36.8851 83.2005 32.8181C83.4672 28.751 75.1338 26.1508 79.6672 21.9504C84.2006 17.75 82.6672 28.6177 86.3339 28.151C86.3339 28.151 84.2007 23.2172 85.8674 24.2173C89.761 26.3638 93.7667 28.3 97.8674 30.0178C101.001 31.4846 103.201 28.2843 105.201 32.2847C107.201 36.2851 110.401 37.952 112.534 41.619C113.734 43.7525 113.668 46.3528 114.734 48.2863C116.668 51.4866 118.201 54.2868 119.867 57.6205C121.534 60.9541 122.601 63.6877 125.734 63.3543C128.868 63.021 127.601 68.2215 130.268 67.7548C132.934 67.2881 130.268 70.5551 130.268 71.8219C131.008 74.4834 132.179 77.0058 133.734 79.2892C135.668 82.4228 136.934 85.9565 138.868 89.2902C140.801 92.6238 136.468 90.2236 137.068 93.0238C137.847 95.0762 138.877 97.0246 140.134 98.8245C141.693 101.31 142.946 103.973 143.868 106.758C144.934 109.225 145.601 115.293 148.201 116.493C150.801 117.693 148.201 110.959 149.734 110.426C151.268 109.892 157.668 118.293 158.735 119.426C161.401 122.227 168.601 126.894 169.668 130.427C165.201 130.427 163.001 124.16 159.401 122.827C160.001 122.827 157.001 121.56 156.801 122.493C156.334 124.427 153.801 122.493 152.468 122.493C151.134 122.493 154.134 133.228 154.468 134.694C154.801 136.161 154.468 139.428 154.868 141.362C155.268 143.295 157.535 140.828 158.135 141.029C160.468 141.629 164.801 156.563 165.601 159.163C168.452 164.453 170.497 170.138 171.668 176.032C168.601 173.898 166.535 166.698 165.001 163.364C162.401 158.43 159.934 153.563 157.468 148.629C155.009 143.804 153.215 138.668 152.135 133.361C151.886 131.459 151.462 129.584 150.868 127.761C150.001 125.894 148.534 129.427 148.268 129.294C146.668 128.427 145.801 124.16 145.134 122.627C143.801 119.16 142.401 115.959 141.001 112.359C139.601 108.759 137.868 105.692 136.134 102.358C135.321 99.5333 134.364 96.7516 133.268 94.024C132.774 93.8302 132.259 93.6959 131.734 93.624C130.601 92.8906 129.934 90.4236 129.468 89.2902C128.068 85.8898 125.734 84.6897 123.134 82.6229C122.068 81.6894 121.334 78.0224 119.267 79.6892C117.201 81.3561 118.801 82.0228 118.068 83.1563L118.068 83.4229ZM362.669 399.92C361.336 397.653 359.136 389.919 356.003 389.186C354.536 388.785 354.669 385.719 354.003 384.585C352.545 382.849 351.375 380.89 350.536 378.785C349.136 373.984 346.336 370.05 344.669 365.45C343.295 360.928 341.298 356.62 338.736 352.649C338.069 351.649 336.069 349.915 337.536 348.715C339.003 347.515 336.269 344.581 335.869 343.048C334.95 338.64 333.33 334.408 331.069 330.513C329.536 328.313 327.869 326.18 326.269 323.846C324.669 321.512 324.869 319.379 323.069 317.512C321.269 315.645 324.269 315.112 323.069 313.578C321.869 312.045 319.802 308.311 320.669 307.511C321.536 306.711 352.469 328.513 355.469 330.513C361.703 333.84 367.3 338.241 372.003 343.515C373.003 345.115 372.936 346.981 374.069 348.782C375.203 350.582 378.869 354.849 378.869 357.183C377.736 357.183 377.136 356.049 375.869 355.849C375.403 360.583 384.469 366.25 383.269 370.517L381.536 371.717C381.536 372.851 383.936 375.851 384.403 376.851C386.255 379.765 387.734 382.901 388.803 386.185C387.136 386.185 384.803 384.852 386.27 387.719C388.57 391.326 390.112 395.364 390.803 399.587C389.27 399.587 387.469 398.72 388.269 401.187C389.972 404.588 391.141 408.231 391.736 411.988C384.403 410.788 393.07 416.188 390.67 419.855C390.573 420.036 390.429 420.188 390.253 420.294C390.076 420.399 389.875 420.455 389.669 420.455C389.464 420.455 389.262 420.399 389.086 420.294C388.91 420.188 388.766 420.036 388.669 419.855C387.069 418.322 387.003 420.522 385.67 420.189C384.336 419.855 384.269 418.255 383.669 417.655C383.069 417.055 381.536 417.055 380.403 416.322C378.331 415.15 376.387 413.764 374.603 412.188C373.603 410.121 372.069 405.52 369.469 404.854C368.003 404.52 361.669 391.519 362.336 399.587C362.669 399.387 362.669 399.387 362.669 399.92ZM52.1338 221.836C54.1927 202.718 57.9407 183.821 63.3338 165.364C66.4006 155.23 69.2672 145.362 72.8672 135.228C76.0286 125.511 79.952 116.058 84.6007 106.959C84.4535 110.33 83.6376 113.639 82.2006 116.693C80.6005 121.493 79.0007 126.36 77.734 131.294C75.4673 140.562 73.4005 149.963 71.6005 159.43C67.7174 177.226 65.0887 195.272 63.7338 213.435C63.0827 230.766 64.6509 248.108 68.4004 265.04C69.8004 271.708 73.9339 281.375 71.8672 288.042C70.5113 292.016 68.3557 295.669 65.5338 298.777C62.7337 301.91 61.867 306.578 58.867 309.645C57.2395 302.878 56.4557 295.935 56.5337 288.976C55.5337 281.709 54.7337 274.308 53.9338 267.041C51.6551 252.087 51.0291 236.927 52.0671 221.836C53.0004 216.569 52.067 224.303 52.4003 221.836L52.1338 221.836ZM364.269 179.632C349.269 174.232 333.669 170.498 318.269 166.298C310.669 164.364 302.936 162.564 295.469 160.097C288.248 158.481 281.126 156.456 274.135 154.03C260.202 147.362 245.202 142.695 231.002 136.628C224.335 133.694 217.135 131.294 210.402 127.961C206.935 126.227 203.735 124.36 200.135 122.56C198.268 121.627 192.135 119.16 191.401 117.026C221.112 127.821 251.629 136.248 282.669 142.229C298.59 145.81 314.196 150.671 329.336 156.763C336.91 159.618 344.263 163.028 351.336 166.964C358.003 170.765 367.803 174.565 372.469 180.766C369.936 182.166 367.269 180.632 364.536 179.632L364.269 179.632ZM205.802 61.8875C220.602 61.8875 235.202 59.0206 250.002 59.2873C257.834 59.2398 265.623 60.4555 273.069 62.8877C276.869 64.2878 280.402 66.288 284.135 67.8882C286.135 68.7549 293.869 70.6884 294.469 73.0887C294.469 73.6221 266.402 78.6225 263.735 79.0226C253.004 80.311 242.166 80.4674 231.402 79.4892C219.602 78.4891 207.802 75.2222 196.068 73.3553C189.608 72.3487 183.265 70.6957 177.135 68.4215C171.893 67.3354 166.744 65.8419 161.734 63.9544C168.623 62.4285 175.701 61.9342 182.735 62.4876C190.868 62.2876 198.202 61.8875 206.068 61.8875L205.802 61.8875ZM123.401 197.767C125.029 190.951 126.121 184.018 126.668 177.032C127.468 171.965 127.268 161.964 130.268 157.897C132.009 163.644 132.841 169.628 132.734 175.632C133.401 182.299 134.334 188.966 135.134 195.167C136.801 209.435 139.801 223.303 142.468 237.371C145.134 251.439 148.068 265.174 149.668 279.242C150.534 286.309 151.268 293.376 151.801 300.444C151.801 303.711 152.268 307.111 152.401 310.311C152.534 313.512 153.868 318.779 152.401 321.112C150.141 317.095 148.585 312.72 147.801 308.178C145.934 302.444 144.134 296.643 142.468 290.843C139.334 279.842 136.334 268.907 133.734 257.506C131.534 248.039 129.601 238.504 127.068 229.037C125.668 223.57 124.868 217.969 124.001 212.369C122.812 207.586 122.698 202.599 123.668 197.767L123.401 197.767ZM205.135 144.095C209.899 145.61 214.398 147.859 218.468 150.763C223.384 153.315 228.461 155.542 233.668 157.43C243.535 161.297 253.669 165.431 263.735 168.431C283.101 173.093 302.216 178.745 321.002 185.366C330.069 189.1 339.802 191.567 348.936 194.967C358.069 198.367 367.736 201.634 376.869 205.568C386.003 209.502 395.403 214.302 404.47 218.903C409.248 221.363 413.878 224.102 418.336 227.103C421.003 228.97 427.937 232.371 428.803 235.304C425.337 235.638 419.136 230.637 416.003 229.104C411.07 226.637 405.803 224.97 400.803 222.836C390.803 218.503 380.803 214.302 370.603 210.635C360.403 206.968 349.402 202.168 338.202 199.101C333.202 197.767 328.269 196.034 323.269 194.7C318.269 193.367 312.269 191.7 307.136 189.9C287.136 182.766 267.135 175.832 247.135 168.298C237.335 164.564 228.002 159.764 218.201 156.23C213.792 154.383 209.554 152.152 205.535 149.563C200.796 147.611 196.318 145.081 192.201 142.029C194.735 140.962 202.668 143.495 205.402 144.095L205.135 144.095ZM193.001 273.908C195.924 277.821 198.177 282.192 199.668 286.842C202.468 292.776 205.135 298.844 208.135 304.711C214.068 316.312 220.335 327.78 226.402 339.314C232.048 350.337 236.345 362 239.202 374.051C240.068 377.318 249.069 406.454 247.535 406.987C246.002 407.521 231.402 383.185 229.868 380.318C223.735 369.25 217.335 358.249 211.068 346.982C207.656 342.096 205.108 336.661 203.535 330.913C202.401 324.246 201.268 317.179 200.068 310.311C198.868 303.444 197.668 297.31 196.401 290.776C195.668 287.176 191.668 276.775 193.335 273.574C193.335 274.041 193.135 274.108 193.268 273.908L193.001 273.908ZM224.068 224.903C213.315 216.282 203.862 206.155 196.001 194.834C191.651 189.135 187.665 183.167 184.068 176.965C181.401 172.698 175.668 166.364 177.401 160.964C180.201 162.697 182.135 168.964 183.401 171.898C184.001 173.498 187.468 176.365 188.668 178.032C190.801 181.099 192.868 184.233 195.335 187.166C205.268 199.567 216.335 210.968 227.335 222.503C246.746 243.331 268.236 262.119 291.469 278.575C315.136 294.977 339.136 309.911 362.736 326.113C374.703 334.954 386.165 344.459 397.07 354.582C402.27 359.049 406.87 364.05 411.603 368.984C414.936 372.517 423.536 378.118 424.203 383.185C421.803 382.585 419.47 378.918 417.536 377.318C413.603 374.051 409.736 370.65 405.736 367.45C403.003 365.117 400.136 362.85 397.336 360.783C393.347 358.152 389.755 354.964 386.67 351.315C385.136 348.782 383.336 348.982 381.07 347.182C377.969 344.782 375.249 341.927 373.003 338.714C372.269 337.781 370.003 333.38 368.603 333.447C367.203 333.514 370.069 337.981 370.336 338.647C364.936 337.714 358.736 330.247 354.069 327.38C347.402 323.446 341.336 319.179 335.202 314.845C322.336 305.911 309.669 296.91 296.735 288.176C282.656 279.593 269.4 269.728 257.135 258.706C250.469 252.039 243.802 246.105 237.135 239.705C234.668 237.371 232.135 235.104 229.802 232.704C227.468 230.304 227.002 229.77 225.602 228.304C224.202 226.837 226.068 226.237 224.535 225.17C220.602 222.37 225.002 225.57 224.335 224.903L224.068 224.903ZM94.134 210.568C94.3874 201.79 95.2113 193.037 96.6007 184.366C97.5703 175.806 99.4704 167.378 102.267 159.23C102.971 161.883 103.107 164.655 102.667 167.364C102.667 171.565 102.667 175.765 102.667 180.032C103.267 187.033 103.934 194.1 104.467 201.168C104.947 208.527 105.86 215.851 107.201 223.103C107.801 226.037 108.268 229.037 108.801 231.971C109.134 233.837 108.801 238.638 110.534 239.771C109.734 254.039 107.934 268.241 107.334 282.509C107.001 289.643 106.401 296.71 106.134 303.777C106.134 306.578 107.734 320.046 105.601 321.646C98.5341 304.444 98.9341 284.442 96.2674 266.307C93.6809 247.848 92.8549 229.184 93.8008 210.568C94.7341 205.101 94.2008 214.769 94.4008 210.568L94.134 210.568ZM487.87 240.838C485.67 240.838 486.537 242.305 485.07 242.972C483.603 243.638 481.337 242.105 480.07 242.972C477.403 245.038 470.737 237.438 468.804 235.904C464.723 233.149 460.887 230.048 457.337 226.637C455.27 224.303 463.203 222.436 456.137 221.369C459.137 215.369 451.537 220.436 449.47 221.369C448.737 221.369 446.403 220.303 446.47 219.503C446.537 218.703 450.937 217.302 451.737 217.102C455.003 216.369 457.937 214.435 461.07 213.769C462.937 213.369 467.737 207.101 470.537 210.102C471.27 210.968 479.07 209.102 480.337 208.702C481.603 208.302 489.604 206.901 490.47 208.702C490.87 209.635 493.137 208.702 493.337 208.702C495.47 208.302 493.337 211.035 495.604 211.169C499.232 211.202 502.859 211.046 506.47 210.702C506.47 211.569 504.137 211.635 503.87 212.969C503.604 214.302 508.737 214.302 509.204 214.502C509.67 214.702 514.404 215.169 513.204 216.902C512.004 218.636 514.604 219.303 514.137 220.369C513.67 221.436 511.537 221.369 510.937 221.569C508.137 222.703 511.27 223.17 510.937 224.503C510.604 225.837 508.204 224.503 508.27 226.637C508.337 228.77 510.337 228.037 511.137 228.37C509.604 229.17 506.87 229.104 505.737 230.237C504.604 231.37 505.137 231.771 504.87 232.571C503.586 233.32 502.152 233.775 500.67 233.904C498.276 234.584 495.917 235.385 493.604 236.304C490.337 237.438 496.937 239.038 497.404 239.105C494.595 240.701 491.333 241.311 488.137 240.838L487.87 240.838ZM446.337 214.702C444.203 214.702 445.803 216.769 444.803 217.169C442.803 218.036 439.87 214.902 438.137 213.835C432.937 210.302 427.47 207.168 421.937 203.968C415.475 200.08 408.797 196.563 401.936 193.433C400.336 192.7 387.936 188.833 387.803 187.233C390.485 185.646 393.351 184.392 396.336 183.499C397.269 184.233 395.603 186.566 397.936 185.833C400.187 184.89 402.534 184.197 404.936 183.766C403.27 189.366 411.136 183.032 411.27 185.433C411.27 190.1 419.003 183.366 420.87 185.033C421.403 185.499 419.27 187.633 420.87 187.5C423.429 187.323 425.97 186.944 428.47 186.366C431.07 185.766 432.336 187.233 435.136 187.033C437.937 186.833 440.47 185.833 442.603 187.433C444.737 189.033 452.403 185.633 455.137 188.9C456.803 190.9 460.07 189.9 462.27 189.967C464.47 190.033 463.203 192.033 464.937 192.167C469.403 192.167 473.47 195.567 470.137 199.301C468.403 201.234 471.003 202.101 470.137 203.568C469.27 205.035 463.47 206.235 462.403 206.768C461.337 207.301 462.803 208.702 461.203 209.368C459.217 210.184 457.337 211.236 455.603 212.502C452.876 214.082 449.752 214.845 446.603 214.702L446.337 214.702ZM202.668 344.381C199.97 341.002 197.954 337.129 196.735 332.98C194.668 328.513 192.601 324.046 190.735 319.646C186.801 310.111 182.201 300.844 178.335 291.243C170.444 272.716 163.764 253.696 158.335 234.304C156.135 225.903 154.868 217.102 153.001 208.568C151.134 200.034 147.934 189.966 146.334 180.632C143.268 162.364 137.068 144.496 133.001 126.427C130.82 118.04 128.172 109.782 125.067 101.691C124.668 100.558 123.601 98.8911 125.067 97.891C125.577 97.3981 126.259 97.1225 126.968 97.1225C127.677 97.1225 128.358 97.3981 128.868 97.891C130.823 101.786 132.13 105.975 132.734 110.292C137.734 128.961 143.001 147.429 148.868 165.898C154.734 184.366 158.601 203.968 163.801 222.903C169.001 241.838 173.468 259.64 179.001 277.842C182.801 290.309 187.068 302.777 192.335 314.845C194.392 320.295 196.866 325.577 199.735 330.647C202.629 334.737 203.976 339.723 203.535 344.715C203.535 344.715 202.668 344.115 202.668 344.381ZM432.07 219.503C430.494 220.223 428.868 220.824 427.203 221.303C425.67 221.303 424.336 222.436 422.803 222.636C421.27 222.836 419.67 221.97 418.403 222.636C417.136 223.303 417.87 224.703 416.67 224.036L410.936 220.703C406.936 218.369 402.736 216.236 398.67 214.035C389.885 209.382 380.849 205.219 371.603 201.568L357.936 196.3C353.31 195.015 348.839 193.226 344.603 190.967C346.036 189.196 347.802 187.723 349.803 186.633C350.803 186.633 350.203 188.566 351.803 187.7C353.403 186.833 355.469 185.699 357.269 184.766C358.336 187.433 359.803 186.7 362.136 185.699C362.936 185.299 368.803 184.966 369.136 186.033C369.469 187.1 375.069 186.033 376.336 186.633C381.004 187.42 385.509 188.974 389.669 191.233C388.003 192.233 383.003 191.967 382.603 194.7C382.203 197.434 387.536 194.7 388.069 194.3C385.736 200.968 390.803 197.301 393.136 194.3C395.47 191.3 409.003 199.234 412.136 200.968C419.336 204.568 426.203 208.902 433.07 213.102C435.537 214.636 439.736 216.036 440.07 219.769C439.87 221.503 434.07 218.903 432.337 219.503L432.07 219.503ZM271.402 382.252C271.402 381.451 269.269 378.585 268.802 380.518C268.335 382.452 269.735 386.585 268.202 387.785C267.735 388.185 264.469 378.185 263.469 377.984C261.469 377.451 261.535 374.384 261.135 372.784C260.164 370.392 259.34 367.943 258.668 365.45C258.422 363.707 257.833 362.03 256.935 360.516C256.535 359.583 254.735 357.183 254.868 356.449C254.868 354.649 256.335 351.249 254.868 349.782C253.402 348.315 253.135 347.582 253.735 344.648C255.802 345.115 258.669 351.315 259.935 352.849C263.002 356.782 266.602 360.516 269.402 364.383C275.269 371.651 281.002 379.118 286.669 386.585C291.839 393.325 296.646 400.335 301.069 407.587C302.687 410.665 304.091 413.85 305.269 417.122C306.802 420.455 309.669 422.722 305.935 424.589C302.202 426.456 297.069 428.056 295.002 422.389C293.869 419.322 289.402 420.989 287.402 418.588C285.402 416.188 283.869 415.121 282.402 413.455C280.935 411.788 279.869 406.787 278.335 403.987C277.335 402.253 276.935 403.987 276.002 403.587C275.069 403.187 275.002 399.186 274.869 398.253C274.269 395.053 274.869 391.252 271.469 391.586C271.402 391.852 271.669 382.918 271.669 382.252L271.402 382.252ZM45.8671 208.568C46.5337 201.901 47.3336 195.567 48.4003 189.1C49.467 182.632 51.7337 177.432 52.8671 171.565C56.0832 158.993 60.2052 146.671 65.2005 134.694C68.7758 123.254 73.2337 112.108 78.534 101.358C81.4673 95.6241 84.1339 89.8235 86.8006 83.9563C88.4606 78.6078 91.0564 73.5963 94.4673 69.1549C96.734 72.4218 92.934 78.4224 91.8007 81.5561C89.934 86.8899 87.4006 91.9571 85.5339 97.2243C81.7339 107.759 77.1338 117.826 72.8005 128.161C64.4189 149.377 57.9923 171.315 53.6005 193.7C49.3393 214.782 48.3946 236.4 50.8004 257.773C51.867 268.707 53.4003 279.575 54.467 290.509C54.9337 295.377 55.5338 300.177 55.8672 305.111C56.9521 310.714 57.1097 316.458 56.3337 322.112C53.867 319.045 55.4671 311.178 54.5337 307.244C53.6004 303.311 53.667 298.177 52.667 293.91C50.7337 285.442 49.9337 276.708 48.267 268.174C44.5944 248.572 43.7413 228.545 45.7336 208.702C46.5336 204.301 45.6003 214.102 46.1336 208.568L45.8671 208.568ZM199.868 328.58C188.637 302.938 179.366 276.482 172.135 249.439C168.335 235.237 164.335 221.103 160.668 206.835C158.801 199.434 157.335 191.967 155.468 184.633C154.668 181.566 153.801 178.499 152.935 175.432C152.068 172.365 150.001 168.764 150.734 166.698C152.268 167.231 152.401 169.498 153.001 170.698C154.268 173.298 156.934 174.632 158.401 177.365C160.949 183.751 162.457 190.504 162.868 197.367C166.601 212.847 171.733 227.955 178.201 242.505C180.801 248.772 183.735 254.906 186.735 260.973C189.422 267.78 191.215 274.907 192.068 282.175C193.668 290.443 195.201 298.777 196.735 307.111C197.535 311.445 198.401 315.778 199.202 320.112C200.246 323.363 200.742 326.766 200.668 330.18L199.868 328.58ZM433.803 283.242C429.337 284.109 443.003 289.043 444.003 290.243C435.003 291.243 446.137 293.176 448.07 295.31C439.803 297.71 451.137 297.11 451.47 299.777C451.47 300.51 449.47 300.577 450.137 301.577C450.803 302.577 454.403 304.377 456.003 305.378C457.603 306.378 455.67 307.578 457.337 308.578C457.337 308.578 462.403 311.378 460.937 311.911C455.67 313.645 462.47 314.178 462.87 316.512C463.27 318.846 460.937 317.179 462.87 320.112C463.423 321.032 464.024 321.922 464.67 322.779C465.137 323.246 462.603 324.779 462.07 323.979C460.623 322.298 459.088 320.696 457.47 319.179C453.07 314.778 448.603 310.511 444.137 306.244C442.87 305.044 443.203 303.244 441.803 302.244C440.403 301.244 436.737 299.844 438.137 298.443C439.537 297.043 430.07 289.443 428.003 289.776C429.603 292.443 434.003 293.71 435.203 296.443C436.403 299.177 428.536 293.576 428.07 293.176C420.47 287.643 413.603 281.109 405.736 275.841C397.87 270.574 390.27 264.64 382.136 259.773C374.15 255.124 367.223 248.856 361.803 241.371C364.469 240.505 371.936 244.038 374.803 244.905C377.669 245.772 379.136 246.439 381.47 247.305C383.803 248.172 382.869 249.506 384.469 250.306L391.136 253.639C392.869 254.439 390.403 255.973 392.403 256.64C396.536 258.106 404.47 259.773 407.27 263.307C406.803 263.307 401.603 263.307 403.536 264.974C406.267 266.588 409.238 267.759 412.336 268.441C414.07 269.041 416.403 271.108 418.336 272.041C420.27 272.974 425.603 274.641 427.203 276.775C422.403 278.242 435.47 282.375 436.603 283.442C435.765 283.301 434.919 283.212 434.07 283.175L433.803 283.242ZM83.8007 186.499C83.9826 176.321 85.2791 166.193 87.6673 156.297C90.534 145.896 93.934 135.695 95.934 125.094C96.8006 120.493 97.6006 115.893 98.4006 111.292C98.786 109.674 99.0094 108.021 99.0673 106.358C99.0673 104.825 97.6007 102.825 98.4674 101.358C99.334 99.8912 100.934 109.225 100.934 109.825C100.934 114.959 102.267 120.16 102.001 125.294C102.714 134.733 102.558 144.219 101.534 153.63C99.134 163.497 96.534 173.632 94.8673 183.299C93.2347 193.648 92.2994 204.095 92.0674 214.569C92.0674 219.436 92.0674 224.503 92.0674 229.37C92.0674 232.904 94.134 241.571 92.0674 244.438C90.0007 242.105 90.2007 235.704 89.6007 232.704C88.4674 226.57 87.0672 220.569 85.7339 214.502C83.8396 205.273 83.2783 195.821 84.0672 186.433L83.8007 186.499ZM320.069 89.8902C304.96 91.3752 289.783 92.0652 274.602 91.9572C257.602 90.8904 240.002 91.9572 223.402 87.6901C206.801 83.423 191.068 78.8892 174.868 74.6888C167.268 72.7552 159.935 70.7551 152.268 69.0216C148.264 68.147 144.34 66.9427 140.534 65.4212C137.868 64.2878 131.801 62.8877 130.268 60.2874C132.934 60.2874 136.334 63.021 139.001 63.7544C142.717 64.6248 146.518 65.0721 150.334 65.0878C158.775 65.5447 167.095 67.2989 175.001 70.2884C193.208 75.4501 211.802 79.1291 230.602 81.2894C238.735 82.4895 246.802 82.7562 255.002 83.1563C259.602 83.1563 264.402 84.5564 268.935 85.1565C273.13 85.4562 277.341 85.4562 281.535 85.1565C290.269 85.1565 298.936 86.2899 307.669 86.2233C310.802 86.2233 329.069 84.8231 329.802 88.6901C330.136 89.0902 321.469 89.7569 320.336 89.8236L320.069 89.8902ZM329.802 214.502C323.536 212.169 317.402 209.435 311.069 207.368C304.736 205.301 296.602 203.901 289.735 201.434C275.269 196.234 260.869 189.766 246.935 183.366C233.893 177.662 221.204 171.183 208.935 163.964C203.201 160.364 197.601 156.363 192.201 152.296C189.535 150.296 175.668 141.095 176.801 137.295C178.535 137.895 180.735 140.628 182.201 141.762C185.268 144.029 188.868 145.896 191.735 148.029C198.694 152.775 206.03 156.945 213.668 160.497C227.802 167.164 241.535 173.832 256.202 179.432C263.402 182.032 270.335 185.099 277.402 187.966C284.019 191.141 290.807 193.946 297.736 196.367C304.736 198.434 311.536 201.634 318.469 204.101C322.011 204.94 325.331 206.531 328.202 208.768C329.669 210.102 334.269 213.969 333.803 215.969L329.802 214.502ZM237.735 292.243C239.202 292.843 237.735 296.71 238.668 297.577C240.112 299.659 241.319 301.895 242.268 304.244C244.229 308.038 245.515 312.144 246.069 316.379C233.279 298.158 221.742 279.09 211.535 259.306C206.244 248.452 202.088 237.079 199.135 225.37C197.668 220.569 197.068 215.436 195.401 210.635C193.268 204.568 197.402 209.768 199.002 211.769C200.336 213.493 201.414 215.402 202.201 217.436C203.201 220.103 204.335 219.503 205.935 221.236C208.95 225.533 211.414 230.192 213.268 235.104C215.735 239.905 218.135 244.638 220.735 249.305C222.402 252.239 228.668 259.773 228.335 263.107C228.335 264.574 229.868 264.507 229.535 266.174C229.002 268.907 229.535 267.774 230.668 269.774C231.802 271.774 229.735 273.174 231.935 274.174C232.935 274.575 231.935 277.842 231.935 278.442C231.535 280.108 232.935 279.775 233.935 280.242C234.935 280.708 233.935 284.509 233.935 285.242C233.935 287.842 237.135 285.709 236.868 287.909C236.602 290.109 236.002 291.31 237.735 292.243ZM360.803 135.761C341.547 136.028 322.302 134.69 303.269 131.761C283.269 128.494 263.735 121.893 243.668 118.426C223.346 114.759 203.299 109.703 183.668 103.292C174.263 100.798 165.077 97.5426 156.201 93.5572C154.268 92.5571 134.934 80.6227 139.334 77.6891C141.268 76.3557 147.401 82.6229 149.001 83.623L161.868 91.2904C170.391 95.4939 179.328 98.8008 188.535 101.158C206.068 107.092 224.468 109.826 242.468 114.026C261.735 118.493 281.269 122.16 300.602 126.427C309.069 128.361 317.802 129.361 326.202 131.628C335.784 133.396 345.536 134.067 355.269 133.628C359.52 133.951 363.794 133.772 368.003 133.094C373.037 132.211 378.222 132.959 382.803 135.228C381.003 136.495 375.669 135.228 373.469 135.628C369.336 135.361 365.003 135.495 360.803 135.495L360.803 135.761ZM184.801 223.636C187.668 227.682 189.81 232.193 191.135 236.971C193.268 241.438 195.268 245.839 197.068 250.306C200.735 259.973 206.268 268.841 210.402 278.375C212.402 283.175 228.868 338.047 228.268 338.381C227.668 338.714 216.335 315.912 214.935 313.445C209.935 303.844 204.668 294.31 200.468 284.309C195.562 274.524 191.718 264.242 189.001 253.639C188.001 248.105 187.135 242.572 186.335 237.038C185.868 233.771 183.535 227.037 184.801 223.703C185.068 223.636 184.735 223.57 184.801 223.37L184.801 223.636ZM357.803 320.246C348.546 314.948 340.065 308.397 332.602 300.777C324.602 291.176 314.736 282.842 306.269 273.641C297.802 264.44 289.735 257.24 282.002 248.572C278.269 244.438 274.735 240.038 270.669 236.304C268.469 234.237 259.335 228.57 259.068 225.837C263.002 226.237 269.135 232.837 272.402 235.237C278.087 239.14 283.541 243.37 288.735 247.905C297.069 255.906 306.136 263.373 315.002 270.841C324.791 279.147 334.054 288.054 342.736 297.51C346.943 301.884 350.925 306.468 354.669 311.245C356.203 313.312 361.336 319.379 360.869 321.979L357.803 320.246ZM343.736 130.494C332.517 129.927 321.366 128.41 310.402 125.96C299.002 123.627 287.469 119.293 275.935 118.36C265.123 116.903 254.429 114.675 243.935 111.692C232.868 109.092 218.268 109.025 208.335 103.425C235.002 107.092 261.202 111.159 287.602 114.959C314.002 118.76 341.469 121.293 366.669 130.161C361.336 133.228 349.736 130.694 343.736 130.494ZM120.268 220.236C120.195 217.116 120.646 214.006 121.601 211.035C122.869 214.707 123.566 218.552 123.668 222.436C124.734 227.97 126.001 233.371 127.268 238.838C129.734 249.506 132.468 260.173 135.134 270.841C137.801 281.509 141.801 293.576 145.268 304.844C147.068 310.578 149.001 316.312 150.868 321.979C151.801 324.646 154.534 329.446 152.468 332.247C150.598 328.983 148.95 325.597 147.534 322.112C144.797 317.337 142.413 312.368 140.401 307.244C136.601 297.11 131.934 287.242 128.601 277.108C122.064 258.895 119.23 239.559 120.268 220.236ZM213.602 268.707L213.602 266.974C220.735 276.908 225.468 288.776 232.268 298.977C239.068 309.178 246.802 320.512 254.202 331.18C261.602 341.848 268.535 351.182 275.469 361.383C279.202 366.917 282.735 372.517 286.002 378.318C287.735 381.252 289.402 384.252 291.069 387.252C292.736 390.252 295.069 392.452 295.002 394.919C291.394 390.783 288.18 386.319 285.402 381.585C281.002 376.118 277.002 370.384 272.602 364.917C268.202 359.449 265.135 355.849 261.469 351.582C257.802 347.315 254.135 339.714 249.668 334.647C241.467 324.277 234.047 313.313 227.468 301.844C223.396 296.337 219.763 290.518 216.602 284.442C214.779 279.383 213.722 274.079 213.468 268.707L213.602 268.707ZM108.401 306.311C108.867 295.043 109.467 283.775 110.134 272.574C110.134 266.707 111.334 260.84 111.734 254.973C111.664 250.123 112.066 245.277 112.934 240.505C114.501 231.951 115.238 223.265 115.134 214.569C115.258 204.898 116.398 195.266 118.534 185.833C120.3 197.814 120.3 209.989 118.534 221.97C117.556 234.815 116.512 247.639 115.401 260.44C114.268 273.774 115.401 286.576 114.801 299.644C114.801 306.778 114.067 313.912 113.667 321.046C113.667 324.246 113.267 327.713 113.001 330.713C112.734 333.714 113.001 338.781 111.668 340.781C109.068 335.759 107.762 330.167 107.867 324.513C107.867 318.445 107.867 312.378 108.334 306.311C108.534 298.91 108.001 312.245 108.267 306.311L108.401 306.311ZM65.7337 212.502C67.0023 189.309 70.5983 166.302 76.4673 143.829C79.334 131.828 83.1339 120.093 86.3339 108.292C88.1339 102.225 89.7339 96.0908 91.7339 90.0902C92.4672 87.69 96.2006 74.6888 98.4006 74.3555C99.134 74.3555 94.934 93.9573 94.8673 95.4908C93.8977 104.799 91.6545 113.929 88.2006 122.627C83.1339 139.428 75.8672 155.963 72.4672 173.098C69.7453 190.292 68.6517 207.704 69.2006 225.103C69.2006 233.171 69.6672 241.438 70.3338 249.505C70.6672 253.506 71.0672 257.44 71.4672 261.44C72.2815 265.001 72.5735 268.662 72.3339 272.308C70.6664 267.844 69.743 263.136 69.6006 258.373L67.2004 243.238C65.8112 233.056 65.3204 222.771 65.7337 212.502C65.7337 209.102 65.4671 217.102 65.6005 212.235L65.7337 212.502ZM145.001 76.0889C172.935 84.0897 200.135 94.2907 228.735 99.7579C243.868 102.692 259.202 105.025 274.202 108.159C282.211 109.167 290.141 110.727 297.936 112.826C301.533 113.981 305.209 114.872 308.936 115.493C311.736 116.159 317.202 115.893 319.336 117.76C312.343 117.482 305.406 116.386 298.669 114.493C291.002 113.492 283.402 112.426 275.735 111.292C260.869 109.092 246.002 106.959 231.002 104.625C207.453 101.716 184.442 95.4517 162.668 86.0232C157.601 83.6897 147.001 81.2228 144.134 76.0223L145.001 76.0889ZM398.936 227.37C397.336 226.903 397.736 228.304 396.403 228.504C395.07 228.704 393.87 227.103 392.536 227.303C391.203 227.503 391.603 229.037 390.136 228.37C388.669 227.703 386.536 225.903 385.67 227.437C383.013 227.416 380.369 227.058 377.803 226.37C374.336 225.503 378.669 230.637 378.936 231.17C377.536 231.17 376.469 229.77 375.403 228.904C374.336 228.037 373.136 227.703 371.003 226.97C365.803 224.67 360.788 221.973 356.003 218.903C347.269 214.035 334.536 210.302 330.869 199.767C337.506 200.304 343.989 202.043 350.003 204.901C357.536 207.768 365.003 210.902 372.603 213.635C380.203 216.369 386.736 218.969 393.67 222.036C396.87 223.503 400.336 224.837 403.336 226.503C407.536 228.504 400.07 227.703 398.803 227.37L398.936 227.37ZM296.802 163.164C307.469 166.031 318.136 168.831 328.736 171.831L344.736 176.432C349.843 177.179 354.782 178.803 359.336 181.232C356.669 183.833 356.403 182.032 354.069 182.032C351.736 182.032 348.802 186.633 347.402 184.366C346.669 183.233 342.403 186.499 341.869 186.766C340.163 187.465 338.326 187.786 336.484 187.705C334.643 187.624 332.841 187.145 331.202 186.299C322.351 184.275 313.871 180.878 306.069 176.232C303.002 173.898 300.336 171.165 297.469 168.564C294.294 166.42 291.305 164.011 288.535 161.364C290.469 160.497 295.202 162.631 296.936 163.164L296.802 163.164ZM132.134 55.687C135.008 56.9403 138.001 57.9008 141.068 58.5539C145.525 58.6682 149.984 58.423 154.401 57.8205C162.668 57.4204 170.801 57.8205 179.068 57.2871C196.735 55.8203 214.535 54.4202 232.402 54.2868C251.364 53.757 270.272 56.5552 288.269 62.5543C295.239 65.5346 301.932 69.1268 308.269 73.2887C314.936 77.089 324.669 79.956 330.002 85.6899C327.602 86.0899 324.336 83.5563 322.202 82.5562C318.002 80.556 313.669 78.6891 309.602 76.5556C301.069 72.0218 291.802 68.7549 282.935 64.7545C274.223 60.5116 264.794 57.9338 255.135 57.1538C246.352 56.5531 237.532 56.821 228.802 57.9539C211.268 60.2207 193.402 59.2207 175.468 59.9541C161.001 60.6208 141.601 67.0214 129.601 55.9536C130.366 55.6645 131.191 55.5728 132.001 55.687L132.134 55.687ZM79.1339 209.035C79.3008 205.993 79.3008 202.943 79.1339 199.901C78.7003 194.487 78.7003 189.047 79.1339 183.633C79.4683 173.37 80.8081 163.164 83.134 153.163C83.6007 151.029 88.7339 129.894 90.734 130.094C91.134 130.094 95.2673 109.292 96.534 106.558C99.2006 109.492 95.4674 121.56 94.934 125.094C93.2973 132.695 91.2273 140.197 88.734 147.562C84.3216 163.606 82.2116 180.196 82.4673 196.834C82.4673 212.169 83.8007 227.437 83.6007 242.705C83.479 250.464 82.9226 258.21 81.934 265.907C81.334 270.641 80.1338 282.175 76.3338 285.442C76.1755 279.765 76.8951 274.098 78.4672 268.641C79.1663 261.35 79.5 254.029 79.4672 246.705C79.2672 233.837 79.2673 221.169 79.0007 208.768L79.1339 209.035ZM250.068 235.704C251.468 236.038 252.669 235.104 254.002 235.704C256.52 237.486 258.925 239.423 261.202 241.505C267.002 246.039 272.869 250.439 278.602 254.839C284.335 259.24 288.736 262.84 293.602 267.174C296.151 269.228 297.955 272.062 298.736 275.241C299.202 276.575 302.602 280.842 300.802 281.309C297.136 282.242 288.402 273.441 285.069 271.641C278.959 268.006 273.298 263.664 268.202 258.706C262.868 253.706 257.335 248.572 251.669 243.972C248.953 242.117 246.526 239.87 244.468 237.304C242.668 234.571 249.335 235.104 249.935 235.237L250.068 235.704ZM434.67 224.303C436.536 224.303 436.137 222.436 438.537 222.97C439.137 222.97 440.47 223.77 441.07 223.436C441.67 223.103 442.537 220.169 443.737 220.436C446.565 221.722 449.139 223.506 451.337 225.703C454.87 228.504 452.337 229.437 449.47 230.504C448.27 230.904 443.603 231.837 445.403 234.171C446.27 235.304 453.737 231.37 454.87 230.77C458.603 228.77 460.67 232.037 463.803 234.504C464.937 235.371 474.003 241.171 473.403 242.505C472.803 243.838 469.403 242.505 468.737 242.505C465.803 241.971 466.137 241.105 462.737 242.105C457.787 242.973 452.758 243.308 447.737 243.105C442.137 243.572 438.87 240.105 434.403 236.971C429.154 234.135 424.385 230.49 420.27 226.17C424.83 224.477 429.675 223.684 434.537 223.836L434.67 224.303ZM107.067 357.649C107.067 354.316 107.067 350.982 107.067 347.515C106.614 343.528 106.84 339.492 107.734 335.58C110.195 339.61 111.594 344.198 111.801 348.915C111.253 355.571 111.253 362.261 111.801 368.917C112.467 381.585 112.201 394.186 112.601 406.854C113.001 419.522 114.001 430.856 114.934 442.857C115.401 449.191 115.934 455.525 116.534 461.926C117.789 467.502 118.327 473.215 118.134 478.927C116.535 475.095 115.632 471.009 115.468 466.86C114.401 460.792 113.334 454.725 112.334 448.591C110.801 438.924 109.734 429.056 109.001 419.255C107.14 398.687 106.45 378.029 106.934 357.383L107.067 357.649ZM129.334 49.9531C127.468 47.2195 122.668 50.2865 120.601 51.2199C118.534 52.1533 121.134 48.4863 123.334 48.3529C132.401 47.9567 141.426 46.887 150.334 45.1526C168.335 40.8189 185.201 32.2847 202.801 26.7508C220.968 19.9759 239.51 14.2548 258.335 9.6159C268.202 7.68238 278.335 6.01557 288.069 4.68211C296.535 3.482 308.069 0.0816531 316.336 2.21519C309.376 3.91325 302.283 5.0063 295.135 5.48215C286.269 6.94896 277.535 8.8158 268.469 10.6826C251.503 14.3575 234.764 19.0101 218.335 24.6173C203.068 29.7512 187.268 34.4849 172.401 40.6188C164.805 43.3008 157.001 45.3524 149.068 46.7527C145.734 47.5528 131.734 53.6201 129.334 49.9531ZM448.27 312.645C450.27 314.778 455.803 318.312 456.603 321.046C456.603 322.113 454.937 322.913 455.937 323.979C456.937 325.046 457.337 324.379 457.87 325.98C452.27 326.846 442.47 316.712 438.27 313.578C430.936 308.044 423.136 302.644 416.27 296.443C409.403 290.243 404.736 285.309 398.803 279.842C396.07 277.375 393.336 274.841 390.736 272.174C388.136 269.507 384.803 267.307 384.069 264.574C387.669 264.574 395.003 271.241 398.07 273.574C404.736 277.975 410.67 282.842 417.136 286.909C422.337 290.376 426.536 295.177 431.87 298.71C433.603 299.844 438.137 301.777 438.07 304.444C438.07 305.978 441.337 306.911 442.07 308.044C441.003 308.644 440.27 308.044 439.137 308.911C441.07 312.245 445.47 309.711 448.137 312.645L448.27 312.645ZM245.735 149.363C236.597 146.122 227.688 142.268 219.068 137.828C210.068 134.516 201.293 130.618 192.801 126.16C183.941 121.467 175.43 116.141 167.335 110.226C159.292 104.887 152.308 98.1052 146.734 90.2236C151.127 91.8284 155.047 94.5106 158.135 98.0243C161.201 102.491 168.601 105.158 173.068 107.959C183.001 114.293 192.668 120.627 203.135 126.094C213.602 131.561 225.202 136.361 236.468 141.162C241.335 143.162 246.268 145.096 251.135 147.162C254.802 148.696 263.535 150.163 265.802 153.363C263.003 153.536 260.202 153.08 257.602 152.03L245.402 149.296L245.735 149.363ZM378.069 346.915C383.469 347.982 386.87 356.716 388.736 360.916C391.536 367.25 394.736 373.384 397.536 379.718C403.603 393.519 407.27 408.121 411.936 422.455C416.603 436.79 420.803 450.791 425.27 464.86C427.012 470.853 429.127 476.732 431.603 482.461C433.336 486.062 435.203 489.528 437.137 493.062C438.403 495.529 441.603 499.73 441.336 502.796C436.936 500.063 433.803 490.395 431.47 485.861C428.27 479.661 425.603 473.26 422.736 466.86C417.131 453.858 412.409 440.493 408.603 426.856C404.47 412.788 401.07 398.72 395.67 385.052C392.936 378.385 389.67 371.717 386.47 365.05C384.87 361.716 383.136 358.383 381.403 355.449C381.203 354.316 377.136 346.715 378.069 346.915ZM133.201 151.496C133.801 148.629 132.401 146.029 134.134 143.095C135.458 150.036 136.017 157.101 135.801 164.164C136.268 172.365 136.734 180.832 137.868 189.033C140.201 206.035 144.534 222.37 147.734 239.438C150.935 256.506 153.201 273.241 155.268 290.243C155.735 294.176 158.468 335.247 157.801 335.247C152.868 334.847 153.268 295.243 152.801 290.309C151.23 274.624 148.759 259.041 145.401 243.638C141.934 227.97 139.334 212.035 137.068 196.167C135.868 188.233 135.068 180.166 134.068 172.231C132.717 165.405 132.424 158.411 133.201 151.496ZM294.735 242.505C301.546 244.78 308.094 247.775 314.269 251.439C321.669 255.106 328.936 259.173 336.069 263.307C343.203 267.441 349.403 271.241 356.069 275.641C358.781 277.063 360.871 279.438 361.936 282.309C361.909 282.489 361.84 282.661 361.736 282.811C361.632 282.962 361.495 283.086 361.336 283.175C359.403 284.309 360.403 285.642 360.669 287.242C354.603 286.776 348.603 280.575 343.803 277.242C337.869 273.041 331.736 269.174 325.602 265.174C319.469 261.173 314.936 257.773 309.602 254.106C306.469 251.972 303.402 249.839 300.469 247.439C299.269 246.705 293.935 242.305 294.735 242.505ZM70.8005 208.102C70.8005 202.901 71.2006 197.767 71.4672 192.633C71.2483 188.656 71.7913 184.673 73.0672 180.899C74.6005 182.832 74.2672 187.566 74.7339 189.9C75.4672 193.433 76.334 196.967 76.934 200.567C77.7676 209.143 77.9013 217.772 77.334 226.37C78.3958 243.391 77.546 260.477 74.8006 277.308C73.5859 272.788 73.0025 268.121 73.0672 263.44C72.5339 257.306 72.1339 251.172 71.6672 244.972C70.7339 232.571 70.6005 220.503 70.8005 208.102C70.9339 202.901 70.7339 212.902 70.8005 208.102ZM228.268 146.362C219.262 145.625 210.47 143.229 202.335 139.295C194.268 134.561 186.001 130.094 178.201 125.027C170.197 119.735 162.517 113.968 155.201 107.759C152.935 105.892 148.535 103.425 147.535 100.625C147.115 99.6438 146.824 98.613 146.668 97.5577C146.668 97.5577 149.601 95.8908 148.801 95.7575C150.535 95.7575 154.534 101.558 155.934 102.892C159.601 106.225 163.668 109.559 167.601 112.359C174.27 117.339 181.313 121.797 188.668 125.694C203.668 133.894 219.668 139.028 235.335 146.829C232.97 147.077 230.58 146.919 228.268 146.362ZM157.135 363.383C156.535 380.718 155.335 397.986 154.601 415.321C154.268 424.322 154.601 433.39 154.201 442.457C154.201 446.458 154.201 450.458 154.201 454.458C154.677 458.485 154.788 462.546 154.534 466.593C152.247 462.756 151.178 458.316 151.468 453.858C151.468 447.191 151.068 440.524 151.134 433.857C151.134 420.522 151.668 407.187 152.068 393.853C152.401 381.918 152.601 370.05 153.468 358.183C154.094 353.498 154.361 348.773 154.268 344.048C154.268 341.714 155.601 340.048 155.534 337.981C155.468 335.914 153.934 335.047 154.868 333.714C157.601 336.114 157.601 343.114 157.535 346.381C157.468 352.249 157.335 357.716 157.135 363.383ZM111.001 164.897C111.001 157.497 111.001 150.229 111.001 142.895C111.001 138.628 111.401 134.361 111.468 130.094C111.468 127.56 109.868 120.693 111.068 118.76C112.868 120.426 113.401 123.16 115.268 124.96C118.201 127.627 117.734 130.361 117.334 134.294C116.768 142.015 116.635 149.761 116.934 157.497C118.022 165.609 118.179 173.818 117.401 181.966C115.601 190.233 116.001 199.367 113.801 207.368C112.379 200.464 111.93 193.395 112.468 186.366C111.934 178.899 111.334 172.231 111.001 164.897ZM106.401 194.1C105.401 183.633 104.601 173.432 104.601 162.964C104.265 157.653 104.601 152.322 105.601 147.096C106.11 142.098 107.345 137.202 109.267 132.561C109.968 140.101 109.968 147.69 109.267 155.23C109.267 163.297 109.801 171.365 110.268 179.499C110.734 187.633 111.201 197.634 111.734 206.701C112.067 213.369 114.201 222.97 111.734 229.037C108.467 226.103 108.001 214.636 107.401 210.168C106.801 205.701 106.934 199.367 106.401 194.1ZM96.6007 332.714C96.85 338.535 96.4925 344.367 95.534 350.115C94.8006 339.514 95.534 328.713 95.534 318.112C95.534 307.511 93.6007 295.243 92.0674 283.909C90.534 272.574 89.2674 261.84 87.734 250.572C85.4866 240.24 84.5236 229.671 84.8672 219.103C85.3113 222.225 86.0251 225.304 87.0006 228.303L90.0007 242.638C91.8674 252.306 94.0675 261.707 95.2675 271.574C96.8668 281.968 97.7355 292.462 97.8674 302.977C97.8674 312.978 97.0007 322.446 96.8007 332.513C96.6007 335.114 96.734 326.646 96.6007 332.714ZM305.536 197.1C286.269 188.7 266.469 181.566 247.135 173.565C237.402 169.498 228.202 164.231 218.468 160.23C213.402 158.163 208.468 155.697 203.668 153.163C200.935 151.763 192.801 148.362 192.001 145.229C196.437 146.37 200.59 148.412 204.202 151.229C208.424 153.871 212.889 156.103 217.535 157.897C229.002 162.764 240.602 167.431 252.135 172.231C263.669 177.032 274.402 179.765 285.469 183.966C289.602 185.633 293.602 187.433 297.869 188.7C302.95 189.578 307.856 191.267 312.402 193.7C311.002 195.1 307.002 197.767 305.536 197.1ZM118.868 241.638L119.201 240.838C120.913 245.083 121.861 249.597 122.001 254.173C122.868 258.973 123.934 263.707 125.268 268.507C127.801 277.442 130.534 286.109 133.868 294.777C137.201 303.444 140.868 311.912 144.734 320.312C147.001 325.046 155.201 336.447 152.734 342.048C149.802 338.836 147.536 335.074 146.068 330.98C144.334 327.38 142.601 323.779 140.801 320.179C136.168 311.302 132.029 302.176 128.401 292.843C125.165 284.158 122.58 275.243 120.668 266.174C120.241 262.151 119.438 258.178 118.268 254.306C117.499 250.103 117.636 245.784 118.667 241.638L118.868 241.638ZM295.269 266.174C288.602 260.24 281.935 254.706 275.269 249.105C267.456 243.621 259.976 237.677 252.868 231.304C247.935 226.237 241.468 222.103 236.402 216.769C233.468 213.635 230.335 210.702 227.335 207.635C224.518 205.446 222.007 202.889 219.868 200.034C222.735 200.034 226.535 204.235 229.135 205.901C233.315 208.403 237.304 211.211 241.068 214.302C247.735 220.303 255.002 225.77 262.002 231.57C269.012 237.627 275.689 244.059 282.002 250.839C284.735 253.639 287.135 256.773 289.869 259.506C291.535 261.107 296.535 264.24 296.535 266.174C295.535 266.64 295.269 266.574 295.069 266.174L295.269 266.174ZM163.468 183.366C167.068 185.833 169.601 193.9 171.668 197.834C175.113 203.635 178.142 209.673 180.735 215.902C182.365 221.987 183.393 228.218 183.801 234.504C185.534 240.519 186.541 246.719 186.801 252.973C180.135 244.238 177.401 231.304 173.468 221.036C171.268 215.102 169.268 209.035 167.468 202.968C164.883 196.742 163.438 190.103 163.201 183.366C163.201 183.366 163.268 183.566 163.268 183.366L163.468 183.366ZM227.935 148.896C239.802 150.979 251.467 154.08 262.802 158.163C267.583 160.089 272.237 162.316 276.735 164.831C282.018 166.747 286.95 169.517 291.335 173.032C286.281 172.631 281.349 171.274 276.802 169.031C269.735 166.631 262.469 164.897 255.402 162.364C248.335 159.83 242.068 157.563 235.402 155.096C232.135 153.83 228.735 152.63 225.668 151.296C222.602 149.963 217.602 148.896 216.135 146.696C220.086 146.876 223.992 147.617 227.735 148.896L227.935 148.896ZM372.269 330.38C366.178 324.475 360.949 317.742 356.736 310.378C350.186 302.12 343.198 294.219 335.802 286.709C328.073 278.834 319.928 271.378 311.402 264.374C307.002 260.707 302.602 257.04 298.069 253.173C295.735 251.039 290.335 247.905 289.135 245.038C292.135 245.038 297.002 249.439 299.536 251.039C303.986 253.68 308.221 256.667 312.202 259.973C321.136 268.041 329.869 276.375 338.269 285.042C345.032 292.26 351.249 299.971 356.869 308.111C360.003 312.512 363.536 316.579 366.803 320.846C369.94 324.091 372.59 327.774 374.669 331.78C373.803 332.247 372.803 330.913 372.069 330.38L372.269 330.38ZM397.07 308.044C396.536 310.111 393.67 308.044 392.47 308.044C391.27 308.044 391.469 309.845 390.136 308.978C385.936 306.111 381.87 304.377 377.736 301.377L369.469 295.31C368.003 294.243 363.803 292.243 363.136 290.376L363.736 287.776C363.332 287.067 362.976 286.332 362.669 285.576L364.069 284.042C364.069 283.109 363.403 282.242 363.403 281.242C365.936 281.242 369.069 284.576 371.136 285.976L381.403 293.243C383.269 294.643 400.27 305.578 399.603 307.644C399.136 308.578 397.07 307.311 396.87 308.044L397.07 308.044ZM27.3336 223.37C29.667 208.568 31.4002 193.833 33.0669 178.965C33.8669 172.298 34.4668 164.897 35.9335 158.03C36.4669 155.23 39.5337 139.762 43.1337 139.562C42.8004 146.229 40.5336 153.23 39.8669 160.164C39.2002 167.098 38.2669 175.232 37.2002 182.699C36.266 189.99 34.9306 197.224 33.2002 204.368C31.8002 209.902 31.4669 221.303 27.2669 225.37C27.1134 225.062 27.0226 224.726 26.9997 224.383C26.9768 224.04 27.0224 223.695 27.1336 223.37L27.3336 223.37ZM316.002 146.896C329.282 149.35 342.101 153.848 354.003 160.23C364.651 165.773 374.534 172.676 383.403 180.766C378.936 182.632 374.269 177.165 370.069 174.765C363.069 170.765 356.203 166.564 349.203 162.497C342.109 158.811 334.756 155.647 327.202 153.03C320.194 151.475 313.454 148.891 307.202 145.362C310.212 145.232 313.214 145.755 316.002 146.896ZM45.0669 118.093C50.3436 108.172 56.5494 98.7731 63.6006 90.0236C67.4006 85.2231 71.134 80.2893 75.2673 75.6889C77.334 73.3553 79.4672 71.0885 81.4006 68.6216C83.2464 65.6072 85.2492 62.6917 87.4006 59.8873C89.1339 63.6877 82.9339 71.9552 80.7339 75.2221C77.2893 80.8859 73.2436 86.1614 68.6672 90.957C64.1338 95.7574 59.8671 101.025 55.8004 106.225C53.407 109.372 51.1816 112.644 49.1337 116.026C47.6592 119.223 45.6018 122.117 43.067 124.56C42.0003 122.56 43.8671 119.893 44.8004 118.093L45.0669 118.093ZM122.668 164.164C124.201 157.897 126.068 151.696 127.201 145.362C128.134 140.095 127.201 129.427 130.534 125.36C136.001 134.761 130.534 147.429 129.134 157.097C126.934 169.631 125.734 183.033 122.468 195.3C120.132 185.081 120.27 174.453 122.868 164.297C123.868 158.897 121.734 167.498 122.668 164.164ZM405.003 231.304C407.27 231.904 407.07 230.104 408.936 230.104C413.443 230.146 417.841 231.489 421.603 233.971L432.003 239.438C434.803 240.905 440.603 242.638 442.337 245.172C441.122 245.584 439.834 245.732 438.557 245.605C437.281 245.479 436.046 245.081 434.936 244.438C432.73 244.065 430.476 244.065 428.27 244.438C426.67 244.438 427.27 246.239 425.803 244.972C424.336 243.705 420.27 240.905 419.47 242.372C418.67 243.838 411.27 239.905 410.27 239.371C407.936 238.038 404.736 237.771 402.536 236.571C401.168 235.048 399.674 233.643 398.07 232.371C398.67 229.037 403.603 230.97 404.87 231.304L405.003 231.304ZM192.268 426.189C185.677 414.49 180.272 402.161 176.135 389.386C173.734 383.318 171.534 377.251 169.468 371.117C168.334 367.917 167.201 364.45 166.134 361.45C165.068 358.449 162.401 353.982 163.135 351.449C167.335 354.116 170.201 363.916 172.268 368.384C175.801 375.984 178.935 383.585 182.135 391.452C184.401 397.52 186.735 403.32 188.401 409.588C189.335 412.921 190.735 416.255 191.535 419.522C191.535 420.522 192.868 427.256 192.135 426.189L192.268 426.189ZM178.335 206.968C175.135 202.101 172.935 196.434 169.935 191.367C168.409 188.882 167.05 186.298 165.868 183.633C165.001 181.832 165.868 178.899 164.001 177.565C161.073 174.255 159.275 170.098 158.868 165.698C156.743 160.579 155.612 155.104 155.534 149.563C158.485 153.605 160.738 158.112 162.201 162.897C164.868 168.231 167.401 173.632 170.268 178.899C172.896 183.418 174.723 188.358 175.668 193.5C176.268 196.5 176.935 199.501 177.735 202.501C177.801 202.634 179.068 208.302 178.201 206.968L178.335 206.968ZM205.868 265.107C200.268 252.906 195.535 240.371 189.535 228.37C186.609 223.286 184.303 217.869 182.668 212.235C181.868 208.502 177.668 198.901 179.001 195.5C182.135 197.501 184.268 206.035 185.668 209.368C188.868 215.636 192.335 222.036 194.868 228.437C197.401 234.837 198.401 241.771 200.601 248.439C201.935 252.706 207.668 261.773 206.268 265.707L205.868 265.107ZM52.9337 333.447C48.9337 342.248 46.2671 351.649 42.5337 360.649C40.467 365.917 38.067 370.984 35.867 376.184C34.7965 380.734 33.0908 385.111 30.8002 389.185C30.7847 384.032 31.7345 378.921 33.6003 374.117C35.1337 368.517 36.7337 362.716 38.8004 357.316C40.9445 351.144 43.4146 345.091 46.2003 339.181C47.9784 333.297 50.6062 327.704 54.0005 322.579C55.0089 326.222 54.5792 330.112 52.8003 333.447L52.9337 333.447ZM213.735 220.569C220.51 224.855 226.582 230.162 231.735 236.304C235.868 240.638 231.735 238.504 230.868 242.972C230.135 246.439 231.402 250.372 229.668 253.639C225.949 248.777 222.982 243.383 220.868 237.638C219.335 234.704 217.802 231.837 216.402 228.837C216.002 228.037 212.602 219.836 213.735 220.503C217.135 222.503 213.468 220.503 213.602 220.569L213.735 220.569ZM299.336 213.302C299.336 213.702 303.136 213.302 302.736 213.302C306.936 213.302 304.402 214.302 306.936 215.569C308.214 215.802 309.524 215.802 310.802 215.569C313.136 215.569 311.269 217.969 312.669 218.236C315.936 218.836 318.002 216.702 317.802 220.436C317.802 222.37 325.136 221.57 326.469 222.37C327.802 223.17 327.202 223.903 328.269 224.303L335.936 227.37C337.269 227.903 336.669 229.237 337.069 230.237C337.469 231.237 340.869 230.837 342.269 231.904C345.003 234.037 347.936 235.838 351.003 237.904C354.069 239.971 359.936 242.172 360.136 246.039C357.803 245.639 355.736 243.105 353.469 241.972C350.203 240.238 346.803 238.504 343.736 236.904C340.684 235.71 337.914 233.894 335.602 231.57C333.802 229.637 331.869 226.103 328.936 225.503C328.602 227.37 330.136 228.57 330.669 230.304C325.536 230.304 318.069 224.503 313.269 222.303C309.536 220.503 305.802 218.836 302.069 217.102C299.669 215.969 295.002 214.769 293.469 212.635C295.135 212.235 298.202 212.235 299.202 213.302L299.336 213.302ZM424.403 330.647C422.003 329.246 419.136 326.046 416.27 327.246C416.936 328.913 418.603 329.18 419.336 330.713C415.87 330.313 413.67 327.246 411.07 325.446C408.47 323.646 407.336 325.446 405.936 323.979C403.003 321.512 400.203 318.979 397.203 316.645C396.136 315.845 394.669 312.512 395.936 311.445C397.203 310.378 398.336 312.178 399.07 312.378C399.803 312.578 401.07 311.178 402.336 310.778C405.67 309.711 408.336 314.312 410.736 315.979C414.637 318.73 418.315 321.784 421.736 325.113C424.438 327.236 426.898 329.65 429.07 332.313C427.736 332.847 425.336 331.247 424.27 330.647L424.403 330.647ZM257.069 213.369C249.602 206.701 241.469 201.301 233.802 194.967C229.935 191.767 226.002 188.633 222.002 185.566C217.924 183.217 214.273 180.197 211.202 176.632C214.468 176.632 220.535 181.966 223.135 183.899C228.935 188.233 236.468 190.567 242.668 194.1C247.268 196.834 249.335 202.101 254.735 204.501C258.469 206.301 259.535 215.569 256.935 213.369L257.069 213.369ZM191.535 138.895C182.348 136.215 173.951 131.342 167.068 124.694C163.425 121.684 160.077 118.335 157.068 114.693C154.868 112.026 148.334 108.025 148.001 104.225C151.601 105.025 156.335 110.892 159.201 113.092C163.668 116.626 168.335 119.76 172.935 123.293C177.588 127.006 182.615 130.224 187.935 132.894C192.118 134.685 195.971 137.164 199.335 140.228C197.335 141.095 193.668 139.362 191.535 138.895ZM346.869 231.77C343.069 227.57 336.469 226.437 332.202 222.503C330.869 221.303 332.202 220.503 329.602 220.503C327.002 220.503 324.202 220.503 322.936 217.769C321.669 215.036 319.469 216.969 318.469 214.636C317.469 212.302 313.269 213.302 311.802 212.835C310.336 212.369 307.736 209.702 305.602 209.902C302.19 210.268 298.748 210.268 295.335 209.902C293.802 209.902 289.736 210.635 289.002 208.768C287.736 205.368 294.136 205.235 295.669 205.568C302.94 207.126 310.091 209.198 317.069 211.769C324.132 214.147 331.035 216.975 337.736 220.236C339.736 221.303 349.736 231.17 348.603 233.037C347.964 232.678 347.38 232.229 346.869 231.704L346.869 231.77ZM406.87 254.706C394.136 247.039 381.87 238.971 368.803 231.904C367.269 231.104 366.736 228.704 364.936 228.637C361.552 228.195 358.315 226.987 355.469 225.103C350.136 222.503 342.136 219.903 340.736 213.235C347.215 215.399 353.312 218.572 358.803 222.636C364.469 225.703 369.936 229.304 375.47 232.371C381.003 235.438 388.203 240.505 394.536 244.705C397.936 246.972 401.203 249.239 404.803 251.372C406.536 252.639 411.47 254.973 412.203 257.04C410.736 257.573 408.203 255.439 406.936 254.639L406.87 254.706ZM131.334 98.8911C134.468 100.625 137.068 108.492 138.534 111.626C141.001 116.96 142.801 122.627 145.201 128.094C147.922 133.599 150.153 139.332 151.868 145.229C152.734 149.096 156.468 157.963 155.134 161.63C149.782 151.804 145.319 141.517 141.801 130.894C139.601 125.094 137.534 119.293 135.801 113.359C134.734 109.825 130.334 102.491 131.468 98.8911C131.534 98.8911 131.334 98.8911 131.334 98.8911ZM209.735 194.034C208.668 193.167 198.335 183.633 197.535 184.766C196.735 185.899 205.668 192.767 206.535 193.634C209.868 196.767 212.068 202.701 216.068 204.768C220.714 207.559 224.732 211.282 227.868 215.702C229.468 217.636 236.068 223.97 233.935 227.037C225.535 218.969 217.402 210.102 209.802 201.234C206.202 197.034 202.401 192.9 198.935 188.5C194.7 184.3 191.086 179.518 188.201 174.298C191.935 174.965 197.068 181.366 199.935 183.899C202.801 186.433 210.801 191.233 211.602 195.1C210.868 195.367 210.268 194.967 209.735 193.9L209.735 194.034ZM205.068 341.381C205.735 341.381 219.135 365.983 220.802 368.717C223.935 374.051 226.802 379.451 229.935 384.718C233.825 389.91 237.196 395.471 240.002 401.32C235.468 398.92 231.868 391.719 229.135 387.585C225.468 381.985 221.335 376.584 217.868 370.85C215.307 365.649 212.272 360.694 208.802 356.049C207.535 354.582 202.668 342.181 205.068 341.248L205.068 341.381ZM111.734 97.6243C111.995 94.7633 111.995 91.8845 111.734 89.0235C113.534 90.957 114.334 93.2906 116.534 94.9574C118.734 96.6242 118.334 99.5578 119.534 100.091C120.637 105.298 120.477 110.694 119.067 115.826C119.401 115.826 112.001 109.159 114.134 114.759C114.934 116.76 122.401 120.76 118.134 124.027C109.868 116.159 112.001 107.559 111.534 97.4909L111.734 97.6243ZM184.201 147.562C194.835 156.503 206.234 164.49 218.268 171.431C224.935 175.032 231.602 178.099 238.268 180.966L249.602 186.299C251.669 187.3 256.269 188.433 257.469 190.233C255.935 190.967 251.402 188.5 249.868 187.966C246.068 186.7 242.602 184.966 239.002 183.366C231.595 180.65 224.36 177.489 217.335 173.898C211.018 170.733 204.896 167.193 199.002 163.297C196.002 160.897 193.335 158.097 190.601 155.43C187.868 152.763 183.935 150.163 183.335 147.229L184.201 147.562ZM296.002 84.4231C292.557 84.4044 289.12 84.0696 285.735 83.4229C285.735 83.4229 299.536 78.2225 301.069 77.9558C304.372 77.6571 307.702 78.0224 310.862 79.03C314.022 80.0376 316.948 81.6673 319.469 83.823C311.734 85.3239 303.804 85.5266 296.002 84.4231ZM385.069 60.0874L386.136 60.0874C380.861 61.4476 375.449 62.2081 370.003 62.3543C363.507 63.2159 357.072 64.4851 350.736 66.1546C347.136 67.088 314.536 76.3556 313.869 72.8219C313.869 72.0885 346.603 64.8212 349.536 64.2878C356.203 63.021 362.869 62.2209 369.536 61.5542C374.621 60.4928 379.809 60.0008 385.003 60.0874L385.069 60.0874ZM119.467 149.763C119.467 146.829 117.401 141.029 119.934 138.628C122.468 136.228 122.334 136.028 126.068 138.628C128.401 140.295 121.468 163.097 120.401 166.231C118.857 160.882 118.516 155.259 119.401 149.763L119.467 149.763ZM307.936 415.455C306.336 411.854 288.469 379.118 289.202 378.585C288.736 378.918 294.402 384.652 295.135 385.585C296.438 387.65 297.426 389.897 298.069 392.253C298.869 394.586 300.402 392.986 301.469 394.453C302.536 395.92 303.602 397.653 304.802 399.186C306.002 400.72 309.336 402.587 310.402 404.254C312.002 407.321 307.536 414.788 307.869 415.455L307.936 415.455ZM260.402 82.0895C258.735 82.0895 266.602 80.4227 267.669 80.2894C271.869 79.6893 276.069 79.2226 280.269 78.2892C285.669 77.1557 295.336 73.5553 300.669 75.4222C297.992 77.2 295.008 78.4659 291.869 79.1558C288.552 81.0137 284.907 82.2136 281.135 82.6896C278.069 82.2896 275.135 83.6229 272.069 83.4229C269.002 83.2229 264.202 82.4229 260.335 82.0228L260.402 82.0895ZM542.271 301.577C528.409 295.072 515.175 287.305 502.737 278.375C496.47 273.775 490.27 269.041 484.204 264.174C481.737 262.24 479.137 260.307 476.803 258.106C474.47 255.906 468.47 252.239 468.203 249.706C470.07 249.706 473.27 253.573 474.87 254.773L483.804 262.507C490.082 267.604 496.624 272.367 503.404 276.775C510.07 281.175 516.337 285.242 522.937 289.243L533.404 295.91C537.01 297.317 540.364 299.298 543.337 301.777C543.287 301.834 543.226 301.879 543.157 301.911C543.088 301.942 543.013 301.958 542.937 301.958C542.862 301.958 542.787 301.942 542.718 301.911C542.649 301.879 542.587 301.834 542.537 301.777C536.537 298.91 542.337 301.577 542.204 301.511L542.271 301.577ZM177.468 169.831C183.021 176.328 187.808 183.442 191.735 191.033C194.354 194.971 197.227 198.735 200.335 202.301C203.001 205.168 208.468 208.968 209.535 212.902C207.801 212.902 205.535 209.768 204.268 208.702C203.001 207.635 199.402 206.835 197.135 205.368C193.201 202.701 189.401 200.234 189.601 194.567C192.268 196.901 193.801 201.234 197.135 202.701C195.935 196.034 187.735 191.367 185.668 185.166C184.346 182.508 182.877 179.926 181.268 177.432C180.535 175.965 177.401 169.765 177.401 169.765L177.468 169.831ZM298.736 174.832C292.767 170.458 286.299 166.81 279.469 163.964C274.066 162.406 269.033 159.776 264.669 156.23C272.089 156.374 279.337 158.491 285.669 162.364C290.336 165.498 299.002 170.231 301.202 175.698C300.737 175.859 300.231 175.854 299.769 175.684C299.307 175.513 298.919 175.189 298.669 174.765L298.736 174.832ZM74.7339 172.631C75.4632 165.72 77.2859 158.969 80.1339 152.63C81.5674 146.622 83.6461 140.788 86.3339 135.228C84.2672 144.695 80.8674 153.896 79.2007 163.497C78.334 168.498 78.2005 173.698 77.8005 178.765C77.9837 182.985 77.6932 187.212 76.934 191.367C73.734 187.1 75.0005 177.499 74.6671 172.565L74.7339 172.631ZM176.868 154.763C179.135 154.763 183.535 158.897 185.268 160.23C187.861 162.048 190.118 164.304 191.935 166.898C194.135 169.765 196.468 172.498 198.602 175.232C200.735 177.965 205.268 180.432 205.935 182.899C201.001 183.299 192.601 173.698 189.668 170.365C186.735 167.031 184.601 165.097 182.068 162.431C181.468 161.364 176.001 154.63 176.801 154.696L176.868 154.763ZM264.869 222.703C254.604 215.865 244.702 208.499 235.202 200.634C229.868 196.3 224.935 191.433 219.602 187.3C214.305 184.124 209.611 180.039 205.735 175.232C210.135 176.499 214.802 182.232 218.468 185.099L233.935 197.567L249.335 209.635C255.541 213.257 261.198 217.748 266.135 222.97C265.912 223.095 265.65 223.13 265.402 223.068C265.154 223.006 264.94 222.852 264.802 222.636L264.869 222.703ZM152.868 475.26C152.108 472.052 151.905 468.737 152.268 465.46C157.534 470.327 156.401 482.528 156.935 488.928C157.268 493.329 157.534 497.729 157.801 502.263C158.798 506.635 159.246 511.115 159.134 515.598C156.798 508.731 155.429 501.573 155.068 494.329C154.001 487.595 153.401 481.528 152.801 475.194L152.868 475.26ZM325.136 298.243C319.269 294.643 313.536 290.976 307.869 287.042C304.136 284.442 307.869 283.976 305.535 282.175C303.987 280.264 303.016 277.952 302.736 275.508C307.002 276.908 311.469 283.709 314.802 286.776C318.136 289.843 319.602 291.243 321.936 293.443C322.269 294.176 326.869 299.244 325.136 298.243ZM229.335 257.173C229.335 257.706 229.002 258.24 228.735 258.84C223.12 251.145 218.421 242.821 214.735 234.037C212.735 229.904 211.068 225.703 209.202 221.503C208.465 219.654 207.62 217.85 206.668 216.102C205.735 214.502 203.868 213.902 203.735 212.102C207.068 212.635 209.135 218.769 210.402 221.369C213.135 226.637 215.868 231.904 218.668 237.171C220.668 240.905 222.602 244.638 224.668 248.305C225.735 250.039 230.135 255.173 229.335 257.173ZM231.735 183.099C240.468 186.566 249.202 190.1 257.735 194.034C262.135 196.034 266.469 198.101 271.069 200.367C273.802 201.834 278.335 203.234 280.069 205.768C277.335 207.368 270.002 202.101 267.135 200.968C265.469 200.234 259.202 195.034 257.735 196.234C256.269 197.434 245.402 190.233 243.668 189.566C241.935 188.9 238.202 187.233 235.468 185.899C234.735 185.566 229.735 182.299 231.802 183.099L231.735 183.099ZM104.467 120.96C103.879 116.541 103.701 112.077 103.934 107.625C105.867 106.292 108.068 122.293 107.934 123.827C107.838 130.132 106.595 136.368 104.267 142.229C103.79 135.143 103.879 128.031 104.534 120.96L104.467 120.96ZM266.802 205.568C268.535 204.901 270.069 209.768 267.669 210.502C267.069 210.502 261.002 213.635 261.002 211.502C261.002 209.368 260.335 204.435 257.735 203.168C255.135 201.901 248.068 199.834 247.002 196.5C249.535 195.834 255.669 199.234 258.069 200.301C260.469 201.368 264.802 206.301 266.802 205.568ZM385.87 88.7568C377.136 88.3567 368.136 87.2901 359.203 87.6901C353.069 88.0235 342.536 90.6903 337.402 87.09C342.672 86.0553 348.071 85.8529 353.402 86.4899C358.936 86.4899 364.403 86.49 369.936 86.9567C380.561 86.6197 391.193 87.3568 401.67 89.1568C396.377 89.3209 391.08 89.1874 385.803 88.7568L385.87 88.7568ZM141.334 134.895C143.001 136.295 143.668 140.162 144.534 142.162C145.401 144.162 147.134 147.896 148.401 150.763C151.955 156.725 154.628 163.17 156.334 169.898C152.706 165.993 149.795 161.479 147.734 156.563C146.401 152.83 145.134 149.096 143.934 145.296C143.334 143.362 140.334 136.495 141.334 134.628C141.534 134.961 141.268 134.961 141.334 134.828L141.334 134.895ZM122.268 103.025L122.668 102.291C125.201 104.625 125.201 109.825 126.734 112.959C128.173 116.46 128.59 120.298 127.934 124.027C127.053 121.983 125.885 120.075 124.468 118.36C123.334 117.159 121.601 116.893 121.668 114.959C121.934 110.892 122.001 106.959 122.268 102.958L122.268 103.025ZM60.8004 311.645C64.4183 304.826 68.5877 298.315 73.2672 292.176C75.4672 293.376 62.4004 315.378 59.3338 316.645C59.3229 314.871 59.8329 313.132 60.8004 311.645C62.0005 308.778 60.2005 312.912 60.8004 311.578L60.8004 311.645ZM268.202 194.367C273.869 196.701 279.535 199.167 285.135 201.568C288.002 202.768 286.802 206.635 285.135 205.768C280.945 203.7 276.97 201.221 273.269 198.367C270.002 195.767 263.669 195.367 261.269 192.167C263.069 191.633 266.669 193.634 268.402 194.367L268.202 194.367ZM394.336 133.294C392.736 134.161 389.336 132.561 388.136 131.428C390.203 129.227 398.936 130.294 401.936 130.161C406.603 130.161 415.27 127.894 419.336 130.161C412.07 133.628 401.07 129.561 394.336 133.228L394.336 133.294ZM171.068 155.83C168.668 151.963 166.335 148.029 164.401 144.029C163.468 142.295 159.068 136.895 159.601 135.361C162.335 136.828 175.935 154.163 174.735 156.297C173.535 158.43 171.535 156.497 171.068 155.763L171.068 155.83ZM179.401 192.9C177.285 188.04 175.698 182.965 174.668 177.765C173.268 172.365 170.468 167.364 169.268 161.964C172.068 162.297 175.201 175.298 175.935 177.499C176.668 179.699 182.935 190.833 179.935 193.834L179.401 192.9ZM199.802 102.091C192.068 99.8912 184.335 97.691 176.801 94.824C170.337 93.3589 164.266 90.5162 159.001 86.4899C166.535 88.3568 173.868 92.6238 181.201 95.2241C188.535 97.8243 195.801 99.8912 203.135 102.291C202.018 102.47 200.875 102.379 199.802 102.025L199.802 102.091ZM333.136 207.101C328.669 204.034 321.536 202.634 320.136 196.234C321.701 196.171 323.257 196.497 324.665 197.184C326.073 197.87 327.288 198.896 328.202 200.167C329.536 201.568 330.536 203.234 331.869 204.635C331.936 204.501 335.536 208.635 333.202 207.035L333.136 207.101ZM120.868 120.426C120.868 117.36 124.534 124.027 124.734 124.36C126.601 127.494 129.468 130.094 126.468 134.094C125.068 132.228 124.601 129.761 123.001 127.827C120.534 124.827 120.467 125.56 120.934 120.56L120.868 120.426ZM351.003 122.893C357.669 124.294 371.003 124.694 376.203 129.561C370.868 129.278 365.618 128.106 360.669 126.094C355.091 125.214 349.632 123.693 344.403 121.56C346.691 121.675 348.944 122.17 351.069 123.027L351.003 122.893ZM243.068 228.904C240.668 232.237 233.935 219.636 233.935 217.836C236.535 217.836 243.869 226.303 245.269 228.504C244.802 228.77 243.602 228.437 243.135 229.037L243.068 228.904ZM337.336 216.169C334.685 214.046 332.428 211.473 330.669 208.568C334.936 207.501 341.536 215.236 342.336 218.903C340.669 218.903 338.469 217.236 337.336 216.169ZM265.002 225.503C268.135 226.703 287.002 236.438 286.602 239.638C286.602 239.638 276.602 233.637 275.735 232.971L269.602 229.037C269.335 228.837 263.935 225.17 265.068 225.57L265.002 225.503ZM313.336 197.3C313.802 196.9 314.869 198.701 315.936 198.034C318.602 196.3 321.802 202.901 322.069 202.768C320.402 203.568 313.269 199.967 311.802 199.101L313.336 197.3ZM250.669 217.302C244.73 214.245 239.381 210.159 234.868 205.235C237.884 206.477 240.659 208.237 243.068 210.435C245.135 211.969 250.468 214.702 251.402 217.102C251.41 217.185 251.396 217.268 251.362 217.343C251.327 217.419 251.273 217.483 251.205 217.531C251.137 217.578 251.058 217.607 250.975 217.614C250.893 217.62 250.81 217.605 250.735 217.569L250.669 217.302ZM354.469 236.371C351.269 233.171 344.269 226.637 343.402 222.17C348.921 225.714 353.17 230.921 355.536 237.038L354.469 236.371ZM195.668 445.591C194.801 441.924 193.868 438.19 192.735 434.523C192.068 432.256 190.001 428.323 190.535 425.856C192.429 428.534 193.745 431.576 194.401 434.79C194.801 437.19 197.468 444.458 196.135 446.458L195.668 445.591ZM356.603 229.104C354.069 228.57 354.736 230.037 354.336 231.77C352.425 229.805 350.828 227.556 349.603 225.103C351.136 224.236 357.203 227.903 358.203 229.104C357.999 229.324 357.716 229.455 357.416 229.468C357.116 229.48 356.824 229.373 356.603 229.17L356.603 229.104ZM159.334 349.115L159.801 348.448C162.404 352.859 164.061 357.764 164.668 362.85C162.334 361.316 158.001 352.249 159.334 349.315L159.334 349.115ZM221.135 197.434C218.135 195.567 210.202 191.567 209.202 188.033C211.868 188.033 215.535 191.633 217.468 193.233C218.002 193.7 223.202 198.701 221.135 197.434C217.535 195.367 221.335 197.701 221.135 197.634L221.135 197.434ZM204.535 118.893C207.135 119.893 215.668 121.36 217.135 123.627C213.202 124.96 199.601 119.026 196.401 116.559C198.135 115.826 202.668 118.226 204.535 118.893ZM168.268 159.63C166.697 156.105 165.447 152.446 164.535 148.696C166.785 151.46 168.771 154.429 170.468 157.563C170.868 158.297 170.468 158.764 169.468 158.83C168.468 158.897 168.535 160.497 168.268 159.63ZM463.07 329.113C465.137 328.246 469.337 334.647 469.737 336.114C468.403 335.914 460.137 330.38 463.07 329.113ZM213.868 185.566C218.028 187.766 221.701 190.782 224.668 194.434C222.135 193.536 219.85 192.051 218.002 190.1C216.538 188.669 215.158 187.155 213.868 185.566ZM365.736 248.705C363.669 246.772 358.469 242.838 358.003 239.971C361.645 242.2 364.634 245.351 366.669 249.105L365.736 248.705ZM95.2675 352.649C95.8572 358.657 95.8572 364.709 95.2675 370.717C94.6205 364.801 94.6205 358.832 95.2675 352.915L95.2675 352.649ZM174.268 148.696C173.135 148.163 168.068 144.095 169.668 142.495C170.535 143.629 175.335 149.496 174.268 148.963L174.268 148.696Z" fill="#17171D" fill-opacity="0.2"/>
</svg>
