<svg width="14" height="16" viewBox="0 0 14 16" fill="none" xmlns="http://www.w3.org/2000/svg">
<path d="M12.9996 11.4817V13.5893C13.0003 13.7849 12.9659 13.9786 12.8986 14.1578C12.8313 14.3371 12.7325 14.498 12.6087 14.6303C12.4849 14.7626 12.3387 14.8633 12.1795 14.9259C12.0203 14.9886 11.8517 15.0119 11.6843 14.9943C9.82768 14.7594 8.04426 14.0207 6.47734 12.8376C5.01953 11.759 3.78356 10.3198 2.8572 8.62243C1.83752 6.78969 1.20294 4.70306 1.0049 2.53156C0.98982 2.33729 1.00965 2.1415 1.06312 1.95664C1.11659 1.77178 1.20254 1.60191 1.31548 1.45785C1.42843 1.31378 1.5659 1.19868 1.71915 1.11986C1.87239 1.04105 2.03805 1.00025 2.20558 1.00007H4.01565C4.30846 0.996713 4.59233 1.11744 4.81435 1.33976C5.03636 1.56208 5.18138 1.87081 5.22236 2.20841C5.29876 2.88287 5.44044 3.54511 5.64471 4.18249C5.72589 4.43394 5.74346 4.70721 5.69534 4.96993C5.64721 5.23265 5.53542 5.4738 5.3732 5.66481L4.60694 6.55701C5.46585 8.31581 6.71655 9.77206 8.22708 10.7721L8.99334 9.87994C9.15739 9.69106 9.3645 9.56089 9.59013 9.50486C9.81577 9.44883 10.0505 9.46929 10.2664 9.5638C10.8138 9.80164 11.3826 9.96662 11.9619 10.0556C12.2549 10.1037 12.5226 10.2756 12.714 10.5386C12.9053 10.8015 13.007 11.1372 12.9996 11.4817Z" stroke="#26262C" stroke-width="1.3" stroke-linecap="round" stroke-linejoin="round"/>
</svg>
