<svg width="14" height="15" viewBox="0 0 14 15" fill="none" xmlns="http://www.w3.org/2000/svg">
<path d="M13.3469 10.906V12.9678C13.3476 13.1592 13.3111 13.3487 13.2398 13.524C13.1684 13.6994 13.0638 13.8568 12.9326 13.9862C12.8014 14.1156 12.6464 14.2141 12.4777 14.2754C12.309 14.3367 12.1303 14.3595 11.9529 14.3423C9.98531 14.1125 8.09527 13.3899 6.43467 12.2324C4.88971 11.1773 3.57985 9.76946 2.59811 8.10894C1.51747 6.31605 0.84496 4.27478 0.635073 2.15049C0.619094 1.96044 0.640108 1.7689 0.696778 1.58806C0.753447 1.40722 0.84453 1.24105 0.964228 1.10011C1.08393 0.959182 1.22962 0.84658 1.39202 0.769479C1.55443 0.692379 1.72999 0.652468 1.90753 0.652288H3.82581C4.13613 0.649006 4.43697 0.767113 4.67226 0.984596C4.90755 1.20208 5.06124 1.5041 5.10467 1.83436C5.18563 2.49416 5.33579 3.14201 5.55227 3.76553C5.6383 4.01151 5.65692 4.27884 5.60592 4.53585C5.55492 4.79286 5.43644 5.02877 5.26452 5.21562L4.45245 6.08843C5.36271 7.80899 6.68818 9.23359 8.28901 10.2119L9.10109 9.33912C9.27494 9.15434 9.49443 9.02701 9.73356 8.97219C9.97268 8.91738 10.2214 8.93739 10.4503 9.02986C11.0304 9.26253 11.6332 9.42391 12.2471 9.51093C12.5577 9.55803 12.8413 9.72618 13.0441 9.98341C13.2469 10.2406 13.3547 10.569 13.3469 10.906Z" stroke="#26262C" stroke-linecap="round" stroke-linejoin="round"/>
</svg>
