<svg width="51" height="53" viewBox="0 0 51 53" fill="none" xmlns="http://www.w3.org/2000/svg">
<path d="M2.27248 43.4773C2.27248 43.793 2.67209 43.9169 4.13817 43.9169C5.75086 43.9169 5.95456 43.8112 5.95456 43.6143C5.95456 43.4042 5.84428 43.2986 3.90464 43.2373C1.28904 43.1512 0.593624 42.7168 0.593624 41.7581C0.593624 40.7368 1.51739 40.2046 4.01622 40.2046C6.67592 40.2046 7.51276 40.5385 7.51276 41.6159C7.51276 41.7085 7.51276 41.8012 7.50627 41.9068C7.32204 41.8951 6.99509 41.8885 6.68111 41.8885C6.35546 41.8885 6.02851 41.8951 5.84428 41.9068V41.7894C5.84428 41.4738 5.62242 41.3681 3.99156 41.3681C2.48915 41.3681 2.26859 41.4607 2.26859 41.6472C2.26859 41.8325 2.38536 41.9133 4.44826 42.019C6.89259 42.1429 7.6425 42.5016 7.6425 43.5412C7.6425 44.6238 6.7875 45.1443 4.15893 45.1443C1.47457 45.1443 0.558594 44.693 0.558594 43.7512C0.558594 43.6403 0.565081 43.5216 0.583245 43.399C0.798617 43.4238 1.12427 43.4421 1.43305 43.4421C1.74703 43.4421 2.04284 43.4356 2.27638 43.4238V43.4773H2.27248Z" fill="#221D19"/>
<path d="M15.7115 44.9942C15.7361 44.3316 15.7543 43.6885 15.7608 42.9215C15.7608 42.6059 15.7854 42.2654 15.8036 41.938L15.7608 41.9263C15.6064 42.2354 15.4351 42.5576 15.2249 42.8302L13.5993 44.9968H12.7559L10.9344 42.5589C10.7307 42.2863 10.5529 41.9654 10.3985 41.668L10.3557 41.6797C10.3739 42.0019 10.3985 42.3228 10.405 42.6763C10.4115 43.5424 10.4297 44.2663 10.466 44.9968H8.81567C8.852 44.329 8.86498 43.6533 8.86498 42.6698C8.86498 41.655 8.8533 40.961 8.83384 40.3545H11.308C11.6466 40.8554 12.1513 41.6106 12.7858 42.5328C12.9518 42.7676 13.1309 43.0337 13.3034 43.3063H13.3398C13.5058 43.0272 13.6654 42.7611 13.8198 42.5328C14.4101 41.6484 14.9641 40.8436 15.2976 40.3545H17.4824C17.4643 40.961 17.4461 41.6537 17.4461 42.6698C17.4461 43.6533 17.4526 44.329 17.4954 44.9968H15.7115V44.9942Z" fill="#221D19"/>
<path d="M24.6059 44.994C24.5501 44.8584 24.4022 44.5545 24.1998 44.1775C23.5602 44.171 22.9128 44.171 22.4211 44.171C21.9722 44.171 21.3131 44.171 20.6916 44.1775C20.4827 44.5297 20.3167 44.8271 20.2362 44.994H18.2109C19.0906 43.7692 20.7967 41.1696 21.1963 40.353H23.7574C24.1765 41.1696 25.8813 43.7379 26.7986 44.994H24.6059ZM22.0396 41.9548C21.8307 42.2887 21.5907 42.6787 21.3559 43.0688C21.7438 43.0753 22.1317 43.0753 22.4276 43.0753C22.748 43.0753 23.1658 43.0753 23.5849 43.0688C23.3565 42.6722 23.1165 42.277 22.9011 41.9418C22.7104 41.6509 22.5755 41.4096 22.4704 41.2178L22.0396 41.9548Z" fill="#221D19"/>
<path d="M32.7537 43.0934C33.8305 43.199 34.3236 43.3725 34.5208 44.0769C34.631 44.4786 34.7296 44.8139 34.8101 44.9926H33.2778C33.0015 44.9926 32.9522 44.9313 32.7978 44.3247C32.6629 43.7795 32.4592 43.6804 31.3395 43.6804H29.1365C29.1482 44.206 29.1728 44.6586 29.2104 44.9926H27.4498C27.4615 44.3182 27.4745 43.6686 27.4745 42.6721C27.4745 41.6886 27.468 41.0194 27.4498 40.3516H32.0297C33.6982 40.3516 34.4792 40.7911 34.4792 41.7316C34.4792 42.5299 33.9616 42.9382 32.7563 43.0686V43.0934H32.7537ZM31.4913 42.5247C32.4825 42.5247 32.8393 42.3577 32.8393 42.0173C32.8393 41.6651 32.489 41.5464 31.5095 41.5464C31.0411 41.5464 29.7307 41.5529 29.1092 41.5712C29.1092 41.8868 29.1092 42.2025 29.1157 42.5051C29.5594 42.5247 30.5001 42.5247 31.4913 42.5247Z" fill="#221D19"/>
<path d="M41.7212 40.3516C41.7095 40.5316 41.7095 40.8029 41.7095 41.0442C41.7095 41.279 41.7095 41.5699 41.7212 41.7681C40.8662 41.7433 40.0164 41.7433 39.2768 41.7433C39.2768 43.2969 39.2833 44.6391 39.3015 44.9991C39.0744 44.9808 38.6917 44.9808 38.4335 44.9808C38.1753 44.9808 37.8121 44.9808 37.5655 44.9991C37.5837 44.6404 37.5967 43.3034 37.5967 41.7433C36.8584 41.7433 36.0086 41.7433 35.1523 41.7681C35.1588 41.5699 35.1588 41.2855 35.1588 41.0442C35.1588 40.8029 35.1588 40.5368 35.1523 40.3516H41.7212Z" fill="#221D19"/>
<path d="M4.45421 52.6282C1.58562 52.6282 0.410156 51.6004 0.410156 50.0847C0.410156 48.5064 1.70887 47.5659 4.45421 47.5659C7.19955 47.5659 8.49827 48.5064 8.49827 50.0847C8.49827 51.6017 7.32281 52.6282 4.45421 52.6282ZM6.76881 50.0912C6.76881 49.3294 6.172 48.9094 4.45421 48.9094C2.73643 48.9094 2.13962 49.3308 2.13962 50.0912C2.13962 50.8399 2.72994 51.286 4.45421 51.286C6.18497 51.286 6.76881 50.8399 6.76881 50.0912Z" fill="#221D19"/>
<path d="M14.9125 50.5187C15.9894 50.6243 16.4824 50.7978 16.6796 51.5022C16.7899 51.9039 16.8885 52.2392 16.9689 52.4179H15.4367C15.1603 52.4179 15.111 52.3565 14.9566 51.75C14.8217 51.2048 14.618 51.1056 13.4983 51.1056H11.2953C11.307 51.6313 11.3316 52.0839 11.3692 52.4179H9.60864C9.62032 51.7435 9.63329 51.0939 9.63329 50.0974C9.63329 49.1139 9.62681 48.4447 9.60864 47.7769H14.1885C15.857 47.7769 16.6381 48.2164 16.6381 49.1569C16.6381 49.9552 16.1204 50.3634 14.9151 50.4939V50.5187H14.9125ZM13.6501 49.95C14.6413 49.95 14.9981 49.783 14.9981 49.4426C14.9981 49.0904 14.6478 48.9717 13.6683 48.9717C13.1999 48.9717 11.8895 48.9782 11.268 48.9965C11.268 49.3121 11.268 49.6278 11.2745 49.9304C11.7182 49.95 12.6602 49.95 13.6501 49.95Z" fill="#221D19"/>
<path d="M23.5279 52.4188C23.4721 52.2832 23.3242 51.9792 23.1218 51.6023C22.4822 51.5958 21.8348 51.5958 21.3431 51.5958C20.8942 51.5958 20.2351 51.5958 19.6136 51.6023C19.4047 51.9545 19.2386 52.2519 19.1582 52.4188H17.1329C18.0126 51.194 19.7187 48.5944 20.1183 47.7778H22.6794C23.0985 48.5944 24.8033 51.1627 25.7205 52.4188H23.5279ZM20.9616 49.3796C20.7527 49.7135 20.5127 50.1035 20.2779 50.4936C20.6658 50.5001 21.0537 50.5001 21.3495 50.5001C21.67 50.5001 22.0878 50.5001 22.5068 50.4936C22.2785 50.097 22.0385 49.7018 21.8231 49.3666C21.6324 49.0757 21.4975 48.8344 21.3924 48.6426L20.9616 49.3796Z" fill="#221D19"/>
<path d="M33.7835 47.7773C33.7653 48.3474 33.7588 49.1078 33.7588 50.0926C33.7588 51.114 33.7588 51.8001 33.7705 52.4197H32.0164C31.6531 52.0049 29.7394 50.6926 28.6807 49.9505C28.4225 49.7652 28.1579 49.5787 27.9425 49.3817C27.9671 49.7535 27.9736 50.1239 27.9853 50.5022C27.9918 51.4609 27.997 52.1353 28.0164 52.421H26.4336C26.4336 51.7962 26.4518 51.0905 26.4518 50.1005C26.4518 49.1169 26.4518 48.4113 26.4336 47.78H28.4407C28.6678 48.0774 30.7799 49.5865 31.7219 50.2374C31.9437 50.3861 32.1656 50.5035 32.3317 50.664C32.307 50.3235 32.2953 49.9961 32.2953 49.7418C32.2953 48.8822 32.2772 48.1087 32.2525 47.78H33.7835V47.7773Z" fill="#221D19"/>
<path d="M38.9905 52.5678C36.3995 52.5678 34.8906 51.8191 34.8906 50.0673C34.8906 48.2229 36.4605 47.6294 38.8984 47.6294C41.2246 47.6294 42.6648 48.0129 42.6648 49.3994C42.6648 49.4425 42.6648 49.4921 42.6583 49.5351C42.474 49.5221 42.1471 49.5168 41.8331 49.5168C41.4945 49.5168 41.174 49.5234 40.9833 49.5351C40.9833 49.5103 40.9898 49.4855 40.9898 49.4608C40.9898 49.0277 40.4047 48.8907 38.8906 48.8907C37.2896 48.8907 36.6253 49.2194 36.6253 50.0973C36.6253 50.8956 37.2467 51.3221 38.9892 51.3221C40.2879 51.3221 40.8601 51.1238 41.0261 50.7038C40.1711 50.7038 39.019 50.7104 38.2561 50.7286C38.2626 50.636 38.2626 50.4377 38.2626 50.3451C38.2626 50.1782 38.2626 50.0295 38.2561 49.9121C39.2538 49.9303 40.2749 49.9251 41.0196 49.9251C41.475 49.9251 42.0602 49.9316 42.67 49.9121C42.7828 51.583 42.3638 52.5678 38.9905 52.5678Z" fill="#221D19"/>
<path d="M50.4558 47.7773C50.4493 47.913 50.4441 48.1295 50.4441 48.3226C50.4441 48.5208 50.4441 48.7439 50.4558 48.873C49.1752 48.8665 46.8606 48.8613 45.7098 48.8613V49.5735C47.0397 49.5735 49.3595 49.5735 50.3883 49.5552C50.3818 49.7965 50.3766 50.2922 50.3818 50.5518C49.3724 50.54 47.0267 50.527 45.7098 50.527V51.2509C46.8606 51.2509 49.2557 51.2444 50.4558 51.2392C50.4441 51.3879 50.4441 51.6227 50.4441 51.8392C50.4441 52.0375 50.4441 52.2657 50.4558 52.421H43.9492C43.9739 51.7896 43.9739 51.0905 43.9739 50.1005C43.9739 49.1169 43.9739 48.4048 43.9492 47.78H50.4558V47.7773Z" fill="#221D19"/>
<path d="M8.30637 27.9181C7.94958 27.9181 7.61355 27.8777 7.29957 27.7942C6.22531 27.5073 5.47799 26.7233 5.13418 25.5246C2.4083 23.4167 0.789119 20.4401 0.57245 17.1361C0.335022 13.5282 1.75699 9.98676 4.57629 7.16407L4.76312 6.97754L4.83318 7.23189C5.91652 11.1868 11.5343 18.0361 17.3546 22.501L17.4947 22.608L17.3701 22.7332C14.0864 26.0229 10.7325 27.9181 8.30637 27.9181ZM4.61132 7.56712C1.97756 10.2959 0.65289 13.6769 0.878641 17.1152C1.09012 20.3462 2.68205 23.2563 5.36123 25.3107L5.40274 25.342L5.41572 25.3916C5.7258 26.5225 6.38619 27.2307 7.37742 27.4942C7.67063 27.5725 7.9872 27.6103 8.32194 27.6103C10.6262 27.6103 13.8412 25.7933 17.0276 22.6367C11.3332 18.2318 5.86073 11.5768 4.61132 7.56712Z" fill="#221D19"/>
<path d="M7.53948 27.8325C4.56709 25.5524 1.69461 22.041 1.13672 20.0036L1.43253 19.9214C1.97615 21.9041 4.79933 25.3424 7.72501 27.5873L7.53948 27.8325Z" fill="#221D19"/>
<path d="M11.8427 26.8243C6.77371 22.9359 1.87725 16.954 0.928833 13.487L1.22464 13.4048C2.15879 16.8158 7.00594 22.7259 12.0296 26.5791L11.8427 26.8243Z" fill="#221D19"/>
<path d="M5.21107 25.5777C3.63341 24.9242 2.6344 23.7463 2.32172 22.168C1.74826 19.2736 3.50626 15.4426 7.02357 11.9194L7.24024 12.1373C3.79559 15.5874 2.07002 19.314 2.62272 22.1067C2.91334 23.578 3.85008 24.6789 5.32784 25.2907L5.21107 25.5777Z" fill="#221D19"/>
<path d="M4.72065 25.8144C4.63761 25.8144 4.56885 25.7871 4.51825 25.7218C4.41316 25.5836 4.23671 25.354 6.22176 23.0518C7.49194 21.5778 9.32908 19.633 11.5321 17.4272L11.7488 17.6451C6.84322 22.5587 4.94121 24.9679 4.78552 25.4962C4.85039 25.4779 4.97235 25.4283 5.18902 25.3018L5.34341 25.5679C5.11636 25.6997 4.89061 25.8144 4.72065 25.8144Z" fill="#221D19"/>
<path d="M14.1637 28.4609C12.5808 28.4609 11.0123 28.2352 9.52541 27.7774C8.70415 27.9561 7.95424 27.9665 7.30293 27.793C6.2131 27.5021 5.4606 26.6999 5.12457 25.4738L5.00391 25.0329L5.36589 25.3108C6.62438 26.276 8.04376 26.9921 9.54877 27.463C11.7349 26.9621 14.4608 25.2156 17.1581 22.5142L17.2528 22.4189L17.3592 22.5011C19.8049 24.3768 21.559 25.3147 22.7967 25.7556C23.8697 25.106 24.8739 24.3273 25.7769 23.422L25.9637 23.2355L26.0338 23.4898C26.484 25.1347 26.0442 25.8443 25.5953 26.1482C25.0049 26.5486 24.0526 26.5186 22.8292 26.0934C20.1863 27.6587 17.149 28.4609 14.1637 28.4609ZM10.1067 27.6274C14.1248 28.7126 18.6826 28.1152 22.4542 25.9564C21.018 25.3903 19.2496 24.3312 17.2775 22.8285C14.7748 25.3134 12.237 26.9869 10.1067 27.6274ZM5.57088 25.8456C5.92118 26.7143 6.52837 27.2687 7.38078 27.4956C7.84136 27.6182 8.35514 27.643 8.91433 27.5752C7.72719 27.1526 6.60103 26.5773 5.57088 25.8456ZM23.1769 25.8808C24.6209 26.3138 25.2488 26.0112 25.4214 25.8938C26.0156 25.4908 25.9754 24.5947 25.8002 23.829C24.9932 24.6103 24.1123 25.2951 23.1769 25.8808Z" fill="#221D19"/>
<path d="M11.3055 29.7034C10.4648 29.7034 9.12582 29.046 7.54297 27.8317L7.7285 27.5864C9.98082 29.3147 11.2808 29.5874 11.7103 29.2965C12.0074 29.0943 11.9438 28.5934 11.8387 28.2086L12.1345 28.1264C12.3746 29.0004 12.1293 29.3839 11.8828 29.5521C11.7323 29.6539 11.5377 29.7034 11.3055 29.7034Z" fill="#221D19"/>
<path d="M18.2037 30.0087C16.8012 30.0087 14.5372 28.8882 11.8438 26.8234L12.0293 26.5781C15.2391 29.0395 17.9637 30.19 18.9679 29.5065C19.5297 29.1256 19.4207 28.219 19.2313 27.5251L19.5271 27.4429C19.9189 28.8751 19.5336 29.4947 19.1404 29.7621C18.8965 29.9278 18.5812 30.0087 18.2037 30.0087Z" fill="#221D19"/>
<path d="M13.3737 29.9619C13.0572 29.9619 12.7406 29.9476 12.4266 29.9176C9.47759 29.6411 6.89183 28.0797 5.14551 25.5205L5.3985 25.3457C7.09293 27.828 9.59955 29.3423 12.4565 29.6097C15.8324 29.9267 19.3964 28.4762 22.2364 25.6314L22.4531 25.8492C19.8102 28.4958 16.5485 29.9619 13.3737 29.9619Z" fill="#221D19"/>
<path d="M15.821 30.1967C15.764 30.1967 15.7069 30.1967 15.6498 30.1954C11.6979 30.1485 7.97166 28.4945 5.16016 25.5388L5.38201 25.3262C8.13644 28.2206 11.7848 29.8406 15.655 29.8876C15.7108 29.8876 15.7666 29.8889 15.8236 29.8889C19.424 29.8889 22.7934 28.4971 25.3285 25.9575L25.5452 26.1753C22.9491 28.7737 19.5031 30.1967 15.821 30.1967Z" fill="#221D19"/>
<path d="M14.1604 28.4606C10.9117 28.4606 7.72263 27.5097 5.1745 25.5558L5.13298 25.5245L5.12001 25.4749C4.0159 21.4443 7.6383 13.6376 13.1964 8.07178L13.2912 7.97656L13.3975 8.05874C19.2645 12.5589 24.9303 19.4812 26.0292 23.4909L26.0526 23.577L25.989 23.6409C22.8207 26.8132 18.438 28.4606 14.1604 28.4606ZM5.40155 25.3431C11.166 29.7285 20.244 28.895 25.7088 23.487C24.5748 19.5438 19.0582 12.8197 13.3184 8.38614C7.90686 13.8515 4.37399 21.4169 5.40155 25.3431Z" fill="#221D19"/>
<path d="M11.8355 28.208C11.2918 26.2253 8.46995 22.7869 5.54297 20.5421L5.7285 20.2969C8.70089 22.5769 11.5721 26.0883 12.1313 28.1258L11.8355 28.208Z" fill="#221D19"/>
<path d="M19.2307 27.525C18.2965 24.114 13.4494 18.2038 8.42578 14.3507L8.61131 14.1055C13.6803 17.9938 18.5755 23.9758 19.5252 27.4428L19.2307 27.525Z" fill="#221D19"/>
<path d="M8.37145 26.1372C7.20248 26.1372 6.13081 25.9559 5.21094 25.575L5.32771 25.2907C9.77266 27.1298 17.8465 24.1585 23.3294 18.667L23.5461 18.8848C19.1089 23.3289 12.9786 26.1372 8.37145 26.1372Z" fill="#221D19"/>
<path d="M5.3458 25.5662L5.19141 25.3001C7.18943 24.13 13.3016 18.6829 18.8169 13.1602L19.0336 13.378C13.5027 18.9177 7.36329 24.3857 5.3458 25.5662Z" fill="#221D19"/>
<path d="M5.53622 25.8347L5.17424 25.5569C2.42501 23.4477 0.790258 20.4567 0.572291 17.1371C0.337458 13.5565 1.73608 10.0412 4.51255 7.22767C4.10127 5.64415 4.53331 4.95543 4.97443 4.65542C6.2978 3.7567 9.44664 5.02848 13.396 8.05857L13.5361 8.16553L13.4115 8.29075C7.92476 13.7874 4.3374 21.4598 5.41426 25.3938L5.53622 25.8347ZM6.05648 4.69847C5.52843 4.69847 5.25338 4.83934 5.14699 4.91108C4.48401 5.3611 4.60986 6.42156 4.83172 7.23289L4.85507 7.31898L4.7915 7.38289C2.03708 10.143 0.646244 13.5996 0.877185 17.1162C1.07958 20.2076 2.54696 23.0068 5.02114 25.043C4.27512 20.9394 7.77556 13.5605 13.0703 8.19683C9.23645 5.27892 7.12685 4.69847 6.05648 4.69847Z" fill="#221D19"/>
<path d="M5.54342 20.5427C3.2911 18.8157 1.99109 18.5417 1.56164 18.8326C1.26453 19.0348 1.3281 19.5357 1.43319 19.9205L1.13738 20.0027C0.897361 19.1287 1.14257 18.7452 1.38908 18.577C2.08709 18.1035 3.70887 18.7465 5.72895 20.2974L5.54342 20.5427Z" fill="#221D19"/>
<path d="M8.42309 14.3528C5.21327 11.8914 2.49129 10.7409 1.48449 11.4244C0.922708 11.8053 1.03169 12.7118 1.22111 13.4058L0.925303 13.488C0.533482 12.0557 0.918816 11.4362 1.31323 11.1688C2.46404 10.3874 5.19252 11.4857 8.60992 14.1075L8.42309 14.3528Z" fill="#221D19"/>
<path d="M5.14048 25.5218C1.2093 19.763 2.54435 10.537 8.11547 4.95557L8.33214 5.1734C2.85962 10.6544 1.54144 19.7043 5.39348 25.347L5.14048 25.5218Z" fill="#221D19"/>
<path d="M5.15826 25.5418C-0.495893 19.6016 -0.554277 10.2205 5.02592 4.62988L5.24259 4.84771C-0.220839 10.3196 -0.159861 19.5077 5.38012 25.3279L5.15826 25.5418Z" fill="#221D19"/>
<path d="M17.2731 22.8285L17.1667 22.7464C11.2998 18.2462 5.63399 11.3239 4.53507 7.31418L4.51172 7.22809L4.57529 7.16418C10.149 1.58141 19.4865 0.721821 25.3885 5.24934L25.43 5.28065L25.443 5.33021C26.5471 9.36076 22.9247 17.1675 17.3678 22.732L17.2731 22.8285ZM4.85424 7.3194C5.98818 11.2626 11.5048 17.9867 17.2459 22.4203C22.6561 16.9549 26.189 9.38946 25.1602 5.46326C19.3957 1.07792 10.319 1.91142 4.85424 7.3194Z" fill="#221D19"/>
<path d="M21.95 16.6978C16.881 12.8095 11.9858 6.82755 11.0361 3.3605L11.3319 3.27832C12.2661 6.68929 17.1132 12.5995 22.1369 16.4513L21.95 16.6978Z" fill="#221D19"/>
<path d="M24.8326 10.5092C21.8602 8.22918 18.9877 4.71647 18.4298 2.68032L18.7256 2.59814C19.2692 4.58081 22.0911 8.01917 25.0181 10.264L24.8326 10.5092Z" fill="#221D19"/>
<path d="M7.23669 12.1372L7.02002 11.9194C12.5821 6.34835 20.8064 3.34826 25.3539 5.23049L25.2371 5.51615C20.7934 3.67566 12.7183 6.64575 7.23669 12.1372Z" fill="#221D19"/>
<path d="M11.7479 17.6454L11.5312 17.4276C17.0609 11.8892 23.2002 6.42119 25.2177 5.24072L25.3721 5.50682C23.3728 6.67685 17.262 12.1214 11.7479 17.6454Z" fill="#221D19"/>
<path d="M24.5156 26.4329C22.899 26.4329 20.2821 25.1363 17.167 22.748L17.0269 22.641L17.1514 22.5158C22.6382 17.0204 26.2256 9.34805 25.1474 5.41403L25.0267 4.97314L25.3887 5.25098C28.1379 7.36017 29.7727 10.3511 29.9907 13.6708C30.2255 17.2513 28.8269 20.7666 26.0504 23.5789C26.4617 25.1624 26.0296 25.8511 25.5885 26.1511C25.3096 26.3403 24.9489 26.4329 24.5156 26.4329ZM17.4939 22.6084C23.222 26.9651 25.0981 26.1107 25.4186 25.8942C26.0815 25.4442 25.9557 24.3837 25.7338 23.5724L25.7105 23.4863L25.7741 23.4224C28.5285 20.6636 29.918 17.207 29.6871 13.6904C29.4847 10.599 28.0173 7.79975 25.5431 5.7636C26.2891 9.8685 22.7887 17.2461 17.4939 22.6084Z" fill="#221D19"/>
<path d="M28.3123 19.8841C26.9098 19.8841 24.6458 18.7637 21.9524 16.6988L22.1379 16.4536C25.3477 18.915 28.071 20.0655 29.0765 19.382C29.6383 19.0011 29.5293 18.0945 29.3399 17.4006L29.6357 17.3184C30.0275 18.7506 29.6422 19.3702 29.2491 19.6376C29.0052 19.802 28.6899 19.8841 28.3123 19.8841Z" fill="#221D19"/>
<path d="M28.5977 12.3822C27.757 12.3822 26.4181 11.7247 24.8352 10.5104L25.0207 10.2651C27.2731 11.9921 28.5731 12.2661 29.0025 11.9752C29.2996 11.773 29.2361 11.2721 29.131 10.8873L29.4268 10.8052C29.6668 11.6791 29.4216 12.0626 29.1751 12.2308C29.0233 12.3313 28.83 12.3822 28.5977 12.3822Z" fill="#221D19"/>
<path d="M22.4469 25.8506L22.2302 25.6328C27.7027 20.1517 29.0209 11.1019 25.1689 5.46043L25.4219 5.28564C29.3531 11.0445 28.0193 20.2691 22.4469 25.8506Z" fill="#221D19"/>
<path d="M25.542 26.1754L25.3253 25.9576C30.7875 20.4857 30.7265 11.2989 25.1865 5.47873L25.4084 5.26611C31.0625 11.2063 31.1222 20.5861 25.542 26.1754Z" fill="#221D19"/>
<path d="M25.8012 23.8277L25.7311 23.5734C24.6478 19.6185 19.0299 12.7691 13.2097 8.30423L13.0696 8.19727L13.1941 8.07205C16.9605 4.29977 20.8191 2.36014 23.2634 3.01234C24.3377 3.2993 25.0863 4.08324 25.4288 5.28197C28.1547 7.38985 29.7739 10.3665 29.9905 13.6705C30.2267 17.2771 28.806 20.8185 25.988 23.6412L25.8012 23.8277ZM13.5354 8.16596C19.2297 12.5735 24.7035 19.2272 25.953 23.2381C28.5867 20.5107 29.9101 17.1297 29.6843 13.6913C29.4716 10.4604 27.8809 7.55029 25.2018 5.49589L25.1602 5.46458L25.1473 5.41501C24.8372 4.28411 24.1768 3.57583 23.1856 3.31234C20.871 2.69276 17.185 4.55151 13.5354 8.16596Z" fill="#221D19"/>
<path d="M29.339 17.4C28.4048 13.989 23.5577 8.07885 18.5341 4.22569L18.7196 3.98047C23.7886 7.86884 28.6838 13.8507 29.6335 17.3178L29.339 17.4Z" fill="#221D19"/>
<path d="M29.1277 10.8857C28.5841 8.90304 25.7609 5.46468 22.8352 3.21983L23.0207 2.97461C25.9931 5.25467 28.8656 8.76608 29.4235 10.8035L29.1277 10.8857Z" fill="#221D19"/>
<path d="M23.5431 18.8861L23.3264 18.6682C26.7698 15.2194 28.4953 11.4928 27.9426 8.70013C27.652 7.22879 26.7166 6.12788 25.2375 5.51613L25.3543 5.23047C26.9319 5.88397 27.931 7.06183 28.2436 8.64013C28.8171 11.5333 27.0591 15.3642 23.5431 18.8861Z" fill="#221D19"/>
<path d="M19.0322 13.3788L18.8156 13.161C23.7198 8.24868 25.6218 5.83948 25.7775 5.3112C25.7126 5.32946 25.5907 5.37903 25.374 5.50556L25.2196 5.23946C25.5582 5.0412 25.8917 4.88597 26.0448 5.08554C26.1499 5.22381 26.3263 5.45338 24.3413 7.75562C23.0711 9.22827 21.2352 11.1731 19.0322 13.3788Z" fill="#221D19"/>
<path d="M13.3147 8.38486L13.2083 8.30269C10.7639 6.42698 9.00853 5.48913 7.77079 5.04825C6.69783 5.69783 5.69363 6.47655 4.78933 7.38179L4.6025 7.56832L4.53244 7.31396C4.08223 5.66913 4.52206 4.95955 4.97096 4.65563C5.56129 4.25518 6.51359 4.28518 7.73706 4.71041C11.7759 2.31817 16.7463 1.70772 21.0382 3.02775C21.8608 2.84905 22.6107 2.83862 23.2607 3.0121C24.3505 3.30298 25.1043 4.10518 25.4403 5.3313L25.561 5.77218L25.199 5.49435C23.9405 4.5291 22.5212 3.813 21.0161 3.34211C18.83 3.843 16.1041 5.58957 13.4081 8.28964L13.3147 8.38486ZM8.11072 4.84868C9.54696 5.41478 11.3153 6.47394 13.2874 7.97659C15.7888 5.49174 18.3266 3.81821 20.457 3.17906C16.4401 2.09382 11.8823 2.69122 8.11072 4.84868ZM6.05301 4.69737C5.52496 4.69737 5.24991 4.83824 5.14352 4.90998C4.5493 5.31304 4.58952 6.20915 4.76467 6.97482C5.57167 6.1935 6.45391 5.51 7.38935 4.92303C6.82757 4.75476 6.38904 4.69737 6.05301 4.69737ZM21.6506 3.22993C22.8364 3.65256 23.9626 4.22779 24.994 4.95955C24.6437 4.09083 24.0365 3.53647 23.1841 3.3095C22.7235 3.18689 22.2085 3.16211 21.6506 3.22993Z" fill="#221D19"/>
<path d="M18.5286 4.22679C15.3188 1.76541 12.5942 0.614944 11.59 1.29844C11.0282 1.67932 11.1372 2.58587 11.3266 3.2798L11.0308 3.36198C10.639 1.92976 11.0243 1.31018 11.4174 1.04278C12.5682 0.261456 15.2967 1.35975 18.7141 3.98156L18.5286 4.22679Z" fill="#221D19"/>
<path d="M22.8333 3.21858C20.581 1.49157 19.2797 1.21765 18.8516 1.50983C18.5544 1.71201 18.618 2.2129 18.7231 2.59769L18.4273 2.67987C18.1873 1.80593 18.4325 1.42244 18.679 1.25418C19.3757 0.781988 20.9975 1.42375 23.0189 2.97466L22.8333 3.21858Z" fill="#221D19"/>
<path d="M25.1666 5.45953C23.4721 2.97729 20.9655 1.4629 18.1086 1.1955C14.7314 0.879835 11.1687 2.32901 8.32995 5.17387L8.11328 4.95604C11.0182 2.04726 14.6717 0.565478 18.1371 0.888965C21.0862 1.16549 23.6719 2.72684 25.4196 5.28605L25.1666 5.45953Z" fill="#221D19"/>
<path d="M25.1845 5.47946C22.4288 2.58503 18.7817 0.964984 14.9115 0.918026C11.2411 0.876286 7.81333 2.26937 5.23925 4.84814L5.02258 4.63031C7.61483 2.03328 11.0608 0.608887 14.7428 0.608887C14.7999 0.608887 14.857 0.608886 14.9141 0.610191C18.866 0.657149 22.5922 2.31111 25.405 5.26685L25.1845 5.47946Z" fill="#221D19"/>
<path d="M15.2348 30.3567C14.9689 30.3567 14.6886 30.345 14.4771 30.3293C14.1216 30.3045 13.6247 30.2524 12.9592 30.1689C12.5673 30.1193 12.0795 30.011 11.7811 29.9341C11.2907 29.8063 10.6342 29.6067 10.1464 29.4358C9.7247 29.2884 8.80613 28.9036 8.00952 28.4445C7.64105 28.2332 6.6628 27.6697 5.6599 26.8062C5.1552 26.3718 4.38973 25.6727 3.56976 24.62C3.2986 24.2731 3.08971 23.9691 3.08842 23.9665C2.87824 23.66 2.87824 23.66 2.55777 23.1474C2.30997 22.7508 2.04919 22.2304 1.93761 22.0087C1.77154 21.676 1.59639 21.2821 1.49 21.0004C1.41086 20.7917 1.32912 20.5582 1.24998 20.326C1.13581 20.0182 1.03461 19.7038 0.947681 19.3855C0.829616 18.9238 0.675224 18.3146 0.611651 17.849C0.551969 17.4159 0.485801 16.9216 0.454663 16.5407C0.441689 16.3894 0.40147 15.8624 0.411849 15.4502L0.413146 15.385C0.422228 15.0054 0.433905 14.5332 0.46115 14.1693C0.485801 13.851 0.537698 13.4128 0.593487 13.0541C0.804966 11.7132 1.14619 10.744 1.16046 10.7036C1.26166 10.4205 1.44848 9.89223 1.60547 9.51918C1.71964 9.24787 1.90517 8.85394 2.10238 8.46654C2.3943 7.89131 2.84321 7.16477 3.21816 6.65606C3.6982 6.00647 4.31188 5.28254 4.78284 4.81427C5.49642 4.10468 5.77537 3.89207 6.70432 3.1877C7.02737 2.94248 7.48406 2.66595 7.79804 2.48072C8.08477 2.31115 8.48956 2.09463 8.82818 1.93027C9.15513 1.77114 9.62091 1.57026 10.014 1.41896C10.2372 1.33287 10.507 1.24547 10.7691 1.16199C10.8833 1.12547 10.9936 1.09025 11.0922 1.05634C11.4593 0.933725 11.9446 0.829374 12.3701 0.74198C12.6011 0.695023 12.8787 0.653282 13.1473 0.614151C13.2615 0.597194 13.3704 0.581541 13.4703 0.565889C13.879 0.50067 14.4187 0.475886 14.8443 0.462842C15.2089 0.449798 15.6357 0.453712 15.9302 0.470669C16.3558 0.495452 16.9487 0.55154 17.4378 0.614151C18.132 0.702849 18.7521 0.867202 19.4073 1.04199C19.8964 1.17243 20.5451 1.402 21.0213 1.612C21.4624 1.80766 21.792 1.96028 22.0268 2.08158C22.3239 2.2342 22.7209 2.45724 23.0141 2.63725C23.319 2.82378 23.668 3.05335 23.9029 3.22292C24.2532 3.47727 24.3712 3.56206 24.8967 3.99903C24.9538 4.04729 25.2535 4.30164 25.6466 4.68383C25.9463 4.97601 26.1967 5.25124 26.3174 5.38298C26.4627 5.54342 26.787 5.92169 26.9907 6.18778C27.3203 6.61562 27.3786 6.70432 27.7069 7.18955C27.9534 7.55608 28.3893 8.30741 28.6255 8.80699C28.8071 9.19048 29.1107 9.83354 29.3585 10.5953C29.6284 11.4223 29.8139 12.1501 29.9112 12.758C30.0098 13.3736 30.1214 14.0689 30.1421 15.0667C30.1655 16.1611 30.0682 17.0246 30.0085 17.442C29.9475 17.8685 29.8346 18.6642 29.4986 19.7821C29.2962 20.4564 28.9303 21.3225 28.6592 21.9304C28.5346 22.2095 28.3348 22.5813 28.0481 23.0665C27.9236 23.2791 27.7588 23.5243 27.6005 23.7604C27.5317 23.8648 27.4643 23.9639 27.4046 24.0565C27.1814 24.3996 26.8415 24.8183 26.5976 25.0961L26.5535 25.147C26.2603 25.4809 25.897 25.8957 25.5791 26.1827C25.5078 26.2479 25.4299 26.3183 25.3495 26.3927C25.1315 26.5923 24.885 26.8179 24.6774 26.9875C24.3907 27.2223 23.9677 27.5588 23.6226 27.7792L23.3852 27.9319C23.1387 28.091 22.8584 28.271 22.6275 28.4027C22.2707 28.6049 21.8036 28.8449 21.4663 29.0002C20.274 29.548 19.2451 29.8141 19.1323 29.8428C18.4304 30.0189 17.5118 30.1767 16.937 30.2576C16.6244 30.3019 16.2325 30.3176 15.8861 30.3319C15.772 30.3371 15.663 30.3411 15.5618 30.3463C15.4619 30.3541 15.349 30.3567 15.2348 30.3567ZM3.50359 24.0187C3.58533 24.1309 3.69172 24.2757 3.81108 24.4283C4.61548 25.4601 5.36538 26.1449 5.8597 26.5714C6.84054 27.4166 7.80063 27.9684 8.16131 28.1758C8.94106 28.6245 9.83498 29.0002 10.2476 29.1436C10.7276 29.3106 11.375 29.5076 11.8589 29.6341C12.2404 29.7332 12.6867 29.8232 12.9981 29.8624C13.6572 29.9458 14.1489 29.998 14.4992 30.0215C14.7924 30.0424 15.2219 30.058 15.5488 30.041C15.6513 30.0358 15.7616 30.0306 15.8757 30.0267C16.2144 30.0124 16.5997 29.9967 16.8968 29.955C17.4638 29.8754 18.3707 29.7202 19.0609 29.5467C19.1712 29.5193 20.1754 29.2597 21.3431 28.7223C21.6739 28.5697 22.1319 28.3349 22.4809 28.1367C22.7053 28.0101 22.9804 27.8314 23.2243 27.6749L23.463 27.521C23.7952 27.3097 24.2078 26.9797 24.4893 26.7514C24.6904 26.5883 24.933 26.3653 25.1484 26.1683C25.2301 26.094 25.308 26.0222 25.3806 25.957C25.6855 25.6818 26.0436 25.2748 26.3303 24.9461L26.3744 24.8953C26.6106 24.6252 26.9401 24.2196 27.1542 23.8896C27.2139 23.797 27.2826 23.6952 27.3527 23.5909C27.5084 23.3574 27.6693 23.1161 27.7899 22.9113C28.0702 22.4365 28.2648 22.0752 28.3841 21.8065C28.6514 21.2065 29.0108 20.3534 29.2093 19.6947C29.5388 18.599 29.6504 17.819 29.7101 17.4003C29.7685 16.992 29.8632 16.1468 29.8398 15.0745C29.8191 14.0989 29.7101 13.4141 29.6128 12.8101C29.5181 12.2166 29.3351 11.5058 29.0705 10.6931C28.8279 9.95093 28.5294 9.31831 28.3517 8.94134C28.1208 8.4535 27.6965 7.72174 27.4591 7.36956C27.1321 6.88563 27.075 6.79954 26.7507 6.37822C26.5509 6.11865 26.2356 5.74951 26.0942 5.59298C25.9761 5.46255 25.7296 5.19254 25.4364 4.90557C25.0511 4.52991 24.7592 4.28338 24.7047 4.23773C24.187 3.80728 24.0702 3.7225 23.7264 3.47336C23.4981 3.3077 23.1568 3.08335 22.8584 2.90074C22.5717 2.72464 22.1825 2.50681 21.8906 2.35681C21.6609 2.23811 21.3379 2.08811 20.9019 1.89506C20.4388 1.69027 19.8082 1.46722 19.3321 1.34069C18.6872 1.16851 18.0775 1.00677 17.4028 0.920681C16.9189 0.859375 16.3363 0.803287 15.916 0.778503C15.6292 0.761546 15.2141 0.758938 14.8586 0.770677C14.4421 0.785025 13.9141 0.808504 13.5222 0.871115C13.4223 0.886767 13.3108 0.903724 13.1966 0.920681C12.9319 0.959813 12.6582 1.00025 12.4363 1.0459C12.1353 1.10851 11.5748 1.2233 11.1934 1.35113C11.0922 1.38504 10.9819 1.42026 10.8664 1.45809C10.6082 1.54157 10.341 1.62635 10.1269 1.70983C9.74157 1.85853 9.28487 2.0555 8.96441 2.21072C8.63746 2.36985 8.23137 2.58508 7.95632 2.74812C7.64754 2.93074 7.20252 3.20074 6.89244 3.43553C5.97646 4.13077 5.70012 4.34078 5.00211 5.03471C4.54152 5.49385 3.93822 6.20213 3.46726 6.84128C3.10139 7.33695 2.66416 8.04784 2.37873 8.60872C2.18412 8.9909 2.00248 9.377 1.8909 9.64179C1.73781 10.007 1.55228 10.5288 1.45238 10.8092C1.4381 10.8483 1.10726 11.7914 0.899677 13.1036C0.845186 13.4493 0.793289 13.8876 0.769935 14.1941C0.74269 14.5502 0.73231 15.0185 0.723228 15.3941L0.721931 15.4593C0.715444 15.7267 0.731013 16.122 0.763448 16.5159C0.797181 16.9189 0.873729 17.4759 0.919138 17.8072C0.980117 18.2559 1.13191 18.8547 1.24349 19.2929C1.24479 19.2994 1.24609 19.3047 1.24868 19.3112C1.32263 19.5525 1.42513 19.8747 1.53411 20.1995C2.26196 22.1704 3.5477 23.9026 5.29273 25.2605C5.31608 25.2787 5.33814 25.2957 5.36149 25.314L5.17596 25.5592C4.56228 25.087 4.00439 24.5731 3.50359 24.0187Z" fill="#221D19"/>
</svg>
