<svg width="131" height="48" viewBox="0 0 131 48" fill="none" xmlns="http://www.w3.org/2000/svg">
<path fill-rule="evenodd" clip-rule="evenodd" d="M2 0C0.895431 0 0 0.89543 0 2V40C0 41.1046 0.895433 42 2 42H58.302L66 48L73.698 42H129C130.105 42 131 41.1046 131 40V2C131 0.895431 130.105 0 129 0H2Z" fill="#26262C"/>
<path d="M29.8807 25H32.608C34.1705 25 35.0227 24.1193 35.0227 22.8551C35.0227 21.5909 34.1705 20.7812 32.608 20.7812H30.7614V18.5085H34.2699V17.7273H29.8807V25ZM30.7614 24.233V21.5625H32.608C33.6023 21.5625 34.1562 22.1449 34.1562 22.8409C34.1562 23.5511 33.6023 24.233 32.608 24.233H30.7614ZM36.856 25.0994H37.3248C38.4327 25.0994 38.7594 24.5028 39.0577 23.821L41.5719 17.7273H40.6344L38.802 22.2443L36.7992 17.7273H35.8475L38.3617 23.2955L38.248 23.5653C38.0918 23.9205 37.8361 24.2756 37.3105 24.2756H36.856V25.0994ZM42.0877 26.7614H42.9258V25H48.0536V26.7472H48.8917V24.2188H48.0536V17.7273H43.7354L43.5792 20.7955C43.4798 22.8835 43.0394 23.7784 42.5565 24.2188H42.0877V26.7614ZM43.6076 24.2188C44.0479 23.5227 44.332 22.3864 44.4173 20.7955L44.5309 18.5085H47.2156V24.2188H43.6076ZM51.1032 17.7273H50.2225V25H51.1032V17.7273ZM52.869 25H55.4968C57.2156 25 57.9258 24.1619 57.9258 23.0682C57.9258 21.9176 57.1303 21.2926 56.4627 21.25V21.179C57.0877 21.0085 57.6417 20.5966 57.6417 19.6591C57.6417 18.5938 56.9315 17.7273 55.4116 17.7273H52.869V25ZM53.7496 24.2188V21.6903H55.5394C56.4911 21.6903 57.0877 22.3295 57.0877 23.0682C57.0877 23.7074 56.6474 24.2188 55.4968 24.2188H53.7496ZM53.7496 20.9233V18.5085H55.4116C56.3775 18.5085 56.8036 19.0199 56.8036 19.6591C56.8036 20.4261 56.1786 20.9233 55.3832 20.9233H53.7496ZM59.3729 25H60.2536V21.7472H64.1314V25H65.0121V17.7273H64.1314V20.9659H60.2536V17.7273H59.3729V25ZM66.7752 17.7273V25H67.6275L71.5906 19.2898H71.6616V25H72.5423V17.7273H71.69L67.7127 23.4517H67.6417V17.7273H66.7752ZM80.4835 24.1619H79.7306V17.7273H78.8926V24.1903H75.1426V17.7273H74.3045V25H79.475V26.7188H80.3841L80.4835 24.1619ZM81.4165 18.5085H83.7035V25H84.5842V18.5085H86.8711V17.7273H81.4165V18.5085ZM88.2303 25H90.8581C92.5769 25 93.2871 24.1619 93.2871 23.0682C93.2871 21.9176 92.4917 21.2926 91.824 21.25V21.179C92.449 21.0085 93.003 20.5966 93.003 19.6591C93.003 18.5938 92.2928 17.7273 90.7729 17.7273H88.2303V25ZM89.111 24.2188V21.6903H90.9007C91.8525 21.6903 92.449 22.3295 92.449 23.0682C92.449 23.7074 92.0087 24.2188 90.8581 24.2188H89.111ZM89.111 20.9233V18.5085H90.7729C91.7388 18.5085 92.165 19.0199 92.165 19.6591C92.165 20.4261 91.54 20.9233 90.7445 20.9233H89.111ZM100.871 21.3636C100.871 19.0625 99.5211 17.6278 97.6603 17.6278C95.7995 17.6278 94.4501 19.0625 94.4501 21.3636C94.4501 23.6648 95.7995 25.0994 97.6603 25.0994C99.5211 25.0994 100.871 23.6648 100.871 21.3636ZM100.018 21.3636C100.018 23.2528 98.9814 24.2756 97.6603 24.2756C96.3393 24.2756 95.3024 23.2528 95.3024 21.3636C95.3024 19.4744 96.3393 18.4517 97.6603 18.4517C98.9814 18.4517 100.018 19.4744 100.018 21.3636Z" fill="white"/>
</svg>
