<svg width="131" height="48" viewBox="0 0 131 48" fill="none" xmlns="http://www.w3.org/2000/svg">
<path fill-rule="evenodd" clip-rule="evenodd" d="M2 0C0.895431 0 0 0.89543 0 2V40C0 41.1046 0.895433 42 2 42H58.302L66 48L73.698 42H129C130.105 42 131 41.1046 131 40V2C131 0.895431 130.105 0 129 0H2Z" fill="#26262C"/>
<path d="M21.8807 25H24.5085C26.2273 25 26.9375 24.1619 26.9375 23.0682C26.9375 21.9176 26.142 21.2926 25.4744 21.25V21.179C26.0994 21.0085 26.6534 20.5966 26.6534 19.6591C26.6534 18.5938 25.9432 17.7273 24.4233 17.7273H21.8807V25ZM22.7614 24.2188V21.6903H24.5511C25.5028 21.6903 26.0994 22.3295 26.0994 23.0682C26.0994 23.7074 25.6591 24.2188 24.5085 24.2188H22.7614ZM22.7614 20.9233V18.5085H24.4233C25.3892 18.5085 25.8153 19.0199 25.8153 19.6591C25.8153 20.4261 25.1903 20.9233 24.3949 20.9233H22.7614ZM29.2653 17.7273H28.3846V25H29.2653V17.7273ZM30.4061 26.7614H31.2441V25H36.372V26.7472H37.21V24.2188H36.372V17.7273H32.0538L31.8975 20.7955C31.7981 22.8835 31.3578 23.7784 30.8748 24.2188H30.4061V26.7614ZM31.926 24.2188C32.3663 23.5227 32.6504 22.3864 32.7356 20.7955L32.8493 18.5085H35.5339V24.2188H31.926ZM38.2576 26.7614H39.0957V25H44.2235V26.7472H45.0616V24.2188H44.2235V17.7273H39.9054L39.7491 20.7955C39.6497 22.8835 39.2093 23.7784 38.7264 24.2188H38.2576V26.7614ZM39.7775 24.2188C40.2179 23.5227 40.502 22.3864 40.5872 20.7955L40.7008 18.5085H43.3855V24.2188H39.7775ZM47.2731 17.7273H46.3924V25H47.2731V17.7273ZM48.4139 25H48.6838C50.2889 25 50.612 23.6932 50.7008 21.4062L50.8145 18.5085H53.5275V25H54.4082V17.7273H49.9764L49.8485 21.2358C49.7704 23.3807 49.536 24.1903 48.627 24.1903H48.4139V25ZM64.4206 17.7273H58.9945V25H59.8752V18.5085H63.54V25H64.4206V17.7273ZM66.1971 25H67.0778V22.3438H68.6687C70.3626 22.3438 71.1261 21.3139 71.1261 20.0284C71.1261 18.7429 70.3626 17.7273 68.6545 17.7273H66.1971V25ZM67.0778 21.5625V18.5085H68.6261C69.8086 18.5085 70.2596 19.1548 70.2596 20.0284C70.2596 20.902 69.8086 21.5625 68.6403 21.5625H67.0778ZM78.6811 21.3636C78.6811 19.0625 77.3317 17.6278 75.4709 17.6278C73.6101 17.6278 72.2607 19.0625 72.2607 21.3636C72.2607 23.6648 73.6101 25.0994 75.4709 25.0994C77.3317 25.0994 78.6811 23.6648 78.6811 21.3636ZM77.8288 21.3636C77.8288 23.2528 76.7919 24.2756 75.4709 24.2756C74.1499 24.2756 73.1129 23.2528 73.1129 21.3636C73.1129 19.4744 74.1499 18.4517 75.4709 18.4517C76.7919 18.4517 77.8288 19.4744 77.8288 21.3636ZM79.5369 26.7614H80.375V25H85.5028V26.7472H86.3409V24.2188H85.5028V17.7273H81.1847L81.0284 20.7955C80.929 22.8835 80.4886 23.7784 80.0057 24.2188H79.5369V26.7614ZM81.0568 24.2188C81.4972 23.5227 81.7812 22.3864 81.8665 20.7955L81.9801 18.5085H84.6648V24.2188H81.0568ZM87.97 25L88.7015 22.9403H91.6419L92.3734 25H93.2967L90.6262 17.7273H89.7172L87.0467 25H87.97ZM88.9785 22.1591L90.1433 18.8778H90.2001L91.3649 22.1591H88.9785ZM98.7335 17.7273H97.8528V20.9517H96.9721L95.0829 17.7273H94.0176L96.1767 21.2074L93.8187 25H94.813L96.8017 21.7756H97.8528V25H98.7335V21.7756H99.7846L101.759 25H102.768L100.41 21.2216L102.583 17.7273H101.518L99.6284 20.9517H98.7335V17.7273ZM104.305 25.0994H104.774C105.882 25.0994 106.209 24.5028 106.507 23.821L109.021 17.7273H108.084L106.251 22.2443L104.248 17.7273H103.297L105.811 23.2955L105.697 23.5653C105.541 23.9205 105.285 24.2756 104.76 24.2756H104.305V25.0994Z" fill="white"/>
</svg>
